<svg xmlns="http://www.w3.org/2000/svg" viewBox="0 0 636.2 335.3"><defs><clipPath clipPathUnits="userSpaceOnUse" id="a"><path d="M0 500h500V0H0Z"/></clipPath></defs><g clip-path="url(#a)" transform="scale(-1.3333 1.3333)rotate(59.7 130.4 -235.7)"><path d="M307.8 196.5h-1.2l-.8.2h-.4l-.7.2-.6.2-.9.3-2.6 1.2-1.8 1.5-.6.6a15 15 0 0 0-1.9 3.1l-.2.4-.4.9-.2.5-.3.7-.1.3-.2.5-.5 1.4-.5 1.3-.5-1-.5-1.1-.4-.9q0-.3-.3-.5l-.2-.5-1.5-2.4a10 10 0 0 0-3-2.6l-1.1-.4-.6-.1H284l-.5.2-.5.2-.8.5q-.8.8-1.5 1.9a10 10 0 0 0-1 3.6l-.1 1-.1 1.3v4.3l.1 1.5v.2l.2.8v.6l.1.4.2.8v.4l.3 1.2.3.9.2.7v.4l.5 1.2q0 .4.3.8l.8 2 .8 2.2.7 1.3q0 .4.3.8l1.2 2.5 1.2 2.4 1.1 2.3-.8-.9-3.1-3.5-.8-.9-.2-.2-.5-.5-1-1-.6-.7-2.5-2-.6-.5-.5-.3-1-.7-1-.7-.8-.5-1.9-1.1-1.9-1.2-1.2-.8-.7-.4-1.4-.8-.4-.2-.3-.1-1.3-.7-.9-.3-.7-.3-.3-.1-1.3-.4-2.1-.6-.3-.1-.7-.2-1-.2-1.4-.3-1-.2-.7-.1-.9-.1h-3.8l-.7.2-1 .1-1.3.3-1 .3a16 16 0 0 0-5 2.6q-.5.3-.8.9-.2 0-.3.4l-.9 1.6a13 13 0 0 0-.9 5.5v1.5l.1.7.2 1.5a24 24 0 0 0 1.2 5.4l1.2 2.3.8.7a11 11 0 0 0 7.3 2.6h1.4l4.4.2h2.2l2 .2h2l.8.2h1.4l2 .3h.7l1 .2 1.9.3q1 0 2 .3l1.3.2.8.1 2.5.5 2.4.7h.2v.1l-.3.2-3 1.3-1.8.7-1.5.6-1 .3-.4.2-.5.1-2 .4h-.5l-1 .2h-2.3l-4.5.2H258l-1.2.1-.8.1-1.5.2h-.3l-.7.1-1 .2-1.2.2-1.2.3-2 .5-2.1.4-2.3.5-2.4.5-2.3.5-.9.2-1 .2-1.4.4-.8.2-3.5 1.2q-.2 0-.5.3l-.9.6-.5.5-1.6 2a8 8 0 0 0-1.1 4.1v1.4l.1.8.2 1 .4 1.6.4 1 .4 1 .2.5.3.6.4.8.4.7.2.4.7 1 .1.3.6.7.5.7.7.9.8 1 .2.2.6.6.3.2.5.5 1.6 1.4.9.7 5.6 4.3 1.4 1.1.7.4.4.2.9.4.6.3.4.1.7.3h.4l1 .4 1 .2 2.2.4 2.2.4 2.3.4 2.2.4.7.1.4.1 1.3.2h1.1l1 .1h10.1l-2.1 2.2-1.5 1.5-3 3-.7.9-.4.3-.6.6-.8.7-.7.7-.9.8-1 .9-.7.6-.7.7-1 1-.5.8-.5.6-.2.2-.8 1.2-.5.6-.7 1.2a25 25 0 0 0-2.3 5.4l-.2 1-.4 1.6-.1.5-.3 1.7-.1.7-.2 1.5v.6l-.1.2v1.4l-.1.8v3.6l.2 1.2a8 8 0 0 0 .6 2.6l.2.4.2.4.2.3.2.2.2.4.6.7a10 10 0 0 0 3.1 2.3l1 .2h1l.7-.2.4-.1.3-.2h.3l.9-.5 1-.6 2-1 .7-.5q.3 0 .5-.3l.8-.6 1-.7.7-.7.5-.5.3-.2.9-.9.3-.3.6-.7.7-.7.6-.7 1.6-1.9 1.5-1.8.6-.7.7-.8.8-1 .2-.4.4-.6.2-.3.4-.6.2-.3.4-.7.1-.3.4-.7v-.2l.4-.8.2-.3.2-.6.2-.6v-.4l.4-1 .3-1.2 1-4.4.8-3.5.7-3.3.6-3.3.6-3.2q.2-1.2.6-2.2l.5-1.1.2-.2.2-.3.3-.3.2-.1.2-.2h.2l.1-.1h.8l.2.1.1.1.4.3.6.8.9 1.7.3 1 .2.9.4 3.4.3 2.5.1.9.2 1 .2 1.5v.4l.1.4.3 1.4.3 1 .2.6v.3l.5 1.4.3.7.6 1.5.1.3.2.3.7 1.5.3.6.7 1.4.6.9a22 22 0 0 0 4.6 5.5l1 1q.3 0 .6.4l.1.1 1.2 1 .6.4 1.3.9a11 11 0 0 0 2.3 2l.8.3.6.3a14 14 0 0 0 3.3.7h1.4l1.8-.5q.8 0 1.3-.4l.7-.3.3-.2.4-.2 1.2-.9.5-.5q0-.3.3-.4l.4-.7a26 26 0 0 0 2.6-5.3l.5-1.5.4-1.4.4-1.5.5-3.1.2-1.5V307l-.1-1.5-.1-.7v-.6l-.2-1-.2-.7-.3-1.6-.3-1.5-.4-1.5-.1-.4-.4-1-.1-.5-.4-1-.2-.4-.5-1-.7-1.3-.2-.5-.5-.8-.7-1.2-.8-1.3-1-1.4-1.6-2.6-.7-1 4.5 2.3 1.4.7 1.3.7a14 14 0 0 0 4.1 1.1h.8l1.5.2h1.5l.9-.2h.7l1.1-.3q1-.2 1.8-.7l1-.6.6-.4.6-.5.7-.5.6-.6.4-.5 1.3-1.1 1-1q1-.8 1.8-1.8l.6-1.1.4-.7.4-.9a9 9 0 0 0 .7-3.8q0-.8-.2-1.5l-.2-.9-.2-.8v-.5l-.4-1-.5-1.5-.5-1.4-.6-1.3-.3-.6-.3-.6-.7-1.4-.7-1.4-.4-.8-.4-.6-.3-.6-.5-.8-1-1.3-.1-.3-.4-.5-1.4-1.6-.6-.5-.5-.5-.7-.6-.3-.1-.2-.2-.8-.6-.6-.3-.6-.4-.2-.1-.5-.3-1.4-.7-1.4-.7-1.3-.8-2-1.3-.3-.4v-.6l.2-.2 1-.8h-.1l1.7-1.5.5-.4 1.3-1.4a4 4 0 0 0 .7-2.5v-1l-.2-1.1-.1-1.1v-.4l-.1-.2h-.2v.1l-.1.4v-.3l-1-6.4v-.6l-1.5-2.5-.5-.6-.3-.4-.4-.4-.3-.4-.5-.5-.8-.8-.2-.2-.5-.4-.2-.1-1.9-1.2a10 10 0 0 0-4.5-1h-.4l-.9-.1h-.1l-.3-.2v-.1h-.2v-.2h-.1l-.1-.2v-1.9l.2-1.3.3-2.2v-.5l.1-.5V212l.1-1v-1.1a14 14 0 0 0-.5-3.6 18 18 0 0 0-3-6.3 10 10 0 0 0-4.2-3l-.6-.3-.8-.1zm-144.2 97.4-2.4.1q-.7 0-1.3.3-1 .4-1.8 1l-.8.7a13 13 0 0 0-2.2 3 12 12 0 0 0-1.6 7.4q0 2.7 1 5.1.6 1.4 1.4 2.7a16 16 0 0 0 2.9 3.3 11 11 0 0 0 4.4 2.1l2 .4 1.9.3 2 .3 1.8.2.8.1 1.3.2a20 20 0 0 1 4.9 1.8 21 21 0 0 1 5.3 3.8l1.4.9.8.4-3.5.2h-2.1a43 43 0 0 1-6.5-1.3l-1.7-.3-3.6-.8-.9-.1h-1l-2-.1h-3l-.9.1-.6.1-1.1.2a14 14 0 0 0-3.5 1.1l-.8.4-.9.5-1.7 1-3.3 2-.7.6-.8.6-.7.6-.7.8-1.2 1.4-.5.7-.5.8-1 1.7-1 1.6-.9 1.6-.4.9-.6 1q0 .4-.3.8l-1.3 3.7-.4 2v1l-.1 1a21 21 0 0 0 .6 6 11 11 0 0 0 1.8 3.1 9 9 0 0 0 3.4 2.7l1 .5 1 .4.7.3 2.4.7 1 .1h3.2l3.2-.4 1.1-.3 2-.9.8-.4.4-.2.4-.3.7-.5.8-.6a40 40 0 0 0 5.5-4.4l1.4-1.3 1.3-1.4.4-.3-.9 3.3-.2.8-.2 1-.2 1-.2 2.2a11 11 0 0 0 2 7 8 8 0 0 0 3.6 2.7 13 13 0 0 0 4.7 1l3.6-.1 1.8-.2 1.5-.1.4-.1-4.9 1.9-1 .3-1 .3-1.6.4-3.9.9-4.2 1.2-1 .7a8 8 0 0 0-2.6 3.1l-.5 1v.2l-.3.7a9 9 0 0 0-.6 2.7l-.1 2v1.9l.1.5.1.6.2 1 .1.7.2 1 .3 1q0 .6.3 1l.2.8.3.9.4 1 .2.3.3.7.5.9.5 1 .6.9.6.8.4.6.5.8.5 1.3q0 .4.3.8v.3l.2.5.1.8.2 1 .3.8.2.9 1 2.2.5.7.5.4.4.2.5.2 1.8.3h.9l1.4-.1 2.2-.5a12 12 0 0 0 3.2-1.5h.1l.7-.5.3-.3.8-.6 3-2.7.6-.5.7-.6 1.4-1.4.7-.7.8-.8.2-.3.7-.8.4-.5.4-.5.5-.6.5-.7.7-1.2 1.2-1.9.3-.3.2-.3.4-.5.5-.4 1-.9 2.2-2 2-2.5 1.6-2.5 1.4-2.6q.5.2.8-.3l1-1.8.8-1.7.4-.7.4-1 .2-.4.4-1.3.5-3.6v-4a64 64 0 0 1 .6-10 58 58 0 0 0 3 7.1l.5.9.5 1 .4.7.6 1 .8 1.2.6.7.5.7 2.6 3 1.3 1.4.7.8.8.7.7.7 1.5 1.2a9 9 0 0 0 4.4 1.4h1.4l1.9-.7q.8-.3 1.4-1l.7-1.4.3-.8.3-.8v-.4l.2-.3v-.5l.1-.5.2-.8v-1.3l.1-.6v-.8l-.1-1.5q0-1.8-.3-3.5v-3.5l.7-5.5.1-1v-.4l.1-.5a34 34 0 0 0-.3-7.6l-.1-.8-.2-.6-.1-.5-.3-.9-.3-.9-1.6-3.4-.5-.9-.6-1-.4-.7-.6-.8a65 65 0 0 0-4.6-6l-.6-.8-.8-.8-.4-.5-1-1-.5-.5-.7-.6-.9-.7-.2-.2-.6-.4-.6-.5-.9-.5-4.1-2-.6-.3-.5-.3-.7-.4-.8-.6-.4-.3-.4-.3-.7-.6-.7-.7-.6-.7-.6-.6-2-2.3-.9-1-.5-.5-.6-.5-.2-.1-.4-.3-.6-.4a11 11 0 0 0-2.9-1.3q-1.5-.3-2.8.4l-1 1-.6 1.1v.1h-.3l-1.2-.6-.7-.3-1.1-.3h-.6l-.5-.6-5-6-1.1-1.5-.6-.7-.6-.6-.9-.8-.7-.7-1.5-1.2-1.3-1.2-1-.7-.6-.6-.7-.5-1-.7-.5-.4-.8-.5-2-1-1.6-1-.8-.4q-.4 0-.8-.3l-1.2-.4-.8-.4-2-.7-1.6-.3-3.1-.9z" fill="#a199bf"/><path d="M353.7 210a19 19 0 0 0-4.5.3l-1.1.2a17 17 0 0 0-3.6 1.2 10 10 0 0 0-3.7 3l-1.5 2.2-.3.7-.4.6-.4 1-.3.7-.2.8-.3 1-.2.7-.1.8-1 6.2-.3 10.1.3 1.6v.3l.2.5 1 1.7q.2.3.6 0l.2-.2q1 .6 2.1.8l2.5.2a17 17 0 0 0 9.1-2.8 18 18 0 0 0 3.2-2.3l1.2-1.3 1.2-1.3 1.1-1.4.7-.8.5-.7.3-.4.5-.8.4-.5.9-1.5.8-1.5.7-1.6q.8-1.4 1.3-3.2l.4-.9.3-.9.2-.6.1-.6.1-.4.1-.7.2-.6.2-1.5.8-4.3.4-1.4v-.2l.3-.2-.1-.5-.4-.4h-1.5l-.8.1h-3.6l-.9-.2-.7-.1-1.6-.3q-1 0-1.7-.3l-1-.1-.9-.2zm17.4 35h-3.3l-1.6.1-1.3.1h-.5l-1.1.2-.7.1-1.7.2-1.1.2-2.1.5q-1.3.5-2.4 1.2l-.8.4-.7.4-1 .6-1.9 1.6-.7.8-.3.3-.2.3-.6.7-.4.8-.6 1q-.5.9-.7 2.1l-.1.5v.4l-.1.8v.2l.3 2 .2.5.5 1.1 1 1.2.2.2.5.5 1.8 1.2.6.4h.2l.6.6 2 1.6.4.4 3.8 2.4 2.3 1 .8.2 1.6.4 2 .5.9.2a26 26 0 0 0 5.4.3l1.2-.1h.7l1-.2 3.4-.6 3.4-1.4.9-.4.8-.4 1-.6.4-.2 1.9-1.1 1.4-1 1.2-.7 1.5-1 1-.6.7-.4 1.4-1.1.6-.5.8-.6 2.7-2 2.7-2 .4-.2.2-.4v-.4l-.4-.5-.7-.4-.4-.3-1.7-.9-1.5-.9-1.5-1-.5-.2-1.5-1.1-1.6-1-.4-.3-1-.6q-.4 0-.7-.3l-.8-.5-1-.4-.5-.3-1.6-.6-1.1-.5-.6-.2-2-.7-.5-.1-1.2-.5h-.6l-1-.2-1-.2h-.5l-1.3-.4h-1.1l-.2-.1h-.9l-.2-.1h-1.3zm-69-113.4h-.6l-1.9 1.7-2 2-.6.6-1.1 1q-.3 0-.6.4l-.7.4-2.7 1.7-2.5 1.4-.6.3-.6.3-1.2.6-1.2.5-1.3.6-.5.3-.7.4-1.2.7-2.8 1.7-1.3.8-1.2.9-.5.3-.6.5-.7.5-.4.4-.8.6-2.4 2.6-1.9 2.6-.5 1-.3.5-.5 1-.2.4-1.4 2.8-.5 1.2-.7 1.5-2.5 5.7-.5 1.3-.2.4-.2.6.3.6.3.1h.4l.6-.2.6-.1 3-.7 6-1.4 2.6-.5 1-.3h.7l1.6-.5h.5l.7-.3 1-.3.5-.1 1.7-.6.3-.2.9-.3 1.2-.6 1.6-.8.6-.4 2.6-1.9a20 20 0 0 0 5.6-8.1l.4-1.2.4-1 .1-.5.4-1 .6-2.2.1-.4.5-1.8v-.4l.2-1 .2-1.2.6-3.2.4-2.6.4-2.3.4-1 .4-.8.2-.6.3-.6.2-.5.2-.8q0-.3-.2-.5m-59.5 159.9-.6-.1-.4.1-.2.2-.4.3-.6.4-1 .8-2.3 2-1 .8-.7.6-.4.4-.4.3-.2.2-.5.6-.4.4-.4.5-.2.2-.8.9-.8 1-.6.5-1 1.2-.6.9-1.2 1.5-.2.3-.4.6-.9 1.4-.4.7-1.3 2.8a12 12 0 0 0-.9 4.2q0 2 .7 3.8 1.4 3.8 3.8 7l1.5 2.3 1.5 2.4.3.3h.2l.5-.1.2-.3.3-.5.4-.6.3-.5.6-.7q0-.3.3-.5l2.7-3.4.8-1 1-1.4.3-.5.5-.8.3-.4.5-.9.6-1.2.6-1.4.2-.5.2-.8.2-.7.2-.7v-.6l.1-.4v-.2l.1-.8v-2.6l-.2-.9v-.5l-.2-.8-.3-1.3-.3-1q0-.6-.2-1.1l-.1-1-.1-1-.1-1.4v-2.9l.2-1.3v-.5l.2-.3.2-1 .7-1.8.1-.2.1-.2v-.3q.2-.3-.1-.5m47.6 9q-.2 0-.3.2v.5a13 13 0 0 0-1.8 3.8l-.4 1.5v.5l-.4 2-.7 3.8-.5 1.8-1 3.6-.3.6q0 .4-.3.8l-.7 1.5-.4.8-.3.6-.4.5-.5.7-.6 1-.7 1-.5.5q0 .3-.3.4l-.8 1-1 1-.8.8-.7.7-1 1-1.5 1.2-.8.8-.6.5-.9.8-.5.5-.9 1-.5.4-.8 1-.5.5q-.7.7-1.2 1.6l-.8 1-.5.8-.7 1.2a11 11 0 0 0-1.3 5.1v3l.2 1.2.1 1 1.2 4.1a9 9 0 0 0 1.4 2.3 5 5 0 0 0 1.9 1.4 6 6 0 0 0 2.5.5l2.6-.3q1-.2 1.7-.6l.6-.3.4-.2 1-.5.8-.6 1.6-.9.6-.4.8-.4 1.2-.5 1.3-.4 1-.3a12 12 0 0 0 3.5-1.9l.7-.5 1-.7.6-.6.7-.5 1-.9.7-.6.5-.6.8-.9.2-.2.5-.6.2-.3.2-.4.4-.5.2-.3.6-1 1-1.6.1-.3.3-.6.4-.8.5-1.1.3-.7a17 17 0 0 0 1-6.9 18 18 0 0 0-1.2-4.7l-.5-1.2v-.3l-.3-.4-.5-1-.4-.8-1-1.7-2.5-4.5-1-1.6-.3-1-.3-.6-.2-.4-.5-1.5-.5-1.6-.7-2.7-.4-2.8v-2.5l.2-.3.2-1.3.1-.5v-.2l.2-.5-.6-.3q0-.2-.2-.2m-6 77.7q-.1-.5-.7-.2l-.3.2-.5.6-1.9 2-2 2-1 1-.9 1-1.4 1.6-.3.4-.2.2-.8 1.1-.4.7-.1.2-.3.5-.7 1.3-.2.5q0 .4-.3.8l-.1.4a18 18 0 0 0-1 7l.1 1.6v.7l.1.9.1.4.2 1v.5l.2.5v.4l.1.5.3.9.1.5.3.7.4 1.3.5 1.4 1.3 3 .5 1 .3 1 1.5 2.7a15 15 0 0 0 2.7 2.9l.7.4q.4.3 1 .3.4 0 .7-.2l.8-.5.5-.5 1-1 2-2.2.9-1 1-1 .5-.7.3-.4.6-.8.3-.4.5-.8a14 14 0 0 0 2-5.1v-3.3l-.1-.7-.2-1.5-.1-.5-.2-1v-.5l-.3-1-.1-.4-.3-.8-.1-.4-.1-.3-.3-.6q0-.5-.3-.8l-.2-.5-.6-1.3-.7-1.2-.7-1.3-.7-1.2-.8-1.3-.6-1.2-.2-.7-.3-.7a26 26 0 0 1-1-4.8v-.3l-.3-1.8v-.8zm-122 41.1q-.3 0-.4.2v.3q-.2 0-.3.2l-.1.2v.1l-.3.4-.2.5-.3.3-.4.8-1.7 2.2-1.3 1.4-1.5 1.5-2.4 2.7-1.2 1.4-1.5 1.7a31 31 0 0 0-5 7.9l-.3.6-.7 2-.3 1-.2.7-.3 1.2-.2 1-.2 3v1.4l.3 4 .2 1 .1.5.3 1.4v.2l.3.7.2.8.1.3.7 1.9.3.9.3 1 .7 1.7.7 1.9.8 2 .9 2 .3.7.2.4.4 1.1.3 1 .1.5.2.5.1.8.1.8.2 1.5v.3l.2.4.1.2h.4l.3-.2q.3 0 .4-.3l1-1.6 1-1.9 2-3.3 1.5-2.5.6-1 .8-1.2 1.3-1.8 1-1.6.5-.7.5-1 .5-.6.6-1.1.3-.8.5-.8.8-1.8.5-1.1.3-.9.4-.8.5-1.6v-.3l.4-1.3.1-.8.2-1 .1-.4.1-.7.1-.8.1-1v-1.3l.1-.6v-.9l-.1-1.4v-.4l-.3-2-.2-1-.3-1.4-.2-1-.2-.7-1.7-6-1.2-3.6-.6-1.7-.4-1.7-.8-3.4v-.2l-.1-.3.1-.3q0-.4-.2-.4" fill="#d98977"/><path d="m300.5 348-3.8.3-.8.2-2 1.1q-.8.6-1.2 1.3l-.5 1.6v.3l-.1.5v3l.1 1.5.3 3.5.2 4.6a.4.4 0 0 0 .5.4v.2l.5 1.7.3 1.2.4 1.4.4 1 .1.6.4.8.2.5v.1l.4.8.3.7.8 1.4v.1l.3.5.5.7.7 1 .4.6.3.3.5.7 2.4 2 .5.3.2.2.8.5q.3 0 .5.3l1 .4 1.3.6.6.2.8.4.7.2.7.2 1.4.4 1.3.3.9.1.5.1 2.6.3h1l1.1.2 1.2.2 1 .1 3 .6 1.6.2.7.1h.8l.3-.1.2-.4v-.7l-.2-1-.2-.6-.4-1.2-.3-1.2-.3-1.4-.3-1.7-.3-1.4v-.8l-.1-.6-.2-1.4v-1.6l-.2-1.6-.1-1.6-.1-.7-.1-.9v-.6l-.2-1-.1-.5-.2-1-.4-1.6-.1-.5-.3-.9-.2-.7-.2-.4v-.2l-.5-.9-.2-.5-.6-1-.2-.4-1-1.3-.9-1.3-.6-.7-.4-.5-.5-.6-.6-.7-.6-.5-.4-.4-.7-.6-.7-.5-.2-.2-.4-.3-.6-.4-.7-.4-.4-.2-.3-.2h-.1l-.7-.3-.8-.4-.7-.3a20 20 0 0 0-4.3-1.1zm116.7-224.6a1 1 0 0 0-.8-.4q-.2 0-.3.2l-.2.1v.2a21 21 0 0 1-3.2 3.6l-1.9 1.3-1.8.6-1 .1h-3.1v-.1h-.3l-1.4-.1h-4.4l-.8.2-1 .2h-.1l-1.1.2-1.2.3-1.4.4-1.1.3-2.4.1h-.8l-2-.7-2.1-.8-1.3-.4-.4-.2-.8-.2h-.3l-.8-.3-1.2-.2h-.6l-.4-.1-.8-.1h-.6a26 26 0 0 0-5.8.3l-.4.1-1.5.3-.5.2q-.8 0-1.4.4l-3 1.2-1.5.8-1.9 1.2-1 .7-2.5 2-1 1h-.1l-3.8 2.6-1 .6-1 .5-.9.4-.9.4-.8.4-.5.2-1.4.4-1.5.1-.7.1-.6.2-.3.3-.1.3v.3q0 .3.2.5l.4.3.4.4 2.9 1.9 2 1.2.9.6.7.5.6.3.5.2 1 .4 2.1.6.7.1 1 .3.5.1.6.2.4.1.3.2q.4 0 .8.3l.9.5 3 1.8q2.1 1.1 4.1 2.4l2.6 1.7 1.8 1.3 1.6 1.2 1.7.9.4.2.7.3.5.2.5.2.9.3q1.5.5 3.2.6 1.5 0 3-.3l1.1-.3 1.3-.4.4-.1.9-.3 2.1-1a12 12 0 0 0 5.9-6.7l.4-1.2q0-.4.3-.8l.5-1.1.2-.2.1-.2h.2l1.1-.5 1.2-.5 2.1-.8 1.1-.5q.4 0 .7-.3l.4-.2.6-.3.5-.3.5-.3a13 13 0 0 0 3.5-3.2l1-1.2.2-.4q0-.3.3-.5l.6-1.2 1.1-2 .6-1 .7-1.2.5-1 .4-1 .4-1 .6-1.4.3-1 .7-1.9q.6-1.7.6-3.4 0-.7-.3-1.3M202.1 181q-.4 0-.5.3l-.3 1-.3.7-.7 2.3-.7 2.2-.4 1-.2.8-.2.6-.5 1.5-.2 1.6-.3 1.6-.1 1v.7l-.1.7v1l-.1 1.6v.7l.3 3.5.2.7.2 1 .1.8.2.6.3 1 .2.6.3.8.3.7.3.7.3.8.4.7q0 .4.4.8l.2.5.5 1 .4.5.4.7.9 1.3.5.8.5.5.5.6.6.8 1.1 1.2 1 1.1 1.2 1.1 1.3 1 1.2 1 .5.3.8.6.5.3 1 .6 1.7 1 2.2 1.4 1.8.4.8.1.9.1 1.2.1h.8l.7.2 1.6.1h.4l1.6-.2h.4l.7-.3.9-.2.6-.2.3-.2.3-.1.4-.2.7-.4q.6-.5 1-1.3v-1l-.2-.6-.4-2.4v-4.1l-.1-3.3V211l-.1-1.6v-.3l-.1-.6v-.5l-.2-.8-.2-.9v-.3l-.2-.5-.2-.8-.3-.7-.2-.3-.1-.4-.8-1.3-.5-.8-.5-.7-1.9-2.5-.5-.6-.6-.8-.5-.4-.5-.6-.6-.5-.3-.3-.2-.2-.6-.5-.5-.4-1-.7h-.1l-.4-.3-.7-.4-1-.6-1.7-1-.4-.2-1.6-.8-1.5-.8-.9-.4-.7-.4-1.7-1.1-1.2-.7-1.2-.7-1.3-.9-1.3-.7-1.2-1-.7-.5-.5-.4-.9-.8-.4-.2zm-52.6 194.8h.3l-1.7 2.5-1 2-.3.4.2-.7.3-.7v-.3l.4-1 .4-1.4.3-.6v-.2zm-40-13.4h-.7l-1.6.1-2.3.2-.7.1-1.5.2-.8.2-1.5.3-.7.2-1.5.5-.7.2-1.4.6-2.1.9-2 .9-4.2 1.8-1.9.8-2 .8-.3.2q-.2 0-.5.3-.3 0-.4.4v.6l.1.2.3.3 1 .9.8.6 1.6 1.4 2 1.6 1.8 1.6 1.8 1.3a23 23 0 0 0 7.4 3.6q.8 0 1.4.3l.9.2 1 .2 3.2.6 3 .5.8.2.8.1.3.1h-1l-1 .2-1.2.1h-.5l-.8.2-1 .2-1.1.2-2.2.5q-.5 0-1.1.3l-.6.1-.5.2-4.1 1.9-1 .5-.6.3-.4.3-2.5 1.6-.3.2-.2.2-.2.2v.2l-.1.3v.3l.8.5.5.2 4 1.8 1.4.7.9.5.7.4 2.7 1.8 1.7 1.2 2 1.4.8.5 1.1.7.4.3.7.4.9.5.9.4 1.2.6h.3l1.7.7q.6 0 1.1.3l.4.2.9.2a17 17 0 0 0 5 .6l1.7-.2h1.2l.9-.2 1.4-.3 1-.2.6-.2.4-.1.8-.2.3-.2 1.3-.4.3-.2.7-.3 2-1a12 12 0 0 0 3.8-3.6l.5-.7.7-1.1.4-.7.7-1.3.5-.8.6-1.1 1-2 1-2 1-2 .2-.3.3-.7.6-1 .1-.2.3-.6.1-.4.2-.4.3-.2.3-.2h.6l2.3-4.7.8-1.3.8-1.2.2-.5.6-.9 1-1q.3 0 .5-.2.3-.4 0-.8l-.1-.2h-.5l-.2.1h.1l-1.4.6-1.3.3h-.3l-1.4-.3q-.5 0-.8-.3l-2.2-.7-2-.8-2-.9-2.3-.8-1.2-.5q-.4 0-1-.4l-1.9-.8-6.2-2.6-2-1q-.8-.1-1.4-.4l-.6-.3h-.2l-1.3-.5-1.1-.4a30 30 0 0 0-5-1.1l-1.3-.2h-1l-.2-.1h.1-1.2l-.3-.1h-3M271.7 108h-1.6l-.7.1-1.1.2h-.6l-1.7.4-.9.2h-.3l-.6.2-.7.2-4 1.5-.7.3-1 .5-.6.3-.7.4-.9.5-.7.4-1.3.9-1.5 1-4.2 3-1 .6-3.2 1.6.1.5.5.5.5.4.6.5q0 .3.3.4l.9 1 2 2.2 2 2 .8 1 .5.4.5.5.5.5 1.2 1h-8.2l-.6-.2-.8-.1-1.1-.2-2.4-.9-2.7-1.8-1-.7-1.3-1-3.4-2.6-.5-.4-1-.6-.5-.2-1-.6-3.2-1.3-2.4-.4a23 23 0 0 0-7.4.2l-1.4.4-2 .5-.8.2-.9.3-1.3.4-1.2.4-1.1.5-2.4.8-2.2.9-1 .4-.6.2-.3.1h-.2l-.1.2-.2.2.2.3.2.2.3.2.4.2q.3 0 .5.3.3 0 .6.4.8.4 1.2 1l2.2 2.2 1.4 1.5 1.2 1.1 1 1 1.5 1.6 1.2 1 .6.6.5.5a24 24 0 0 0 4.9 3.1l2 1 1.5.6 1.6.6 1.6.5 1.6.5.6.2 1 .2.7.1.6.2h.3l.9.1.7.1 1 .1h5.8l1-.2h.7l1-.2h.7l1.7-.3 1.7-.4 1.8-.3.7-.2.8-.2a81 81 0 0 0 8.3-2.3l1.6-.5 1-.4.7-.3a37 37 0 0 0 5-2.4l.8-.4 1-.4 4.5-1.6q.8 0 1.4-.3a28 28 0 0 1 4.8-1l3.2-.3 1.7-.2 1.8-.3 4-1.1.7-.3.7-.2.7-.3 1-.4.6-.3 1.4-.8 2.9-1.5 1.4-.8 1.3-.7 6-2.3h.3l.3-.1.2-.1.1-.5q0-.3-.3-.4l-.5-.2h-.3l-.7-.1-1.7-.2-1.3-.2h-.7l-.7-.2h-.5l-.4-.2-.8-.3-1-.4-1.1-.7-1.6-1.2-.2-.2-.5-.3-.6-.6-2.6-2.4-1.2-1.1-1.2-1.1-.6-.5-.8-.7-1-.8-3.6-2-2.4-1-2.2-.4-1.5-.2-1.5-.3h-2z" fill="#f2d6b3"/><path d="M209.3 395.2a3 3 0 0 0-2 0l-1.7.9-1.4 1.1-1.5 2-.9 1.3-.3.5-.6.9a18 18 0 0 0-2.3 5.2 19 19 0 0 0-.8 5.3v2.5l.5 4.4.3 1 .3.7.8 2.3a15 15 0 0 0 2.1 3.3l1.1 1.5 1.6 2.2.9 1.2 1 1.4 1 1.3.8 1.1 1.6 2.2.8 1.3.8 1 1.1 1.7.5-.1.2-.3.2-.3.5-1 .6-1 .7-1.4.4-.5.5-.9.8-1.2.7-1.1.7-1.3.8-1.5.3-.6.5-.8.2-.6.4-.8a16 16 0 0 0 1-4v-.4l.2-1.8v-4l-.1-1-.2-1.5-.2-1.5-.4-1.5v-.5l-.3-.9-.2-.6-.3-.8-.2-.7-.3-.6-.3-.8-.3-.6-.7-1.3-.5-.9q0-.2-.3-.5l-.4-.6-.5-.8-1.9-2.3-1.8-2.3-2-2z" fill="#d98977"/><path d="M195 121v.3l.3.4.2.2.1.3 1.1 1.2.8.7.4.5.6.4.5.4.4.4 2.8 2 2 1.3 4.8 2.8.8.3 4.6 1.6 1.7.4 2.1.5 2 .6 2.2.6 4 1.4 1.8.6 1 .3h.6l.4.2 4 .4 1.5.3 3.5.6h-1.5l-3.1.2H231l-1-.1h-1l-1.9-.3-1.4-.2-1.6-.3-1.5-.3-3-.9-1.5-.5-.5-.2h-.1l-6-3-1.8-1-2-1.1-1.2-.8-1.1-.7-1.9-1.2-1.2-.8-2.6-1.5-.5-.2h-1.1l-.2.2v.1l-.2.3v.9a16 16 0 0 0 1.5 3.7l.3.5.3.5.3.4.3.5.5.6q0 .3.3.5l.3.3.5.7q.3 0 .4.3l.3.4 1 .8 3.6 3.1 1.8 1.6 2 1.5.9.8 1 .8 1.1.9q.2 0 .3.2l.8.5.7.4.6.4 1 .5.1.1.6.3.8.3.7.3.5.2h.3l2.5.6.9.1 2.5-.2a30 30 0 0 0 4.7-1.7l1-.7 1-.9 1-1 .7-.7.4-.2.6-.5.3-.1.6-.2.5-.2 2.2-.3h4.5l2-.3 1.4-.8.4-.2.3-.3.4-.3 1.3-1.2.9-1 .3-.3.3-.3.2-.4.2-.3.3-.5.2-.4.2-.4.3-.6.1-.2 1.1.7 4 2 3 1.1 1.5.4.5.1.8.1.4.1.8.1 1.2.1 2.5.1 3.8-.1h.6l.6-.2 3-.4 2.1-.3 1-.2h.5l.4-.2.6-.2h.3l1.2-.4.8-.2.5-.3h.3l.9-.4.4-.3.4-.2h.2l.3-.3 2.5-1.8.6-.7.4-.4q0-.3.3-.4l.5-.7.4-.3.3-.4.5-.4.5-.5.6-.6.6-.5 1-.7.6-.4.7-.5.8-.4.3-.2.5-.2.7-.3h.2l.5-.2.7-.2.7-.2 1.6-.5.8-.2.9-.2-.4 1-1.8 2-2.4 1.8-2.4 2-2.2 2.3-1.2 1.2-.6.6-.6.5-1 .7-.8.5-.7.4-.9.6-1.2.7-2.1 1.1-2 1.2-2.3 1.3-2 1.3-2.1 1.4-.4.2-.6.5-.2.2-.7.5-.3.3-.5.5-.4.4-.3.3-1 1.3-1.1 1.8-.7 2-.5 2.1-.2 1-.2 1.1-.5 1.4-.3.4-.4.4-.2.2-.7.2h-2.8l-1.2-.2h-2.5l-.2.2-.3.1-.2.2-.3.4-.1.1-.1.3-.1.5v1.3l.2.4.5 1.1.3.5.3.6.3.4.2.2.2.3 1.2 1.4.5.4.7.4.7.4.9.3h2.3l.7-.1.6-.4a18 18 0 0 0 3.7-3l2.3-2.4 1.8-2.4 1.8-2.4 1.2-1.6 3.5-4.3.8-.8.7-.7.8-.9.9-.7.7-.7 1.7-1.6.8-.7.7-.7 1-1 .7-.7 2.2-2.3-.6 1-.6 1-.7.9-.7 1-.8 1-.6 1q-1.4 1.8-2.5 3.6l-1.3 1.8-.7 1-.8 1-.6.8-.4.6-1.3 1.4-1.2 1.4-1.5 1.6-2 2.1-1.2 1.2-.7.8-.4.4-1.1 1.4-1 1.2-1.1 1.4-.4.4-1.3 1.4-.6.5-.3.2v.1l-.1.3q0 .3.3.3h1.4l1.2-.2 2.4-.2h1l1.4-.2h.8l.4-.1.7-.1h.5l1.2-.3 1.2-.3 1-.4.9-.2.4-.1 1.4-.5.3-.2 2.9-1.4.6-.4.5-.3 1-.9 2.2-2.4.3-.5.4-.5q0-.2.3-.5 0-.2.3-.5l.4-.6.2-.5.7-1.2.2-.5.4-.7.5-1.1.5-1 .3-.6.2-.5.4-1q0-.4.3-.8l.1-.4.5-1.4v-.3l.3-1 .3-.8.3-1.5.2-.9.2-.9.4-1.9.4-2.1.1-1 .2-1.1.1-1 .1-.8.2-2 .3-4.3.1-.8.2-.8q0-.8.3-1.4a50 50 0 0 1 4.3-10.8l.5-1 1-2 1-2 1.2-2.2 2.2-3.9 2.2-4 .6-1 .7-1.2 1.2-2 1.2-2 .8-2 .6.9.4.6.4.7.2.4.2.5 1 2.1.9 2.4 3.6 8.4 2 4.1 1.4 2.6.8 1.4.8 1.3 1.5 2.5.8 1.2q.3.3.5.1t.1-.5l-.8-1.3-1.6-2.6-1-1.6-.7-1.5-1.7-3.2-.7-1.6-.9-1.8-1.5-3.5-1.8-4.3-1-2.4-.4-1.2-.4-1-.3-.6-.2-.5-.2-.4-.2-.3-.3-.5-.3-.4-1.1-1.4-.1-.6-.3-1.2-.7-2.2-1.4-4.6-.6-2.1-.5-1.8-.6-2.2-.6-2.5-.5-2.5-2.5-12.2-1-5-1-5.4-.8-4.8-.4-2.3-.4-2.5-.4-2.3-.3-3.1-.2-2v-.5l-.2-1.3-.2-3v-1.8l-.2-2v-2.9l.2-1.3v-.9l.2-1.2q0-.6.2-1l.1-.6v-.3h-.3l-.2.7-.1.5-.2 1.5-.2 1.6-.1 1.8v.5l-.1 1.5v3.8l.2 2.4v1l.2 1.5v1l.2 1.6v.9l.3 1.6v.8l.3 1.8.1.7.3 1.7.4 2.4.4 2.1 1 5.4 1 5.1 3 14.8.5 2.5.6 2.4.4 1.6 1.5 5 1 3.3 1 3 .3 1.6-1.5 2.2-2 3-2.1 3.3-1 1.7-1 1.7v-.1q0 .3-.2.5a33 33 0 0 0-2.9 7l-.9 2.5-1 2.1-.1.3-.4.6-.4.6-.4.4-.7.8-.5.3-.3.1-.3.1h-1.6a16 16 0 0 1-3.4-1.3l-.9-.4-.6-.4-.6-.4-.4-.3-.5-.4-1-.8-1.8-1.5-.4-.3-.4-.3-.9-.7-1-.7-1-.7-1-.6-1.2-.6-1-.5-1.3-.6-4.4-2.3-.5-.3-.6-.3-.7-.3-.5-.2-.6-.2-.8-.3-2.2-.6h-.8a12 12 0 0 0-5.1.6q-.2 0-.5.3l-1.4.8-.5.4-1 1-1.4 1.2-.1.2-.4.2-.2.1-.3.1h-.9l-.6-.2-.3-.1-.6-.2-1-.4-.7-.2-.5-.1-.5-.2-.7-.2h-.5l-.8-.2-1.3-.1h-3.5l-1.2.2-1.1.2-1.2.3-2.2.7-1 .6-.4.4q-.2.1-.3.4l-.2.2v.3l-.1.2v1l.2 1.2.5 3.5.2 1.1q0 .8.3 1.4l.1.5.1.3.2.2.1.2.2.2.3.2.4.2.2.1 3.6 1.1q2.4.8 4.8 1.3l2.3.6a59 59 0 0 0 7.4 1.3l2.5.3 5 .9 1.2.2h1.2l1 .1h6.8l1-.1h.3l.5-.1 1.5-.2 3.2-.3 3.2-.3-3.1 2.2-1 .5-1 .6-.5.1-1 .1h-1.8l-4.1-.9-6.7-1-2.4-.2-2-.2h-1.3l-1.2-.3-1-.2-1-.2-3.7-.7-1-.2-1-.3-1.2-.2-1.1-.4-2.5-.8-4.5-1.5-1-.4-.8-.3-1.6-.4h-.3l-.3.1-.3.2-.1.2-.1.3v.6l.4.7.4.5q0 .3.3.5l.5.6.6.9.9 1 .8 1 1.1 1.4 1 1.5v.1h-.2l-1.6.2-.8-.1h-.2l-1.4-1-1.6-1.3a59 59 0 0 1-4.8-5.3l-1.5-1.9-1.5-1.6-.7-.8-.4-.4-.4-.4-1-.9-.8-.7a12 12 0 0 0-3.5-2q-.7-.3-1.6-.3l-1.2-.2-1.2-.1-1-.1-1.8-.2-3.1-.1-.8.1h-.3l-.8.1h-.2l-.8.2-.4.1-1.2.3-.5.2-.7.2-.4.2-.8.2-1 .5-.3.1-.6.4-.4.2q-.3 0-.5.3l-.4.1-.7.5-1 .6-.4.3-2.2.8-1.5.2h-1.1l-.7-.2-.9-.1-.3-.1-.5-.1-1.1-.4q-.7 0-1.3-.4-.6 0-1-.3l-1.3-.4h-.7l-.3.3zm.7 0h.3l.3.1 3 1 1.6.4.9.2.7.1 1 .1a8 8 0 0 0 5-1.2l1.2-.8.8-.5.8-.5 1-.5h.1l.4-.2.6-.3 1.2-.4h.1l.4-.2 2-.5h.1l.4-.1.6-.2h1l.2-.1h.5l.8-.1h2.6l2 .3q1.5 0 2.8.3l2.3.5.4.2.8.4a14 14 0 0 1 3.2 2.8l.4.4.4.4.8 1 1.6 1.5 4.7 5.5 1.6 1.7 2.6 2 .4.2.5.2h2.9l.2-.1.2-.3v-.3q0-.5-.3-.8l-1.2-1.8-1.6-1.7q-1.6-1.7-2.7-3.7l-.2-.3v-.4l.2-.1h.2l.8.1 2.5 1 7 2.3q.6 0 1.1.3l1.2.3 1.2.3 1.2.2 2.6.5 1.1.3 1.3.2h1l3.4.4 2 .2 1 .1 1.3.2 1.4.1 4.6.8 2.7.5 2.6.3 1.3-.2.5-.1.4-.3.6-.3 1-.6 4-2.8v-.3l-.2-.3h-2l-1.7.1-3.2.2-1.6.2-1.6.2h-9.3l-1.2-.1-.5-.1-.7-.1-2.3-.4-2.5-.4-2.4-.3-7.6-1.4-2.3-.6-5.5-1.6-2-.6h-.2l-.2-.2-.1-.2-.2-.1v-.2l-.6-2-.1-.8-.3-2.5-.4-2.4V114l.2-.1v-.1l.1-.1.4-.3 1-.6 1.5-.5 1.4-.4h.1l.6-.1.5-.1 1-.1h.4l.7-.1h3.5l1 .2.5.1.5.1 1 .3.4.2h.4l2 .8.4.1h1.4l.3-.1.5-.2.4-.3.4-.4.7-.7.4-.4 2-1.6 1.8-.8.6-.1.8-.2 2-.1h.9l2.5.7.8.2 1 .4 1.1.5.6.3.7.4 2.4 1.3 3.8 1.8q.6.2 1.1.6l.9.5q.3 0 .6.4l.7.4 3.4 2.7 1.3 1 1.2 1a14 14 0 0 0 4 2.2l2.8.8h.8l1.1-.3.9-.6-.8 1.8-1.6 4.4-.4 1q0 .6-.3 1.1l-.1.6-.2.6v.6l-.1.5-.2 1.1v.7l-.1.7-.2 2.5-.3 2.8-.1 1.2-.3 1.4-.2 1.2-.3 1.6-.5 2.6-.3 1.1-.4 1.5-.6 2.1-.3.8v.4l-.5 1.1-.3.8-.3.6-.8 1.7-.4.9-.5.9-.8 1.5-.4.7-.4.7-.5.7-.6.8-1.5 1.7-.7.7-1 .6q-.1.3-.4.4l-.3.2-.5.3-.6.4-1 .4-1.1.5h-.2l-.5.2-.7.3-.6.2-.8.2-1.2.4-.8.2-.8.2h-.7l-.9.2-1.1.1-1 .1-2 .2-2.9.3.3-.3.5-.5.6-.7 1-1.3q.7-.6 1-1.2l2-2.2.7-.9.3-.3 1.3-1.4.9-.9.7-.7 1.7-1.8 1-1.2.8-1 1.1-1.4.3-.3.8-1.1.3-.4.4-.7.7-1 .6-1 1.4-2 1.4-2 .7-1 .8-1 .7-1.1.7-1 2.1-3.7.2-.2.2-.5-.1-.3h-.4q0 .3-.3.4l-.2.4-.6.7-.8.9-.6.7-1.3 1.4-1.3 1.4-1 1-.8.8-.8.7-1.1 1-1.9 1.8-1.7 1.7-3 3.4-3 3.9-1.8 2.4-.4.6-2.4 2.7-1.5 1.5-3.3 2.5-.3.2H266l-.4-.2-1-.5-.9-.5-.3-.3-.8-.9-.4-.5-.2-.3-.2-.3-.5-.8-.2-.4-.2-.5-.4-1.3v-.9l.1-.1.1-.2.2-.3h.2l.1-.2h.4l.2-.1h2.2l1.6.2h2.3l.9-.2.3-.2.6-.7.6-1.2.2-.5v-.3l.3-.8.2-1.4.4-1.5q0-.6.3-1 0-.6.3-1l.1-.3a9 9 0 0 1 1.6-2.4l1-1.2.6-.5.2-.2.3-.2.6-.5 1.2-.9.7-.5.9-.6 2.8-1.7 1.8-1.1 2-1.1 2.2-1.3 1-.6.5-.2.4-.3 1-.7 1.1-.7.4-.3.5-.4.5-.4 2.1-2.2 1.7-1.6.8-.8 1.1-1 1-.7 1-.7 1.8-1.6.7-.9.4-.8.4-1.1v-.3l-.4-.2h-.2l-.6.2-.7.1-1.1.3-1.2.3-1.5.5-.6.2-.5.2-.5.2-1 .5-.6.3-.5.3-.3.2-.6.4-1 .7-.3.3-.4.3-.5.5-.4.4-1.4 1.5-.8.9-.4.4-.4.5-.3.3-.6.5-.6.4-.6.5-.8.4h-.1l-.4.3-.4.2-.8.4h-.3l-1 .4-.4.1-1 .3-.8.2-.6.2-1.6.3-1.8.2-3.1.5-1 .1-1 .1h-4.9l-1.3-.1-1-.1h-.4l-.4-.2-.8-.1-1.5-.4-.7-.2-.7-.3-5.6-2.6-1.5-.9-.4.1-.3.5-.3.6-.4.8-.3.5-.4.6-.3.4-.2.2-.2.2-2.3 2.2q-.2 0-.5.3l-1.1.7-1.5.4h-6.1l-.9.2-.4.1-.4.1-.5.2-1.8 1-1 .9-.8 1-1.4 1.1a21 21 0 0 1-4.5 2h-.3l-1.7.2-3-.4-1-.2-1-.3-.4-.2-.6-.2-1-.5h-.1l-.4-.3-.5-.2-1-.7-.6-.4q-.3 0-.6-.4l-1.4-1-4.5-3.7-2.7-2.3-.7-.5-.7-.7-.7-.6-.4-.3-.3-.3-.6-.6-.2-.3-.4-.4-.5-.7-.1-.2-.4-.5-.4-.7-.5-.7-.3-.5v-.3l-.2-.3-.3-.5-.2-.6-.4-1.2v-.3l-.2-.3v-.3l.1-.1h.7l.4.2 1.2.6 2.5 1.5 1.6 1 1.8 1.2 1 .5.8.6.3.1.4.2.3.2 1 .5 1 .5 6.7 3.2 3.2 1.1 1.2.3 2.4.5 2.3.4h.8l.9.1 1 .1H241l.2-.4-.1-.2-.3-.1-1-.3-1.1-.2-.6-.2h-.5l-1.2-.3-2.3-.4-2.4-.3-1.6-.2-.7-.1-.7-.2-1-.3-5.5-2-3.8-1-1.8-.5-5-1.4-1.1-.4-1.3-.5-1.4-.8-3.7-2.2-1.8-1.4-1.7-1.2-1.3-1-.7-.6-.7-.6zm116.4-10-.5.8-.3.6.6-1.7.3-.8.2-.4.3-.5 1-1.7 1-1.8 1.1-1.7 1.1-1.8 1-1.6q.8-.7 1.3-1.8l.3-.3-.4.6-3.1 5.1-1.6 2.7-.7 1.3-.7 1.3z" fill="#fff"/><path d="M325.3 134.7a.4.4 0 0 0 .5-.3l.8-4 .4-2.8.5-2.8.5-3 .3-.7.2.2.4.6 2.8 4 1.4 2.3 1.6 2.5 1.6 2.4 1.5 2.4.1.2 1.4 4.6.5 1.2 1.9 3.5 1.6 2.4 1.5 2.8 1.3 2.6.5 1.3.1 1v.7l-.4.9-.7 1-1.3 2.4-.3.6-.2.7v.3l-.1.2-.2 1.8v.6l.1.5.2 1.2.4 1 .2.6.2.6.3.9.2.5.3.7.3.6.2.4v.2l.4.7.3.5.4.8.2.3.1.2.4.6.5.7.3.4.5.8a16 16 0 0 0 3.7 3.5l.7.4.5.3.8.4.4.3.8.4.4.2a20 20 0 0 0 4.7 1.2l1.8.2h2.3l3-.3 2.9-.3 1.5-.1h1.8-.1 1.1l3.3.6 1.5.3h1.4l.3-.2.2-.2v-.1q0-.5-.4-.8l-.5-.4-1.2-.8-2.3-1.4-1.8-1.2a55 55 0 0 0-6-3.4l-1.2-.6-.5-.4-.6-.4-.6-.4-.4-.4-.4-.3-.6-.5q0-.3-.3-.4l-.4-.4-1-1-.3-.4-.6-.6-.7-.9-1.7-2-.6-.8-.8-1-.5-.6.3.3v.1l.6.6 2.1 2 1.9 2 1 .9 1 1 .7.6.4.3 1.4 1q0 .3.3.4l1 .7.5.3 1 .7.5.3 1 .7q.4 0 .7.3l.7.5 1.2.6 1.3.7 1.4.7.4.2 1 .5.3.2.9.3.4.2.8.3h.2l.4.2.6.2q.5 0 .8.2h.7l1 .1.7-.1.3-.2.2-.2v-1.3a27 27 0 0 0-1.7-5.5l-.2-.3v-.2l-.3-.6-.1-.2-.2-.4-.3-.5-.4-.7-.2-.3-.3-.3q0-.3-.4-.6l-.7-1-.8-1.2-.4-.5-.2-.3-.2-.3q0-.3-.4-.5l-.5-.7-.4-.5-1-1.1q0-.3-.3-.4l-.7-.7-.3-.4-.7-.6-.3-.3-1.2-1-.1-.2q-.3 0-.4-.3l-.8-.5-.3-.3-.8-.5-.4-.2-.8-.5-.5-.2-.9-.4-1.2-.5-1.2-.5-2.6-1-2.8-1.1-2.6-.9-.7-.1-.8-.2-4.9-.8-1-.4-.5-.3-3.3-3q-.3 0-.4-.3l-1.3-1.5-.7-1-.4-.4-.3-.6-.3-.5-1-2.1-.1-.4-.3-.7v-.1l1 .2.7.2.9.2 3 2.5 1 .9 1 .8 1 .8a12 12 0 0 0 2.8 1.6l1.3.6.3.1.2.1 3.7 1 .1.1h.3l.2.1 2 .6 1.2.4.6.2.5.2.7.3 1 .5 1.5.8 1 .6 1.1.7 2.2 1.5 2 1.4.4.3.2.1.3.2q.3 0 .5.3l.5.2.3.1a16 16 0 0 0 4 1l1.3.3h.6l2.1.1h3l.8-.2h.8l.8-.2a10 10 0 0 0 3.2-1.2l.9-.8q.8-.7 1.2-1.5l.4-.8.4-.9.5-.8.2-.3.1-.3.5-.6.7-1.3.1-.3v-.3q.2-.2.1-.5v-.2l-.1-.2-.2-.2-.6-.5-.3-.2-.3-.1 1.3.3h.5l1 .2a18 18 0 0 0 4.8 0q.9 0 1.8-.4a7 7 0 0 0 2.8-2l.6-.7.2-.3 1-1.7.1-.2.2-.5.1-.2.3-.8.2-.6.5-1.5.1-.6.2-.6.2-.8.1-.7.1-.5.1-.8.1-.8v-.6l.2-.6v-2.3q0-1.5-.4-3l-.5-1.5-.4-.4h-.3l-.2.2-.2.6-.1.5-.1.6-.2 1-.3 1.3-.2 1-.7 1.9-1 1.4-.7.5-.7.3-.6.1h-.3l-1.3-.4-1.6-.6-.8-.4-.4-.1-.5-.1-1.7-.4-1-.1-.4-.1-.4-.1-1.2-.4-1.3-.5-.4-.1h-.1l-.3-.2-2.5-1-.7-.2-.6-.3-.8-.2-.6-.2-2.9-.6a14 14 0 0 0-7.2 1l-.9.3-.5.2-1.7.8-1.5.7-1.5.5h-1l-.7-.1-.8-.3-1.5-.7-.7-.2-1.7-.5a6 6 0 0 0-4.3.8l-.3.2-.3.2-.4.2-.1.1-.7.5-.2.1-.3.3-.2.2-.3.3-.5.4-.3.3-.2.3-.5.6-.5.5-1 1.3-.5.6-.6.6-1 .8-.2.2-.6.2h-.3l-.5.2h-.4l-.6.1h-.8l-1.4.1h-1.2l-.4-.1-.2-.1-1.7-1.6-1-1.1-.7-.7-.7-.8-2.6-2.9a74 74 0 0 1-6.6-9.3l-.5-.8-.4-.6-.2-.4-.2-.3-.1-.1q-.2 0-.1.2l.2.4.3.6.7 1.2.7 1.1.8 1.4 1.6 2.3 5 6.9a36 36 0 0 0 4.3 4.4l.5.5h.2v.2h.2l.4.2h.4l.6.1h1.4l2.8-.2h.3l.4-.2.6-.2.7-.4.9-.8.3-.3.2-.3 1-1.1.7-.9.4-.4.5-.6.4-.5.5-.4.3-.3.6-.5.7-.5.3-.2.4-.2.5-.3 1.4-.6 1.2-.2 1.7.2 1.7.7q.4 0 .8.3l2.2.6h1q1 0 1.9-.5l1-.5 1-.4.5-.3.7-.3 1-.4.4-.1.3-.2.8-.2a17 17 0 0 1 4-.6 15 15 0 0 1 3.9.5l1.2.4 1 .3 1.3.5 2.5 1 1.3.5 1.3.4.7.2.7.2 1.4.2q.6 0 1 .2h.4l.4.2.7.3 1.1.5 2.1.7h1l.3-.1.4-.2.4-.1 1.1-1 1-1.3a8 8 0 0 0 .9-2.4l.1-.6.2-.7q0-.8.3-1.4l.2-1.1.1.4.3 1v.5l.3 1.6v1.6l-.1.5-.1 1.1-.1 1-.1.8-.2.7v.7l-.3.8-.3 1-.1.4-.2.5q0 .6-.3 1l-.2.4-.1.5-.3.5-.1.3-.3.6-.7 1-.3.5-.2.2-1.7 1.6-1.5.6-2.8.4-2.6-.2-1.5-.2h-.4l-1-.3-1.1-.3q-.8 0-1.4-.3l-1.6-.4-1.5-.3-2.5-.5-1.3-.3h-.4l-.9-.2-1-.2-1.2-.2h-.4l-.6-.1h-.5l-.5-.1h-.5l-1.2-.3-.8-.1h-.5l-.7-.2h-2l-.1-.1h-10.7l-.3.2q-.3.2 0 .6l.4.1.6.2h3.3l1.1-.1 1-.1h2l5.7.4 1.6.1.8.1h.9l1.7.5q.7 0 1.3.3l1.4.4 3 1h.3l2.6.5 1.3.2 2.7.7.2.1.2.2h.1l.1.2.2.2v.4l-.4.8-.1.3-.6.9-.2.2-.2.3q0 .3-.3.5l-.6 1.1-.5 1-.2.3-.7 1-.6.5-.7.5-1.8.8-1.6.3-1.3.2h-1l-1.9.1h-2.2l-.8-.1-.7-.1-4.3-1.2-.7-.2-.3-.2-.3-.1-.5-.4-.6-.4-1-.8-3.6-2.4-.6-.3-.8-.5-.5-.2-.6-.4-.6-.3-.6-.3-.7-.3-.4-.2-.4-.2-3.2-1-1.5-.3-.7-.2-2.5-.7-.4-.2-.5-.2-2.6-1.2-.6-.3-.6-.5-2-1.6-1-1-2.9-2.2-.2-.2h-.1l-.5-.2h-.3l-.7-.2-2-.6q-.5 0-.5.4v.7l.1.3.2.5.3.8.6 1.3.6 1 .8 1.2.3.5.4.5.5.5a27 27 0 0 0 5.8 5l.6.2.5.1h.3l1 .2 2 .3 2.1.4.6.2h.1l1 .3 1.2.4 2.2 1 2.1.7 2.4 1 .9.4q.4 0 .8.3l.4.2.3.2 1 .5 1.3.8 1.3 1 .2.2.4.4.7.5 1 1.1.5.5.6.6.2.2.3.4.5.5.5.6.5.6.4.6.6.8.4.7.5.7.5.7.6.8.5.7.2.3.2.4.4.8.2.4.2.4.4.9.2.5.2.5.5 1.9.6 2.8v.1h-2l-.3-.2h-.5l-.6-.3h-.3l-.2-.1-1.1-.4-1-.4-.2-.2-.3-.1-1-.5-.7-.3-1.7-1-1.6-.8-1.3-.8-1.4-.8-.9-.6-.5-.3-1.4-1.1-1.8-1.5-.7-.5-.3-.3-1-.9-1-1-.8-.8-2-2-.8-.8-1-.8-1-1-.4-.4-.9-.7q-.3-.1-.4.1l-.1.3v.2l.1.1.2.3.3.3.2.4.4.4.5.7 2.9 3.5.8 1 .8 1 1 1 .6.6.4.4.5.5.7.6.1.2q.3 0 .5.3l.6.5.5.4.3.2.4.2 1.3.8 1.7 1 3.8 2.1 1.9 1.2 2 1.3 1.8 1.2.5.4h-.7l-1.7-.3-1.3-.3-.8-.1-.7-.2h-1l-.4-.1h-2.7l-3 .3-3 .3H361l-2.2-.5-1.8-.6-1-.4-.9-.5-1.1-.6-.6-.3-.3-.2-.2-.1-1.6-1.3-2-2.4-.6-.7v-.1l-.3-.4-.5-.7-.6-1-.1-.3-.3-.4-.4-.9-.5-1-.4-1-.4-1-.3-1-.2-.3-.2-.7-.2-1-.1-.7v-.8l.1-1.4v-.4l.1-.2.2-.5v-.3l.1-.2 1.4-2.5.7-1 .5-1.3v-1.5l-.1-.4-.2-.6-.6-1.3-.5-1.2-2.7-4.9-1.6-2.5-1.1-2.2-.4-.8-.8-2.6-.4-2-.1-.2-.2-.3v-.2l-1.6-2.3-1.5-2.4-1.6-2.4-1.6-2.2-1.6-2.4-1.4-2.3-.3-.4-.3-.2-.2-.1h-.6l-.2.2-.2.2v.3l-.3.6-.2.8-.4 2.8-.4 2.5-1.2 6.6q0 .4.3.4m63.5 11.9-.4-.1.8.1 1.6.4 1.5.3 1.4.3h-.2l-1.4-.2-1.2-.3-.7-.1z" fill="#fff"/><path d="m314.5 194.3.1 1.8v.4l.2.5v.3a16 16 0 0 0 1.7 4.4l.8.8.4.1 1 .4 1.1.6.2.2.7.6.5.8.4.7.1.3.2.3.2.6.1.4.3 1 .2.7.1.4.3 2.1.2 1.7v.5l.1.4.2.3.2.3.2.2.2.1.8.4h.4l.6.1 1.1.1 1 .3.8.4 1.2 1.2.4.5.5.7.3.5.3.4 1 2 .3.6.3.8.2.4.1.5.2.5v.6l.1.4v4.7l.2.2.2.1.4-.1.2-.2v-.1l.2-.1.3-.8.1-.5.1-.4.1-.5.1-.5.2-1.6.3-1.8.1-.9.3-1.1.1-.7.2-1 .3-1 .1-.4.2-.5.2-.7.1-.3.4-1 .3-.7.2-.3 1-1.8.4-.6.6-.7.3-.3.8-.8.3-.2.2-.2.5-.4.2-.1.3-.2.6-.3.4-.2.4-.2.2-.1 1.3-.3h.6l.7-.1h2.3l.3.1h.6l.1.1.6.1.5.1.5.1.8.2 3.5 1 1.8.5.9.2h.4l.6.2.8.2.9.1 2 .3 1.7.3 1.7.3.6.2v.5l-.5 1.6-1.2 2.1-.1.3-1 1.4q-.3 0-.4.3 0 .3-.3.4l-.2.2-.3.4-.2.1-.7.7h-.1l-.3.3-.4.3-.7.6-.7.5-1.5.9-1.3.8-1.6.9-3.3 1.7-3 1.7-.7.4-.3.2-.6.3-.6.3-1 .4-.8.4-2.6 1-1.7.6-1.7.7-1.9.6-1.6.6-2.6 1.1-.1.5v.2l.3.1.3.1h1.6l.5-.1h.3l1-.2.8-.2 1-.2.8-.2.6-.2.4-.2.5-.2.3-.1 1-.5 1.6-.7 1.7-.9 1.6-.8 4.8-2.3 1.8-.7 3.3-1.7 1.5-.9a50 50 0 0 0 6.3-4.5l-.1.6-.9 2.9-.7 2.3-.6 2.2-.4 1.3-.4 1-.2.6-1.1 1.9a12 12 0 0 1-3 2.6l-.3.3-1 .6-1.8 1-1 .6-1 .5-1 .6-.9.6-.9.6-1 .6-1.4.8-.7.4-.9.4-1.6.8-.8.4-.8.4-.6.2-2 .6a11 11 0 0 1-3.1-.1l-.7-.2q-.6 0-1.1-.3l-.6-.2-.6-.2-2.2-1-1-.5-1.2-.5q-.3 0-.5.3 0 .4.3.5h.2l1 .5 4.5 1.9h.4l.5.2a10 10 0 0 0 6.2-.3l.6-.2.9-.3 1.7-.9 1.7-.8.6-.3.6-.4 1.3-.7 1.4-1 1.3-.7.8-.5.8-.4 1.7-1 .8-.5.7-.4 1-.7a17 17 0 0 0 3-2.6q.8-.9 1.2-1.9l.2-.4.2-.4q0-.4.3-.8l1.1-3.8.8-2.5q0-.8.4-1.4l.2-.9.2-.5.2-.8v-.7q0-.3-.2-.4h-.3l-1.2 1-2.7 2-1.4 1-2.6 1.5-1 .6-1.3.6-.6.3-.7.3-3 1.4-3.2 1.5-2.8 1.4-1.6.7-1.5.7-.6.3-.3.1-.5.3h-.4l-.4.2-.9.2-.3.1-.5.1h-.4l-.5.2-.8.1-.8.1h-.6l2.7-.9 1.6-.5 3.6-1.3 1.7-.7 1-.4.9-.3.6-.3 1-.5.3-.1 3-1.7 3.3-1.8 1.7-.9 1.7-.9.7-.4.7-.4 1-.7.2-.1.6-.4.7-.5.3-.3.4-.3.4-.3.2-.2.7-.7.5-.5.2-.2.4-.4.2-.3.6-.8.2-.3.4-.6.5-.8a13 13 0 0 0 1.2-3.2v-1.3l-.3-.2h-.5l-3.6-.7-2.7-.4-.6-.1-.7-.2-.7-.1-.4-.1h-.3l-3.5-1-1.9-.6-.8-.2h-.4l-.6-.2-.9-.2-.9-.1h-4.2q-.6 0-1.1.3l-.4.2-.4.2-.9.4-1.8 1.3-.1.1-.3.3-.2.2-.5.5-.6.7-.6.8-.9 1.5-.5 1.2-.3.7-.3.9-.4 1-.2.9-.2.6v.2l-.3 1.1-.1.7-.2.7v.3l-.2 1.1-.1 1-.2 1.5-.2 1.2-.2 1.1-.2.4v-4.4l-.1-.5-.1-.5-.2-.4-.2-.5q0-.5-.4-.8l-.8-1.9-.5-.9-.3-.5-.4-.5-.3-.5-.4-.3-.4-.6-1-1-1-.4-1-.3-1-.1-1.6-.4-.3-.1-.1-.1-.1-.1v-.1l-.1-.1v-.1l-.2-.4-.2-3-.1-.7-.2-.7-.1-.4-.1-.3-.1-.4-.1-.4-.3-.7q0-.4-.3-.8l-.2-.6-.4-.7-.4-.6-.5-.7-.8-.8-.3-.2-1.3-.7q-.6 0-1-.3h-.1l-.2-.4h-.3l-.2-.6-1-2.7-.2-.8v-.4l-.1-.5v-.5l-.2-.5V194a51 51 0 0 1 .4-8l.2-1 .1-.8.2-1 .7-3.5.8-4 .4-1.9.4-1.8.2-.8.2-.9.5-2 .4-1.7.2-1 .1-.4.1-.7.4-1.7.1-1 .2-1 .5-3.6 1.1-7.5.6-3.7 1.3-7.4.7-3.3.6-3.6.1-1.6.1-.8v-.2h-.3v.4l-.2 1.7-1.1 5.6-1.6 7.3-1.2 7.4-.7 3.7-.3 2.1-.2 1.6-.3 2-.1.7-.2 1.3-.4 1.7-.1.9-.3 1-.5 2-.4 1.7-.8 3.7-.8 4-.7 3.5-.7 3.7-.1.9-.2 1-.2 5.4z" fill="#fff"/><path d="M321.8 248q.1.4.5.4l1.6-.4 1.5-.6 1-.4.4-.2.6-.2a6 6 0 0 0 1.7-1.4q.8-.7 1.3-1.6l1.4-1.8.5-1 .4-1 .8-2 .1-.5.2-.8v-.4l-.1-.6-.1-.3-.1-.3-.3-.1h-.2q-.3 0-.3.4L331 239l-.1.4-.2.7-.2.5-.1.5-.2.6-.1.5-.3.8-.2.3-1.2 1.3-1 1-.9.4q-.4 0-.8.3l-.8.3-.6.3-1 .4q-.7-.1-1.2.2zm8.8-5.9.2-.6.2-.5.4-1.2.4-1 .7-1.6.4-.8.1-.3v.7l-.2.9v.4l-.2.4-.3.7-1.4 2.7z" fill="#fff"/><path d="M296.9 249.4v.4l.1.3.1.6.2.6.1.4v.2l.4.7v.2l.2.4.3.5 1.3 2 .7 1 .4.5.1.3.3.1.1.1h.2l.4.2 1.7.3h1l2.2.3 1 .2 3.1.6 4.8.8 1.6.2h3l3.1-.2h.7l.8-.2a22 22 0 0 0 4.3-1.5l1-.8.3-.5h1.3l1.8-.2h1.9l.4.2h.4l.7.3.6.3 1.6.9 1.4.8v.1l.4.3.4.3q.3 0 .5.3l.4.3.3.4q.3 0 .4.3l.3.4.4.4q0 .3.3.5l.3.5.9 1.4.3.6.8 2 .1.5v.1l-.2.1-.2.1-.4.1-1.4.2-.9.1-4.6-.3-1.4-.2h-1.3l-.5-.1-.8-.1-.5-.1-.8-.1-4.3-.8h-.6l-1.3-.4-2.9-.7-2.8-.7-1.5-.5-.6-.2h-1.4l-.2.3v.3l.3.2.8.4 4.4 2 .7.3.7.2.7.2 1 .3 1.5.4h.2l.5.2.7.1 1.5.3h1l.7.2h1.7l.6.1h4l4.9-.5 1.8-.2h.2l.4.1.4.2.3.1.3.2.3.1.4.3 1.7 1.8.3.4.7 1.2.5 1.3.1.8.3 1 .1.4.3.6.4 1.1v1h-.1v.1h-.1l-.1.2-.5.2h-1.4l-.7-.2-1.4-.3-1.4-.3-.7-.1-.8-.2-.8-.2-.8-.2-1.2-.4-1.3-.5-2.5-1-2.5-1.2-1.4-.5-3.7-1.8-2.2-1.1-2.5-1.2-1.2-.6-.5-.3-.4-.1-.2-.1-.2-.1h-.2q-.5-.1-.4.4l.1.2.2.2.4.4.6.5.7.6.6.4 1 .6 2.2 1.3 1.4.7 1.4.7 4.4 2 2.1.9 2.2.8 2 .8 1.1.4 1 .3.1.1v.1l.1.1v.1l.1.2v.5l-.2.5v.1l-.5.6-.2.2-.7.4-1 .5-1.2.5-.8.5-.5.5q-.2 0-.5.3l-.2.2-.3.2-.6.4-.3.2-.4.2-.7.3-.5.2-.4.2-1.5.3h-2.5l-.4-.1-1-.3q-.4 0-.8-.3l-.5-.2-.4-.2-.2-.1-.6-.4-.1-.3-.5-.8-1.4-1.8-1.1-1.3-1-1.3-.6-.7-.5-.6-.3-.3-1.1-1-.3-.2h-.3l-.3.1-.1.1v.6l.4.6.8 1.3 1 1.3.9 1.3.2.2.4.4.5.6.4.5.8.6.1.2q.3 0 .5.3l.3.2.1.2-1-.2-1-.4-.4-.1-.4-.2-1-.5-.2-.1-.6-.3-.8-.5-.8-.5-1.7-1.2-.3-.1-.3-.3-.3-.3-.3-.3-.5-.5-.8-1-.4-.8-.1-.2-.4-1.4-.3-1.3v-.7h.2l.2-.2h.3l1.7-.3h.8l.2-.2.2-.1.1-.4v-.4l-.3-.4-.1-.3-.7-1-1-1.2q-.9-1.3-2-2.5l-.4-.5-.6-.6-.3-.3-.4-.3-.6-.6-1.1-1-1.3-.9-2.6-2-2.5-1.8-1-.9-.6-.4-.3-.2-.4-.3h-.3l-.2.2v.7l.2.4.2.7 1 3 .4 1.5.5 1.8.2.4.1.2.2.4 1.2 2 .5.6.2.2.3.3.6.5 2.8 2 .9.6v.1h-.5l-.9-.4-2.7-2.3-1.1-1-2-2.4-1-1-.5-.5-.5-.4a.4.4 0 0 0-.5.2q-.1.4.1.6l.4.3.6.5 2 2.2 3.4 3.3 2 1.4.8.2h.6q.3 0 .5-.2l.1-.3v-.6l-.1-.1-.3-.3-1-.6-1-.7-1-.8-.7-.7-.8-.7-1.5-2-.2-.4-.3-.8-.3-.8-.2-.7-.3-1-.3-1.4-.3-.9-.3-.8q0-.4-.3-.8l-.2-.5 1.5 1.2 2.3 1.8 2.5 1.9 1.3 1 1.1 1 .6.4.4.4.3.3.6.6.3.3.3.4.7.8 1 1 1.5 2.1.6 1v.1l-1.6.2-.9.1q-.3 0-.7.3l-.3.1-.2.3-.1.4v.7l.1.6.4 1.4.5 1.4.2.4.4.6.6.7.3.2.2.3.3.3.4.3 1.2 1 .6.3.7.4.7.5.8.4.6.4q.4 0 .7.3l.6.3.5.2.3.1 1.6.5.9.1h.6q.4 0 .7.3l.3.1.3.2.6.3.5.1.7.2 1.2.3h2.3l2-.3 1-.5.7-.3.7-.4.2-.1.4-.3.2-.1.4-.3.3-.2.2-.2 1-.8.7-.2.7-.3 1.9-1q0-.3.3-.3l.2-.4.4-.6.1-.3v-1l-.1-.5-.4-.5-.3-.2-.4-.1-1.3-.5-1.4-.5-1.5-.5-3.7-1.5-2.2-1-1-.5-2.8-1.3-.9-.4-.5-.3-2.3-1.3-1.3-1-.2-.1 1.3.6 3.1 1.6 8.7 4 4.4 1.7 1.5.4 1.6.4 1.5.3 1 .2 1 .3h.6l.5.1h.8q.6 0 1-.2l.4-.2.3-.3.2-.4v-.3l.1-.4v-.4l-.5-1.3-.2-.4v-.2l-.2-.2-.3-1.4-.2-.6-.4-1.2q0-.3-.4-.6l-1.3-1.8-1.6-1.5-.4-.2-1-.4.3-.2.4-.4v-1.1l-.1-.3-1-2.1-.1-.4-.1-.3-.2-.3-.3-.4-.4-.6-1-1.3-.1-.2-.4-.4-.4-.5 1.7.6 1.8.6q.5 0 .8.3l1 .4.3.1.3.2q.3 0 .6.4.3 0 .5.3l.5.4 2.2 2 1.1 1 1.2 1 1.2 1 1.3.9.7.5.3.1.4.2 2.8 1.5.7.3.8.3.3.2q.3 0 .5.2l.8.2.6.2.5.1.3.1 1.5.3 1.7.1.8.1h4.1l.6-.2h.5l.7-.2 1.1-.2.7-.2.5-.2.6-.2.6-.2 1-.4 1.3-.5.6-.2h.3l.4-.2.6-.1.9-.1.7-.2.8-.1.7-.2a10 10 0 0 0 2.6-1.3l1-.9.3-.3.3-.3.3-.3.2-.2 1.5-2 .2-.2.5-.9.3-.8v-.5l-.2-.2-.2-.1h-2.1l-1.6.2-1.7.2-1.8.2h-6.2l-1.6.1-1.5.1 1.3-.1h1l.7-.2 1.7-.2 3-.5 1.5-.2h.8l1-.2.7-.2h.3l.4-.2 1.5-.4 5.1-2 .4-.6v-.1q0-.4-.4-.7l-.6-.6-.8-.7-.2-.2-.6-1-.4-.8-.2-.3-.1-.4-.2-.4-.2-.5-.2-.7-.2-.3q-.1-.6-.4-1-.7-.9-1.6-1.5l-.7-.6-.7-.3-1.5-.7-1-.5-1-.5-1.6-1.3-.5-.3-.6-.3-1.4-.3-1.5-.3-3.2-.6-1.4-.3h-.7l-.8-.2h-1.7l-1.7.1-.8.1-3.2.6q-.8 0-1.4.3l-.8.1-.8.2-.8.3-1.5.7-.4.2-.6.5-.6.5-.7.6-.7.7-1.6 1.4-.7.8-2 2.4-.4.5-.2.2-.8.7-.7.4-1 .1h-.3l-.5.1h-1.8l-.4.1h-.3l-.2.1-1.4.4q-1 .4-1.8 1l-.6.7-.4.7-.6 1-.3.5-1-.3h-.5l-.4-.2-2.8-1.7-.3-.1-.4-.2h-.2l-.3-.1-.4-.1-.3-.1a7 7 0 0 0-2.6 0l-1.3.1h-1.3l-.4-.1-.2-.1-1-.7h-.3q-.3.3 0 .5l.5.6.4.2.2.1v.2l-.6.4-1.4.8-.7.2-1.2.4-2.4.5-1.1.1-3 .2h-1.6l-3.7-.5-1.4-.3-2.3-.4-2.5-.5-.7-.1-.6-.1-1.2-.2-2.4-.2h-.3l-.3-.2-.7-.2h-.2l-.2-.3-.5-.8-.8-1-.4-.7-.5-.9-.4-.9-.4-.8-.2-.7v-.3l-.1-.2-.2-.7v-2.1l.5-1.4v-.6l-.3-.2v-.6l.6-.3h.2l.5-.1h.4l.8.3 1.5.7 1 .7 1.2.7.5.4 1 .4.5.1h1.7l.6.2.7.3q.5.3 1 .2l2 .3.8.4h.4l.3.1h4.5l.8-.1 1.5-.2q.4 0 .7-.2h.4l.3-.2.3-.1.2-.2q.2 0 .3-.2l.2-.2v-.4l-.1-.2q-.2 0-.3.2l-.4.2-.7.3h-.4l-.6.2h-.7l-1.4.1H313l-.7-.4-1-.2h-.8l-.9-.2-.6-.1-.4-.3h-.3l-.3-.2h-2.1l-.3-.2-1-.6-.8-.5-3-1.8-1.6-.3h-.4l-1 .4-.5.4v.2l-.1.3v.4l.1.4.2.4-.1.3-.2.6-.3 1.6zm27.7 17.7-.9-.3-.8-.4-.9-.3-1.6-.8h-.2.4l1.7.5 3.2.8 1.5.3.7.2.7.1 1.6.3 1.8.3 1.5.2.8.1.7.1 1 .2h.7l1.6.2 1.2.2-3 .2h-1.5l-1.4-.2H332l-.5-.2h-.8l-.8-.2-.6-.1-1-.3-.9-.1-.8-.3q-.6 0-1-.3-.6 0-1-.3m-3 13.2.2.2.5.7 2 2.3 1.8 2.2-.2-.1-.8-.8-.3-.3-.4-.5-.6-.6-.4-.6-.5-.6-.4-.6zm31-16-2.3-2-1.3-.8-.3-.1-.4-.2-.7-.3-1.4-.5-1.6-.5-1.7-.6.1-.2.4-.7.6-1 .4-.5 1-.7 1.6-.5.4-.1.6-.1h.9l1-.1 1.7-.2.9-.3q.8-.3 1.3-1l.7-.7 1.5-1.7.4-.4.5-.6 1.1-1 2.7-2.4.6-.5.3-.2a7 7 0 0 1 3-1l.7-.2.9-.2 1.5-.2 1.6-.3 2.2-.4h2.3l.3.1h.6l1.4.3 1.3.3 1.3.2 1.4.3 1.4.2.5.1.6.2h.2l.3.1.6.4 1 .7.7.4.2.2.3.1.6.4.7.3 1.2.6 1.3.6.3.2.3.2.5.4.7.8.6 1.4.6 1.5.7 1.5.8 1.1 1.1 1.1.3.3h.1l.1.2.2.1v.1l-.1.1h-.1l-.2.2-1.2.5-.8.3-3.3 1.2h-.4l-.6.3-1.1.2h-.5l-.6.2-3.9.5-2.3.3-1.3.2-1.2.1-3.6.3h-1l-.7.1h-3.4l-1.6-.2-3.2-.3h-1.2l-1.4-.1-1.6-.2-1.3-.1-5.4-.3h-.1l-.1.1-.2.3.2.3h.3l.5.2h.4l.3.1h.5l1.5.3q1.5 0 3.2.4l1.6.3 1.5.1 3.4.2 1.6.1h3l1.6-.2h3l1.8-.1 1.4-.1h3.1l4.6-.2.7-.1 5.8-.5v.2l-.1.2-.4.7-.4.5-.4.6-1 1.1-.4.5-.4.4-.3.4-.4.4-.4.3-.4.3a9 9 0 0 1-3 1.3l-.6.2-1.7.3q-.7 0-1.6.4l-.4.1-1.3.5-.8.4-.8.2-.9.3-.4.1-1.2.3-.8.2-.8.1h-.8l-.8.1h-3.6l-.8-.1-.8-.1-.8-.2h-.4l-.3-.1-.9-.2-1.3-.5-.6-.3-.8-.3-.9-.4-1.1-.6-1-.5-.5-.3-.5-.3-3-2.1-1-.8zm13-.9h-1.5l-.8-.1h-.4l-.4-.1-.8-.1h2l.8.1h1.5l1.6.2h1.6l.8.1h.7l-.5.1h-1.4z" fill="#fff"/><path d="M289.3 274.4v1.2l.2.6.7 3 .7 1.2.9 1a5 5 0 0 0 3.3 1.7h.5l-.3.5q-1 1-1.8 2.2l-.4.6-.2.8v.6l.4.8.5.6.5.5.7 1.5.3.7.5 1.4.2.6.4.4h.5l.3-.4.4.8.1.5v3l.2.2v.2l.2.2.3.2h.3l.2-.1.2-.2.4-.6.3-1 .2-.5.1-.5.1-.6.1-1.2v-1l-.1-2.2-.1-1.2v-.5l-.1-.4-.3-.3q-.5-.2-.8 0l-.8 1.1-.8 1.6-.2.5-.1.3v-.1l-.7-1.3v-2.2l.2-1.6.8-1.6.4-.6 1.2-1.3.2-.4.3-.4.3-.5.2-.4.7-1.8.3-.8.3-.8.3 1.3.4 1.9.6 2.9.2 1.4.2.8v.7l.1.6v2.9l-.1.6-.2 1.3-.9 4.3-.6 2.3-.3 1-.1.6-.1.6-.2 1-.2 1.3-.3 2q0 .8-.3 1.4v.1h-.1l-.1-.3-1-3q0-.3-.2-.4h-.4v.1l-.2.1v.2l-.2.4-.4 1-.4 1-.4 1-.3 1-.3 1v.3l-.1.4v.4l-.1.7v.5l.1 2.7.2.5v.4l.2.4.1.5.2.7.2.5.5 1 .2.6.2.5.3.9.2 1q0 .9.4 1.6a6 6 0 0 0 1.6 2.3l1 .9.8.5.9.5.4.2.5.3.3.1.3.2 1 .3h.5l.2-.1.1-.1q.3-.3.2-.6v-.7l-.2-.7-.2-1.6-.5-3.2v-1 .1l-.3-3.5v-2.6l.3-3.4.2-1 .1-.4.1-.5.1-.3.1 1.7.2 2.5.1 1.2.1 1.2v2.2l.3 4.5v.4l.1.8v.3l.2.8q0 1.1.4 2.3v.4l.2.6.1.6.2.4q0 .8.4 1.4l.5 1.3a7 7 0 0 0 1.8 2.3l.5.3.6.2h.3l1.5-.2 2.3-.6 1-.2 1-.4 1-.8.4-1 .3-1.6v-.8l-.1-.2-.1-.6-.3-1.4 1.8 1.6 1.1.5h1.2q.4 0 .7-.4l.4-.5.6-.8a17 17 0 0 0 1.6-4l.5-2.1.5-2.2.3-2.1.5-1.6 1-3v-1l-.5-1.4-.5-1-.4-.7.1-.2.2-.2.1-.5v-.3l.1-.5.1-.7.5-2.2.3-2.3v-1l-.2-.8-.3-1-.3-1.1-.2-.6-.2-.6-.1-.2-.1-.2-.3-.5-1.9-2.7-.8-.8-.8-.7-1.8-1.1-.9-.4-1-.5-1-.4-.8-.4-.8-.4-.8-.4-.9-.5-.8-.4-.9-.4q-.5 0-.8-.3l-1.8-.8-1-.5-.7-.4-.7-.4-.9-.5-.8-.6-.4-.2-.4-.4-.8-.6-.3-.3-.3-.3-2.3-2.5-.2-.4-.4-.9-.2-.4-.2-.6-.2-.7-.2-.8-.7-3.7v-1.7l.2-.6.3-.4.6-.4.2-.1.2-.3q-.1-.3-.4-.1l-.5.2q-.5.3-.7.8l-.4 1v2.9l.5 2.2.2 1 .3 1.1.2.5.2.5.5 1q.5 1 1.2 1.8l1.6 1.5.3.3.6.5 1 .7.2.2.6.4.3.2.7.4 1 .6 1 .5 2 .8 1 .5 1.8.8.8.4 1.5.8 1.5.6 1.6.7.8.4.7.5 1.7 1.1.1.2.2.2.5.5 2 3.3.3.6.2.6.2.6.4 1.3v.4l.1.8v1.9l-.3 1.1-.2 1.2-.2 1.2-.1.5v.7h-.1v.2h-.1l-1-1.3-.7-1a133 133 0 0 0-9.2-9.7l-2.5-2.3-.4-.4-.4-.4-.5-.4-.5-.3-.6-.3h-.3l-.3.1v.2l-.1.2v.2l.1.3.3.6.3.4 2 2.7 2.8 3.4 1.5 1.8.8.9.5.5.4.3 1 1 .7.7.7.6.6.5.2.2.2.2 1 .7.5.3 2 1 .7.2 1.1 1.9.2.5.1 1.2-.2.9-.7 1.8-.5 1-.3 1.2v1l-.2 1.1-.6 2.3-.5 2.6-.8 2-1.2 2-.4.4h-.2l-.3.1h-.2l-.6-.2-1-.7-1.5-1.5-.5-.8-.6-1.5-.4-1-.4-1-.4-1.2-.3-1-.3-.9-1.2-4.5-1.3-4.2-1.6-4.2-.8-2.3-.2-.2h-.3l-.2.3v.3l.5 2.2 1 4.3.4 1.1 1.2 3.2q0 .6.3 1.1l.4 1 .6 2.1.8 2.2.9 2 .5 1.5.6 1.5.4 1.2.3 1.7v2.4l-.4.7-.3.5-.5.2-.2.2h-.3l-1.1.2q-.6 0-1 .3l-2 .5h-1 .1-.2l-.5-.2h-.1a6 6 0 0 1-1.4-1.8l-.6-1.5-.4-1.3-.1-.5-.4-1.9-.3-1.4-.2-1.4v-.5l-.1-.8-.2-3.2-.1-1.8v-.7l-.1-.8-.1-1.4-.1-1.1-.1-1-.2-2-.2-2.2q0-.4-.3-.5h-.2l-.2.1-.1.2-.1.3-.1.3-.2.7-.3 1-.2.7-.1.9-.2 2.4v3.6l.1 2.1v1l.1.8v.5l.3 2.2.5 3.2v.2h-.4l-.5-.2-.4-.3-.4-.2-.9-.5-2.5-2-.8-1-.3-.7-.4-1.4-.2-1.2-.3-.9-.2-.5-.5-1-.3-1-.2-.4v-.3l-.3-.8v-.3l-.2-.5a11 11 0 0 1-.2-3v.1l.1-1v-.3l.1-.4.2-.9.3-.9.1-.4.2-.5.4-1 .4-1 .1.5.3 1 .3.8.2.5.2.1v.1l.2.1h.3l.4-.1.2-.3.2-.6.2-.8.3-1.6.2-1.1.2-1.2.5-2.1.6-2.3 1.2-6.5v-.5l.1-.8v-3.2l-.2-.5v-.8l-.8-3.3-1-4.2-.2-.6q-.1-.3-.5-.3l-.2.2-.3.5-.2.5q0 .6-.3 1l-.2.6-.2.6-.3.5-.1.2-.2.3-.2.4-.2.3-1.2 1.4-.8 1-.6 1.1-.2.7-.3 1.2v2.9l-1-1.9-.6-.7-.2-.3v-1.2l.3-.4.5-.6.4-.5.4-.5.9-1q.5-.4.2-1v-.3h-.5l-.5-.1-1-.1-1-.3-1.3-1a8 8 0 0 1-1.7-3.3l-.1-.7-.2-.7v-2.5l.4-2.3.3-.5.3-.5.2-.1.1-.2.3-.3.3-.4.6-.6 1.1-1.3.5-.7.6-1.5v-.9q0-.4-.3-.4-.4 0-.4.4v.7l-.1.2v.1l-.4.8-.2.4-.3.3q0 .2-.2.3l-.7.8-.8.8-.4.3q0 .3-.3.4l-.3.5-.5.7-.5 1.2-.3 1.5zm7 18v.1l.4.6-.1.2-.2-.5zm2.3 2.8-.1-.6-.5-.8-.4-.7.6-1.3 1-1.8.2 2.5.1 2.3v.7l-.1.3v.2l-.2.5-.1.6-.4 1-.4-.7v-2.2m13.4-3-.3-.5.6.5.8.6.8.8 3.3 3.1 1.6 1.6 2.6 2.6 2.8 3.3 1.3 1.6.7.8.2.3-1.4-.8q-.4 0-.7-.4l-1-.7-1-1q-.3 0-.5-.4l-.7-.6-.4-.4-.7-.7-.4-.4-.5-.6-.8-.8-.7-1q-.8-.7-1.5-1.7zm1 17.5-.2-.6-.2-.6.1.2.5 1.3.6 2 .1.4-.5-1.4z" fill="#fff"/><path d="m273 266 .2.2.3.2h.7l1.3-.3-.1 1v1.3l.5 1.6q0 .3.3.5l.6.6q.7.5 1.6.7l1.4.3 2.7-.1 1.2-.3a16 16 0 0 0 3.5-1.2l.8-.3q.3-.1.3-.5-.1-.3-.5-.3l-1.3.5-1.4.6-1.6.5-.5.1-1 .2h-2.9l-1.1-.4-.7-.4-.5-.5-.3-.6-.2-1v-3l-.4-.2-.3.2-.8.2h-1l.3-.2 1.6-1.4 3.8-2.8 1.3-.7 1.2-.6 3.3-2.1.6-.4.3-.2.2-.2.9-1 .7-1 1.1-2 .4-.6.3-.3v.3l-.1.4-.3.6-.2.4-.3.9q-.1.9.2 1.8 0 .5.4.8l.3.3.4.5.1.2.4 1.3.6 1.7a5 5 0 0 0 1.5 2l.6.4 1.2.6.2.1q.4 0 .2-.3l-.6-.4-1.2-1-.9-1.1-.3-.6-.4-1.3-.2-.9v-.4l-.3-.6-.4-.8-.4-.4-.3-.5V255l.2-.7.3-.6.1-.3.3-.8v-1.1l-.2-.3-.3-.3h-.9q-.3.1-.6.5-.5.3-.6.7l-.4.6-.5 1.1-1.1 1.7-.7.8-.2.1-.2.2-.6.5-1 .7-1.2.7-2.2 1.3a43 43 0 0 0-5.4 3.9l-1 .8-.8 1z" fill="#fff"/><path d="m265.6 308.5.2.7.1.3.1.3v.7q0 .8-.2 1.5v1.5l.2.3.3.4q.3 0 .5.3h.8l.8.1 1.5-.1 1.2-.4.6-.2.7-.3.5-.2q.3 0 .5-.3l1.2-.4.7-.3.6-.4.4-.2.6-.4.5-.4 1.7-1.5.6-.7.4-.4 2.3-3.2.3-.5.1-.2.3-.4.5-1 .6-1.2 1.6-3.6 1-2.2 1-2.4v-.4l.2-.5.2-.9.2-.5.5.8.4.7.4.7.4.7.3.6.5 1.3.5 1.3.5 1.4.5 1.3v.3l.1.4.1.5v.6l-.2 4.3-.2 1.1-.1 1.1-.2 1-.4 2v.6l.3.2h.2l.2-.1h.3l.2.1.1.1.2.3.3.7.2.6v4.5l-.1.5-.2.5-.2.6-.4 1.1q0 .6-.3 1.1l-.8 2.4q0 .6-.3 1.1l-.6 2.7-.3 2-.5 2.2q0 .6-.3 1.1l-.2 1.1-.1.6v.5l-.2 1.1v3.8l.1 1.2 1 5.4q0 .3.3.5l.2.3q.3.4.8.7h.4l-.1-.5h-.1l-.2-.1-.7-1-.1-.5-.4-1.8-.4-2.6-.2-1.3v-.8l-.1-.6v-.8l.2-3.2.1-.4v-.4l.2-.7.2-.8.4-1.9.2-1 .2-.9.8-3.7.5-1.9.7-1.9.5-1.7.3-.9.2-.6v-.5l.3-2.7V314l-.1-.3-.4-1.2-.7-.9-.3-.2h-.6l.5-1.9.2-1.3.1-.6.1-.8.2-1.1v-5l-.3-1.2-.4-1.3-.5-1-1-2.5a17 17 0 0 0-1.8-3.3l-.7-1v-.3l.7-3.8v-2.7l-.4-.6-.3-.2h-.4q-.4 0-.7.5v.2l-.3 1.1v2.9l.2 1 .3 1.5v.1l-.4 1.6-.2.6-.1.7-.3.6-.2.7-3.5 8-.6 1-.4.8-.2.3-.3.5-.2.3-.3.4-.6.7a32 32 0 0 1-3.4 3.8l-.8.7-.6.4-.8.4-.4.3-.5.2-.4.2-.5.3-1 .4h.1l-2 .8-1.6.3-.8-.1-.7-.3-.4-.2h-.1v-.2h-.2v-.5q0-.7.2-1.3l.1-1v-1.4l-.3-.6v-.6l.4-.8.3-.6.2-.3.2-.2.4-.5.2-.3.3-.2.3-.5.5-.5 2-2.2q.4-.6.9-1l2-2 1-1 .5-.4.6-.5 1-.8.5-.4.2-.2.4-.3.4-.4.4-.4.5-.5.2-.3.3-.4v-.4q0-.2-.4-.1l-.4.2-.4.3-1.1.5-.9.3h-.1l1.3-1.6 1.8-2 1.6-1.9.7-1 1-1 1-1.3q.8-.7 1.3-1.6l.7-1.3.2-.5v-.3l.3-.5.1-.5.1-.7v-.8l.3-1.4.3-1.5.2-.6.2-.6.6-1.5.6-1.8v-1l-.1-.7-.3-.5h-.6q-.3 0-.5.2l-.3.1-.2.1v.4h1.1v.3a5 5 0 0 1-.3 2l-.3.9-.7 2-.5 2.3-.2 1.1-.1.5v.8q0 .7-.4 1.3-.2.8-.6 1.4l-.3.5-.4.5-.4.5-.8 1-1.5 1.9-1 1-.2.5-.4.5-1 1-.7.9-1.9 2.1-.2.3-.3.5v.3q0 .3.2.3h.8l1.3-.4-.3.4-.3.2-.4.3-1 .8-.5.4-.4.4-.6.4v.1l-.4.4-1 .9-1.7 1.8-.4.4-.4.5-.8 1-1.4 1.3q0 .3-.4.4l-.4.5-.4.4-.1.2-.5.5-.4.6-.2.4-.6 1.3zm22.3-22.8v-1l.2-1 .1-.1v-.1h.1v.1l.1.1v.2l.1.7v1.9l-.1.6-.1.5-.2 1z" fill="#fff"/><path d="M287.3 359.3q.3 0 .3-.3v-.1l.5-2.6.1-.5.4-1.2.3-1 .3-.8.2-.4.2-.4.8-1.1.3-.2.2-.1h.1l.3.3v.2l.2.5v.7l-.6 2-.4 1.9-.5 3.8v2.2a28 28 0 0 0 .5 6l.2 1.1.6 2.2a13 13 0 0 0 1.4 3l.4.6.4.5.3.4.3.4.7.7.8.8 1 .8h-.1l.6.8.4 1 .3.7q.5 1.6 1.2 2.7.4.8 1.2 1.4l1 1a10 10 0 0 0 4.1 2.4l.6.2 1.3.2h3l4.3-.3q.4 0 .8-.3l.3-.3.2-.3.2-.1.8-.6.4-.2.9-.4.7-.5v-.7l-.2-.4-.7-.6-1.5-1.2-1.7-1.2-1.5-1-1.2-1a30 30 0 0 1-3.8-4l-1.3-1.5-1.3-1.6-1.3-1.5-1-1.3-.5-.7-.5-.8-1-1.7-.6-1-.6-1-.8-1.6.6 1q0 .3.3.5l.2.4.3.4.3.4 1.2 1.6 1.1 1.7 1.3 1.5.7.9.7.8a44 44 0 0 0 4.2 4.4l.7.7.7.8a36 36 0 0 0 6 5.4l1.6 1.2 1.5 1.2 3.2 2.7 3.4 2.2h1l.2-.4.1-.6-.1-1.9-.3-4.4.2-5.8v-.5l.2-2q.2-1.4.1-2.7l-.2-1.2-.8-1.8-.3-.4-.4-.5-.6-.8-.2-.3-.4-.3-.6-.8-1-1.1-.1-.2-.2-.2-.2-.5-.2-.4-.4-.8-1-2.3-.5-2-.2-.8-.1-.5-.2-.5-.4-1-.2-.4-.3-.5-.2-.3-.3-.6-.5-.8-.4-.4q0-.3-.4-.4l-.6-.8q-.3 0-.4-.3l-.3-.3-2.4-2-1.7-1.2-1.8-1.1-.9-.5-.4-.2-.4-.2-1-.4-.4-.1-.6-.2-.4-.1-1.5-.3h-.4l-.3-.1h-.8l-.7-.1H301l-.6-.1h-.9l.2-.8.3-.9v-.1l.3-.5.8-1.8.4-1 .1-.4.2-.5v-.4l.2-.7.1-.9.2-2v-.5l.1-.6v-.9l-.1-.7v-.6l-.3-.9-.2-.5-.1-.5-.4-.9-.5-.7h-.5l-.4.1q-.4.4-.4.9v1.9l.1 2.2.1 2 .2 1.9v.1l-.1 3a26 26 0 0 1-2.5 4.3l-.4.7-.5.6-1.3 1.4-1 .6-1 .3h-1.3l-.3-.1h-.3v.3l.3.2 1 .3q1.2.1 2.4-.3.5-.1 1-.6l.7-.5.8-.7 1.4-1.8v.1l.2.2.3.2h.6l2 .2h1.1l.5.1h.6l1 .2 1 .2.5.1 1.9.6.6.3.5.2.4.2.6.3.8.5 1 .6 1.7 1.3 3 2.5.6.5.2.3.3.3.4.6.2.2.2.4.3.5.3.5.5 1 .3.8.2.4 1 3.6q0 .4.4 1l.2.4.2.3v.2q.7 1.6 1.7 2.7l1.2 1.4 1 1.2.7 1 .7 1.8.2.6v1.8l-.5 4-.2 4v2.6q0 1.4.2 2.6v.1l.2 1.1.1 1.6h-.2.1-.1l-.4-.2-1.4-1-2.2-1.7-1.6-1.3-1.5-1.2-1.6-1.1-1.4-1.1-1.1-1-.8-.6-.6-.4-.5-.5-.7-.6-.8-.8-.7-.8-1.3-1.4-1.4-1.4-.6-.6-.7-.8-1.6-1.7-.8-1-.7-.8-1.2-1.5-1-1.4-.6-.7-.5-.7-.3-.4-.3-.4-.5-.8-.5-.7-.4-.8-.8-1.4-.7-1.4-.4-.8-.3-.8-.4-.9-.3-.9-.7-1.8h-.5l-.1.2v.6q0 .5.3 1 0 .6.3 1l1.6 4 .4.9 1.1 2.3.9 1.3.6 1 1 1.7.5.9.3.4.3.4.6.8 2 2.4 1.2 1.6 1.3 1.5 1.3 1.5.7.7.8.8q2.5 2.2 5.2 4l2 1.7-.2.1-1.5.7-1.2.8-.3.3v.1h-.1l-.5.3-.6.1-2.6.2h-4q-.5 0-.8-.2h-.6a9 9 0 0 1-3-1.6l-.9-.7-.5-.6-.5-.4-1-1.4-.6-1-.3-.6-.2-.6-.4-1.4-.8-1.1-.8-.9-1-.8q0-.2-.4-.5l-.5-.6-.3-.4-.3-.3-.9-1.3a14 14 0 0 1-1.7-4.8l-.2-1q0-.7-.2-1.3l-.1-1.2a26 26 0 0 1-.2-4.7l.2-2.2.8-4.8.3-.9q.2-.7.1-1.4l-.3-1-.3-.4-.4-.2h-.8l-.8.8-1 1.4-.1.5-.5 1.3-.9 3.8-.1 1.3q0 .2.3.3m13.1-26.5v-3.2l.1.2.2.7.1.3v.3l.3 1.3v2.8l-.4 2.2-.1.8V336l-.1-1.3z" fill="#fff"/><path d="M243.5 323.2v.5l.2.6q0 .4.3.7l.4.4.4.4.2.1.2.2h.3l-.6 1.2-.3.6-.4 1.1-.1.7-.2 2q0 .6.3 1.3t.7 1.2q0 .3.3.4l.2.3.2.2.4.4 1 1 .5.5 1 .7.3.1 1 .2.7.1h2.5l.6-.1 1.1-.4.6-.3.7-.4.5-.2 1.7-.9 4.9-1.7h.8c1-.2 2 0 3.1-.2l-2.5 1.3-1 .5-.4.3h-.2q0 .2-.3.3l-.8.6-.3.2-.5.4h-.1l-.3.3-.4.4-.3.3-.3.3-1 1.2-.1.4-.3.6-.4 1.7v.7l.4 1.6 1.5 4.4.5 1.6.6 1.7.3.4.5.3h.2l.1.1h.4l.6.1h.2l.7-.3.4-.2.3-.3.3-.2.5-.6.4-.5.2-.4.9-1.4.4-.8.5-.7-.4.8-1.2 3-1 3.8-.3 1-.3 3 .4 1.8.6.9.7.4 1 .3 1 .2q.7 0 1.6.4l3.1.4h.4l.4-.1.7-.3 1.3-1 .8-.6.8-.7.4-.3.4-.4.8-.6 1-.5.8-.6.5-.4.4-.3.4-.3.4-.4.4-.3.3-.4.8-.7 3.6-3.4.6-.5.3-.2v.4l-.5 1.3-.5 1.7-.5 1.8-1 3.7-1.1 3.7-.5 2-.4 2-.5 4v1.4l-.4 2.5-.4.9-.6.8-.5 1-1.7 3.5-.2.3-1.3 1.3-1.4 1.5-1.3 1.6-.6.7-.7.8-1.3 1.7-.6.8-.4.6-.2.3-.3.6-.2.4-.2.4-.3.6-.2.4-.2.5-.2.6-.1.4-.2.6-.1.2-.3 1-.1.8-.1.6v.2l-.2 1v4l.1.4v.4l.2.3v.6l.3.6.1.5q0 .5.3.8l.7 1.7.5 1 .4.6 1.1 2.4.3.8.3.8.3.9.2.6.9 1.5.8 1 1.3.9.5.2.6.2.5.1 3 1.3.2.1h.4l.2-.1v-.4l-.2-1-.4-1.4-.2-1.5-.2-1.6-.2-1.8-.2-.9-.2-1.8v-5.4l.1-2.5.2-1.5.1-3.3.1-1.3.1-1.3.2-2.7.1-2.7.1-.9.1-.7.2-1.3.1-.9.2-.6.3-1.5.2-.9v-.7l.3-1.6.3-.8-.1 1-.2 1-.5 4.2-.2 2-.2 4.1v5.5l-.2 2-.1 2.1q0 2.2-.4 4.3v2l-.1 2.1v2.3l.1.9v.6l.1.4.2 1 .1.6.1.5v.2l.3.8.1.6.3 1 1.1 2.4 1.6 2.8.7 1.3.2.3.2.1.1.2.2.1.1.1h.3q.3 0 .3-.2l-.1-.4-.2-.2-.1-.1-.2-.6-.1-.7v-1.1.1l.2-.2.4-.6.7-.7 1.5-.7 1.1-.5 1.2-.5a7 7 0 0 0 3.3-4l.2-.6.6-2 .7-1.8.8-1.9 1-2.9.2-1 .2-1 .3-1.4v-1.4l-.5-1.8-.2-1-.4-.9-.2-.6v-.3l-.3-.5v-.2l-.3-.4-.2-.5-.3-.6-.4-.7-.4-.6-1.5-2.4-.8-1.2q0-.3-.3-.5l-.5-.7-.8-.9-.9-1-.2-.2-.4-.5-.3-.7-.2-.7v-2l-.4-2.9-.2-.4-.5-1-.4-.6-.4-.4-1.5-1.7-1.6-2.1-.3-.6v-1.8l.1-.6.2-1.1 1.5-7.7.2-1.4.1-1.4.2-1.4v-.3l.9-2.7 1-2.8q0-.7.4-1.5l.2-.9-.1-.4-.5-.1-.6.3-1 .6-.4.4-.8.7-.9 1-.9.8-1 1-.8.9-.6.5-.4.4-.7.5-.3.3-.4.2-1.3 1-1.3.8-.4.3-.3.3-.7.5-.7.6-.6.4-.4.2-.3.3-.5.2-.4.1h-.1l-1.6-.1-2.1-.5-1.1-.2-1.2-.2h.1l-1.2-.3-.1-.1-.2-.2v-.1l-.3-1-.1-1v-.6l.1-1.6.9-4 1.6-4.2.5-1 .6-1 .7-1.2.7-1.1.8-1 2.4-3 .8-1 .7-.8.6-.7.2-.3.4-.3 1.3-1.4.7-.7.8-.8.8-1 .7-.8 1.4-1.7.6-.8.7-1 .7-.8.6-1q1-1.2 1.8-2.7l.5-.5.7-.7.6-.8.4-.4.2-.3.5-.8.5-.9.4-.8.4-.9.4-1 .3-.9.3-1 .4-1.8v-2.2l-.2-.2-.2-.2-.2-.1h-.3l-.1.2-.1.2-.1.4-.1 1v.8l-.1.5v.4l-.2 1-.8 1.8-1 2-1.4 2.2-2.3 3.7q-.8.8-1.3 1.7l-1.4 1.9-1 1.5-2.6 3.2-.7.8-1.4 1.5-1.5 1.6-1.3 1.4-.8 1-.6.7-.4.6-.2.2-.8 1.1-.5.7q0 .3-.3.5l-.6.7-.4.4-.3.4-.8 1-.4.5-.5.7-.2.3-.3.5-1.4 2.2-.2.4-.7.9-.8.5-.5.2H262l-.2-.2-.1-.2-.1-.1-.3-.7-.4-1.3-.3-1-.6-1.7-.5-1.7-.7-2v-1.1l.2-1.3.5-1.2 1-1q0-.3.3-.5l.1-.1.3-.2.3-.3.8-.6.2-.2q.3 0 .4-.3l.6-.4q.3 0 .4-.2l.4-.2 1.4-.7 1.4-.7 1.6-.7 2.1-1.1.4-.2.4-.3a10 10 0 0 0 3.1-3l1-1.3 2-2.3 1.4-1 1.3-1v-.2l.2-.1 1-.7q.4-.3.5-.8v-1.6l-.2-.7v-3l.2-.6.1-.8.3-1.2 1-5v-1l-.1-.2v-.1l-.2-.2h-.4l-.4.1-.3.3-.3.4-.3.7-.3 1v.8l-.2 2.2-.2 1.9v6.3l-.3.8-.2.5-.6.3-1 .7-.5.4-.6.5-1.6 1.7-.5.6-.6.8-.2.3-.5.8-1.2 1.4v.1l-.7.5-1.3.8-.7.4-.4.3-1.3.6-.4.1-.6.2h-.6l-.5.1H264l-2.2.4-.8.2-4.4 1.7-1.5.7-2.1.9-1.4.1-2.9-.4-.5-.4-1-1-1.1-1-.4-.5-.2-.3-.6-.8-.3-.8v-1.9l.2-.5.5-1.6.2-.4.7-1.2h.3l.4-.2q.3 0 .4-.3l.8-.7.3-.3.9-.7.4-.3.5-.4.7-.5.2-.2.4-.2.5-.3.6-.3 2.5-1.3.8-.4.7-.3.6-.3.8-.3.9-.3.6-.2.5-.2.4-.2.4-.1.7-.3 1.8-1 .4-.4.3-.2.3-.2.4-.4.2-.2.1-.2.1-.2v-.6l-.6-.2h-1.8l-1 .3-1 .2-.4.1-.5.2-1.2.3-.6.3-.5.2-.6.4-.3.2-.7.4-.8.5-.9.6-.8.6-1 .6-.8.6-.3.3-.5.4-.9.7-.7.7-.7.5-1 1-.1.2-.5.5-.3.2-.4.5-.5.7-.2-.2-.4-.3-.6-.6v-.4l-.2-.7v-1.9l.2-.5.2-1.2.3-2v.1l.1-.7.2-.8.2-.7v-.7l.2-.4.1-.4.2-.5.2-.4.4-.7.5-.9q.3-.5.2-1.2v-.7l.3-1.4.6-1.2.4-.7.2-.2.2-.2.4-.4 1.2-1v-.1l.3-.3.5-.8.1-.4.7-.4 1-.6 2.8-1.3 2-.8a19 19 0 0 1 4.2-1h1.3l1.5-.2h1.3l1-.2 2-.6.2-.2.3-.2.5-.6.4-.5.3-1.1q0-.4-.3-.7h-.9l-.3.2-2.8 1.4-.7.3-1.6.6h-.5l-.5.2-3 .6-3.1.8-1.5.4-.8.3-.9.2-1.9.9-.6.6-.7 1-.2.4v.2l-.5.1h-.2q-.2.1-.2.4t.3.3l.3-.1v.1l-.1.1-.2.2-1.1 1-.6.6-.2.2-.2.3-.3.4-.3.5-.5 1-.2.7-.1 1.8-.2.8v.2l-.6.9-.7 1.4-.2.4-.2.6-.1.5-.8 4-.1 1-.2 1.1zm3.2 2.6.6-.7.2-.2.5-.5.2-.3.3-.2.7-.7 1-.9.9-.7 1-.7.8-.7 1.3-.9 1.3-.8 1.2-.8.6-.4 1.8-.9.6-.2.6-.2 1.3-.3.4-.1 2-.4h.4l-.1.2-.3.3-1.1.8-.6.4-.7.4-.5.2-.5.3-.7.3h-.2l-.2.1-.8.3-.8.3-.5.2h-.4l-1 .5-.2.2-.6.3-.7.4-1.6.8-1.6 1-.7.4-.7.5-1.5 1.1-1.4 1.3zm8.8-25.3-1.8.7-.5.3-.4.2-.8.5.6-.7.5-.3 2.3-.8.6-.2zm9.4-2.1.3-.2.5-.2 1.2-.5.6-.2 2-1.1.7-.4-.1.2-.4.7-.8.6-.5.3-1 .3zm5 104.2v-1.9l.1-.8.3-1.3.1-.4.2-.8v.1l.3-1.2v-.1l.3-.4.2-.6.5-1q0-.4.3-.7l.4-.6 2.6-3.5 3.5-4.2.8-.8.7-.7.5-.8a13 13 0 0 0 1.4-2.9l.4-.9.3-.5.4-.5.4-.8.4-1.8.2.4.5.8.3.4.3.4.3.3.4.4.4.5.8.8.4.5.6.7.5 1 .4 1.8v.6l.1 1.4.1 1.5.5 1.2.7 1q.3.1.5.4l.5.5.5.6q0 .3.3.4l.3.4.4.7.5.7.9 1.4.7 1.3.4.7.5.8.5 1.1.3.6.3.7.2.7.1.4.1.4.3.8.3 1.2v.8l.1.8v.8l-.4 1.5-.2 1-.3.7-.6 1.8-.7 1.7-.7 1.7-.5 1.7-.3 1-.3.8-.2.6-.3.4-.1.2-.6.9-1.2 1-.7.4-1.8.8-.6.2-.4.2-.6.3-.6.4-.7 1-.3.4-.2 1.3-.4-.7q-.8-1.2-1.3-2.4l-.8-1.8-.4-1.2v-.2l-.2-.4-.1-.6-.2-1-.2-1v-.9l-.2-1v-1.3l-.1-.6V409l.1-1 .1-1 .2-2 .3-3.7v-2l.1-2v-1.8l.1-2 .2-3.8.4-3.7.2-2 .3-1.8.2-2.8v-.2l-.1-.2-.2-.2h-.4l-.1.2-.2.3-.2.6-.2.5-.3 1.8q0 1-.3 2l-.2 1-.2 1-.2 1v.5l-.1.5a40 40 0 0 0-.6 6.2l-.1 2.3-.1 1.8-.1 2.1v.6l-.1 1-.1 1.1a30 30 0 0 0 0 6l-.1 2v1l.1 1 .1 1 .2 1 .3 1.8.3 2.3.3 1 .3 1v.5l-1.1-.7-1-.4-.9-.5-1.5-.5-1-.7-.5-.5-.8-1.1-.4-.8-.2-.6-.5-1.4-.2-.6-1-2.4-.6-.9-.6-1.3-.9-2.1v-.4l-.3-.7q0-.6-.2-1v-.5zm12.3-91.1-.3 1.4-.3.2.5-3.9.2-.3.2-.3.1-.1v.9l-.1.8z" fill="#fff"/><path d="M239.8 292.5h.3l1-.6.4-.3.4-.4.6-.5-.1.3-.1.1v.2h-.1v.1l-.2.4-.1.3-.2.5-.2.4-.1.4-.2.5-.2.8-.1.7v.1l-.1.4-.1.5v2.1l.2.9q0 .4.3.8l.1.5.7 1.3.4.4.5.4.5.3 1 .3.4.2 1.2.2.8.2h.7l1-.1h.3l.9-.4.2-.1.7-.6.2-.3v-.3h-.3v.2l-.6.5-.5.2-.4.2h-1.4l-1.9-.2-.6-.1-.5-.2-1-.4-.5-.4-.6-.6-.2-.3-.3-.7-.1-.4-.2-.5-.3-1.2v-2.1l.2-.6v-.6l.2-.4q0-.6.3-1l.2-.7.2-.6.5-1v-.3h.1l.8-1.5.6-.8.3-.6v-.3q-.2-.2-.4-.1-.3 0-.4.4l-.3.3-.4.5-.4.5-.4.4-.4.4-.5.5-.5.4-1.2 1-.1.2z" fill="#fff"/><path d="m192 287.5.3.3.4.3.4.2.7.4 1.4.8 1.4.9.7.4.9.5 2 1.6 1.1 1.6 1 1.3.5.6 1.4 1.3 1.2.8.3.2.4.2 3 1.4 3.1 1.4 2 1.1-1.2-.3-1.4-.4-.4-.1-4.2-1.7-4.9-2.7-.5-.3-.5-.5-.5-.4-1.6-1.6-.2-.3a11 11 0 0 0-2.3-2q-.3 0-.5-.3l-1.3-.7-.4-.2h-.1l-.2-.1h-.4v.5l.4.7.4.8.9 1.6 1.5 2.8.5.9.7 1.4.8 1.6 2 3 1.4 1.4.4.3.3.2.4.3.3.2.8.4.3.2.4.2.4.2.5.2.8.3.8.3 1.6.4.6.1.6.1.8.1h2.6l.3-.1h.4l.8-.2a18 18 0 0 0 6-2.2l-.8.5-1.3 1-2.6 2.3-1.3 1-1.7 1.4-1.8 1.3-1.8 1.2-1.8 1.3q-.3.1 0 .4 0 .3.4 0l1-.6 2.6-1.8q1.5-1 2.6-2l2.6-2 2.5-2.2 4.1-3.1.7-.5.3-.2.3-.3.7-.5.4-.4.4-.5.1-.2q0-.3-.3-.4h-.2l-.3.2q-.3 0-.4.3l-1.8 1.3-1 .6-1 .7-2.8 1.5-1 .4-1.2.4-1.3.3-.5.2h-.7l-.7.2h-.8l-1.4.1-1.2-.1h-.3l-.4-.2-.9-.1-.3-.1-.4-.2-.7-.2-.6-.2-.5-.2-.7-.3-.8-.4-.3-.2-.4-.2-.4-.3-.3-.2-1-.7-1.5-1.7-1.3-2.3-1.5-3-.4-.8-.3-.6-.9-1.5-1-1.9-.5-1h.1l1.5 1 .4.3.2.2.2.2 1.2 1.2 1.7 1.8.3.3.4.3.3.2.4.2.6.4 1.5.8a54 54 0 0 0 7.6 3.5l2.7.6 2.7.6h.2l4.2.3 1.6-.3.9-.3.7-.4q.4 0 .5-.5l-.2-.3h-.6l-.3.1-3.8.7h-.6l-2.6-.4-1.2-.5q-.4 0-.8-.3l-1.5-.6-3-1.4-1.4-.6-1.1-.5-.6-.3q-.3 0-.5-.3l-.6-.3q-.3 0-.6-.4l-2-1.6-1-1.3-.4-.6-.6-.7-.6-.8-.3-.3-1.3-1.2-1.2-.8-.7-.4-2-1.3-.2-.1-.2-.1-.3-.2-1.1-1h.8l3.2-.6 1.6-.2a25 25 0 0 0 5.4-1q.8 0 1.4-.3l1-.2 2-.2 1.2.3a8 8 0 0 1 2.7 1.6l1.5 1.4 1.7 2 .4.5.7.8q.5.7 1.1 1.2l1.2 1.2.9 1 .7.8v-.1l.7 1 .8 1.3.4.7.4.7.6.7.2.3.5.4 1.3.8 1.4.3h.7l.4-.2a19 19 0 0 0 3.3-2.2l1.1-1 2-2 2.7-2.2-2.3 2-.2.2-2.6 2.4-1.3 1.1-1.2 1q-1.3 1-2.4 2.3a21 21 0 0 0-4 6.4l-.3.8-.6 1.6-.2.7-.3.9-.2.9v.3l-.2.6v.3h-.1v.5l-.1.2-.1.9-.1.8v3.6l.3 1.3.6 2.2a8 8 0 0 0 2.5 3.3l.4.4.3.2.7.6.3.2.4.3 1.4 1 .7.4.6.6h.1l.7.6 1.3 1.4.5.7.4.6.2.4.4.2.2-.3v-.4l-.1-.3-.5-2-.9-5.5v-2.6l.7-9.1.3-2.1.9-4 .2-.7.2-.7.3-.7.3-1 1.9-4.5 1.3-3.1 1.6-3.5.4-1 .2-.3.4-.6.6-.8.3-.4-.2-.1-.3.1-.3.4-1.1 1.5-.2.3q0 .4-.3.7l-.8 1.7-.7 1.4-4 9.5-.8 3.3-.9 5-.2 1.6-.2 3.3-.2 3.6a26 26 0 0 0 1 8.9l.2.6-1.2-1.5-.6-.6-.3-.3-.3-.2-1.3-1-1.5-1.1-.4-.3-.3-.2-.7-.6-.5-.5-.9-.8-1.1-1.7-.4-.9-.9-3v-3.7l.1-.6.1-.7v-.1l.3-1.5.2-.6.2-.6.2-.8.7-2 .3-1 .2-.6.3-.6.3-.6.3-.6 2.5-3.7.8-.8 1-.8h-.1l1.2-1 1.3-1.1 1.2-1.1 1.2-1.2 1.7-1.6 2.4-2v-.1l.6-.5 1.3-1.5q.2-.4-.3-.4l-.5.4-.4.2-.7.6-1.3 1-4 3.4-1.5 1.4-1.4 1.1-1.7 1-.8.4h-.3l-.7-.2a5 5 0 0 1-2-1.3l-.2-.3-.2-.3-.7-1-.6-1.3-.6-1.1-.5-.7-.4-.6-2.1-2.3-.7-.6-.5-.6-.5-.7-.4-.5-1.4-1.7-2.4-2.6a10 10 0 0 0-3.1-1.9H208q-1.5 0-2.9.6-.8 0-1.4.3l-2.7.6-1.5.3-1.5.2-1.7.3-1.6.4-1.2.2h-.2l-.4.2h-.6l-.2.2-.1.2z" fill="#fff"/><path d="M146.5 301.2v.5l.2.4.8.8 1 .7 1 .5.6.2.4.1-.6.2-.4.2-.4.3-.3.5-.1.5v.9l.2.7 1.3 2.5q0 .3.2.4l.5 1 .5.8.5.8 1.1 1.8.5.8.7 1.1.7.9 1 .7q.4 0 .7.3l.4.2.6.2.4.1.6.3 1 .2.4.1 1.7.2h.5l2-.2 1-.1h.5l.5-.2a12 12 0 0 0 4.5-2.3l.2-.3v-.6l-1.4-1-.8-.5-.7-.4-.5-.4q-.2 0-.5-.3l-1.3-1.1v-.2l.4-.5 1-1.4.3-.5.1.2.3.4.4.6.2.3.2.3.4 1 .4.8.9 1.7q.4.8 1.2 1.4a14 14 0 0 0 5 3l3 .6h4.3l.4.2.4.3q.3 0 .5.3l.5.2.4.2q.9.5 1.8.7l.4.2.6.1.5.1h.5a25 25 0 0 0 5.2.3l.6-.1.7-.3.7-.4 1.4-1q.3-.2 0-.5h-.4l-2.8 1.5h-4.1l-2.1-.3-.4-.1-.9-.2-.6-.2-.3-.2-.3-.1-.7-.3-.4-.3-.5-.2-.5-.4-.5-.2h-4.4l-.6-.1-.9-.2-.4-.1-.5-.1a16 16 0 0 1-3.9-1.9l-1-.8-.5-.4-.2-.2-.2-.3-.2-.2-.2-.3-.2-.4-.2-.3-.6-1.2-.4-1-.3-.5-.2-.3-.1-.3-.8-1.2v-.1q0-.3-.2-.3 0-.2-.3-.2h-.4l-.3.4-.6.9-.6.7-.7 1q-.2.3 0 .7 0 .3.4.5l.8.7 3.3 2 .7.5-.8.6-.8.5-1.9.8-1 .3-.5.1-.7.1-1.3.1-1.8.1h-1l-.6-.2-.6-.1-.4-.2-.7-.2-.6-.2-1.8-.9-.7-.6-.3-.4-.7-1.2-.4-.7-1.2-1.8-.9-1.6-.6-.9-.5-1-.2-.3-.9-2.2v-.4l.1-.5.2-.3.3-.3.3-.2a5 5 0 0 1 2.3-.2l3.4.8.5.1.6.1h.4l1 .2h7l.9-.1 3.8-.9.2-.1v-.4q0-.2-.2-.2l-.3-.1-1-.1h-1l-2.3-.3h-.9l-1.1-.1h-2.8l-1 .2-1.7.2h-4l-1-.1h-.9l-.5.1-.7-.2-.6-.2-.5-.2-.6-.2-1.5-1-.4-.4-.1-.5v-.8l.3-.5.4-.4.5-.3.7-.3h.4l.2-.1h.1q.8 0 1.4-.2l.7-.2.5-.3.2-.5v-.4l.6-1.3.6-1 .2-.2.8-.6 1.3-.5.8-.3h.4l.4-.2.9-.2h.8l.8-.2h.7l.7-.1h.9l1.6.2 1 .4 1 .4 1.9.7 1.2.8.8.8q.7 1.5 1.7 2.6l.2.3.2.3.3.3.3.3.5.5.6.6 1.3 1.5a4 4 0 0 0 2 1.3h1l.3.2.4.3.9.5.6.3.4.1.4.2.6.2h.4l.5.2 1.4.1h.4l.2-.1v-.1l.2-.1v-.5q0-.4-.3-.7l-.6-.5-.5-.3-.5-.2-.4-.1-1.4-.4H178l-.4-.2-2-2.3-.1-.3-.2-.4-.1-.1-.6-1-.5-1-.4-.9-.3-.8-.4-1-.5-1.8v-.5l.1-.4.1-.1h.3-.1q0-.2.2 0h.3l.4.1.4.1.4.2.4.1.8.3 1.6.8 1 .5 2.3 1.5.8.6.7.5 1.3 1.4.7 1.2.3.8v.4l.3 1 .3 1.2.7 1.2.3.3.6.5 1.4.9.7.4.7.4 1 .8.3.2 1 1 2.2 2 .5.4.3.2.3.2h.3l.2-.3v-.5l-.6-1.2a13 13 0 0 0-1.9-2.6l-.4-.3-.3-.2-1.3-1-.5-.5-.6-.6-.6-.6-.5-.5-.9-1.2-.6-1-.2-.4-.2-.4-.8-2.2v-.1l-.2-.5-.2-.7-.2-1v-.4l-.1-.6-.2-.6-.2-1.7-.3-1.5v-.6l-.2-.8v-1.6l-.1-.6v-3.1l.1-.4.5-1.7h.2l.1.3 1.2 2.7.6 1.2.2.6.3.7.2.7v.4l.2.4.1.7.1.9.3 3.9v1l.5 2 .5 1.3.4.6.5.8.2.3.4.5.2.3.3.4.6.7.5.7 1 1.2.7.7.5.7.2.3.2.2.5 1 .5 1.1.2.7v.2l.2.4.2 1.1.2 1.2q.3 1 .8 1.7l1.3 1v-.1l.4.2h.8q.3 0 .4-.2l.1-.3.2-.5.5-1.5.2-.4.2-.4.2-.3.1-.2.8-1 .9-.6.7-.2h.4l.5.3.1.2.2.3.2.6.3 1.7.2 1.8.2.8v.5l.3.9.6 1h.5l.1-.1.2-.1v-.3h-.3v.1h-.1l-.3-.6-.2-.4-.1-1.2-.1-1.2-.9-4.2-.4-.5-.4-.3-.5-.3h-.4l-.6.1q-1.2.4-2 1.3l-.7 1-.3.4-.3.5-.2.5-.4 1-.3 1v-.1l-.4-.1-.9-.6-.3-.3-.3-.6-.2-.7-.3-1.9v-.4l-.3-.6-.1-.5-1.2-2.5-.1-.2-.2-.3-.6-.7q0-.3-.3-.4l-.3-.5-1.5-1.8-.9-1-.3-.5-.4-.6-1-1.6a8 8 0 0 1-.7-2.6l-.1-.6-.1-.9v-1l-.2-2-.1-1-.2-1-.2-1-.2-.5-.1-.4-.4-1-.4-.9-.8-1.8-.4-1-.3-.5-.4-.6-.3-.1h-.7l-.3.4-.3.6-.3 1.3-.1.6v.4l-.1.6v2.8l.1.5v.9l.1.2v.1l.1 1 .5 2.7.2 1.6.2 1 .2 1 .1.3.2.7.1.3.2.5.3 1q.3.4.4.9 0 .2.3.5a9 9 0 0 0 1.6 2.4 18 18 0 0 0 3.5 3.3l.7.5 1.4 1.7.8 1.4-.5-.4-.7-.6-.7-.7-.7-.6-.6-.8-.4-.4-.3-.3-.8-.5-1.6-1-2.3-1.8-.3-.5-.1-.5-.2-1v-.4l-.2-.7-.1-.4-.3-.9a7 7 0 0 0-1.4-2l-.5-.4-.7-.7-.5-.4-1.6-1.1-.3-.2-.4-.3-.5-.2-.5-.3-2.7-1-.4-.2-.5-.1-.5-.2h-.5l-.7-.1h-.4l-.5.2-.2.3-.1.2v.3q-.3.6 0 1.1 0 1 .5 1.9l.2.6.2.4.5 1q0 .5.3.9l.5.8.3.6.1.3.4.5.2.4 1.4 1.8-.3-.3q-.3 0-.4-.4l-.7-.7-.7-.9-1.6-1.6-.3-.3-.3-.4-.5-.7-1-1.6-1.3-1.3-1.2-.7-.9-.4-.9-.3-1.8-.7-.7-.2-1.3-.2h-1.4l-1.1.1-1 .2h-.4l-.6.1-.5.1-.4.1-1 .3-.6.2-.4.2-.4.1-.8.5-.8.5-.3.3-.5 1.3-.2.6-.1.3v.5l-.1.2v.1h-.1l-.5.3-1.3.2-1 .1a4 4 0 0 0-1.8.8 3 3 0 0 0-.9 1.3zm9.8 4-.4-.1h2.2l2.9-.4h1.2l1.3-.1h1l1 .1h.9l1.1.1h.9l-.5.2-1 .2h-.4l-.5.1-3.3.1h-4.4zm24.1-.7q-.2 0-.3-.2l-.6-.3h-.1 2.1l2.2.8.3.3.2.2v.1h-1.4l-.3-.2-.4-.1-.7-.2-.7-.3z" fill="#fff"/><path d="m164.1 340.8.2.6.4.7.3.3.4.4a2 2 0 0 0 1.4.2 10 10 0 0 0-.8 2.8l.1 1.4.4.6q.5.5 1.2.8l1 .3 1 .2 1.2.2 2.6.2.6-.1.6-.1.5-.2.5-.1.4-.2h.2l.5-.3.3-.1 1.5-1.1.4-.4.4-.4.2-.2.2-.3.4-.4.5-.9 1.4-1.9.3-.4.6-.9.3-.4.3-.4.5-.5.2-.2.2-.2.3-.3.9-.7.7-.7.4-.6.3-.6.2-.5.9-2.4.2-.6.2-.3v-.3l.3-.5.3-.6.3-.5.5-1 .3-.4 1-1.1 1-.8q.3 0 .4-.3l.4-.2.5-.2.3-.1.2-.1 2-.6q.3 0 .6-.4.3 0 .5-.4l.3-.4.2-.3a3 3 0 0 0 .7-1.5v-1.7l-.3-1.9h-.2v2.8l-.1.5-.2.5-.3.7-.2.3-1 .9-.4.2-1 .3-1 .3h-.3l-.2.2-.5.2q-.2 0-.5.3l-.2.1-.2.1-.4.3-.3.2-.2.2-1.4 1.6q0 .3-.3.5l-.3.6-.3.4-.2.5-.5 1-.4 1.1-.8 2-.2.7-.4.9-.2.4-.5.5-.5.4-.6.5-.4.3-.3.3-.1.1-.4.5-.4.4-.3.4-.3.4-.4.6-.3.5-.6 1-.6 1-.3.4-.2.4-.3.3-.3.4-1 1-1 .8-.5.2-.3.1-.2.2h-.4l-.3.2h-.4l-.4.2-1 .2h-1.3l-.6-.1-1.2-.2h-.3v-.1h-.2l-1.1-.3-.6-.1-.7-.3-.5-.4-.2-.3-.2-.5v-.7l.2-1.4 1.2-2.5.2-.2.5-.6 1-1.3 1-1.1.6-.6.5-.6.4-.4.4-.4.2-.2 1-.8.4-.4q.3 0 .5-.3l1-.7.9-.6.4-.3.5-.3.4-.3.6-.3 1-.6 1.5-.9.7-.4.6-.4.3-.2.8-.5.4-.3.5-.4 2-1.6q.3-.2.2-.5t-.2-.4h-.6l-.3.1-.6.2-1 .3-.5.2-.5.2-.6.3-.5.2-.4.3-.4.2-.7.5-.9.5-.4.3-.6.4-.8.7-.8.6-.9.6-.5.4-.3.3-1 .8-.6.7-.6.5-.1.2-1 1-.3.4-.4.5-1 1.1-.2.2-.4.6-.5.6-.1.2-.8 1.1q0 .3-.3.5l-.2.3-.4.7-.1.2-.2.1h-.3l-.2.1h-.4l-.2-.2-.2-.1-.2-.2-.3-.6-.4-.8v-.6l.2-.7.5-1 .6-1.3.5-.8.4-.7.2-.4v-.3l.1-.6.2-1.3.5-1.5.2-.7.4-.6.2-.4.2-.3.3-.4q0-.3.3-.4l1.4-1.8 1.6-1.5.2-.3h.2l1-.2.5-.2h.3l.3-.1 1-.5 1-.5.5-.3.4-.4q.3 0 .4-.4.2-.2.1-.5 0-.2-.3-.3h-.6l-1 .2q-.7 0-1 .4l-1 .5-1 .7-.9.7-.1.1-.3.3h-.2l-.9.3h-.3q-.3 0-.4.3 0 .3.4.4h.5l-.2.3-3 3.5q0 .4-.3.7l-.3.7-.3.8v.1l-.1.3-.2.5v.5l-.2.9v.9l-.1.2-.4.7a21 21 0 0 0-2.1 3.8v1zm8.5-4.7.5-.5.2-.2.4-.3.6-.6.2-.3 1.1-1 1-.7.2-.2 2.3-1.7.7-.6.9-.6.9-.6.5-.3 1-.5.6-.2 1-.4 1.4-.6-.1.1-.2.2q-.7.7-1.6 1.2l-1 .7-.9.6-.6.4-.3.2-1 .6-1 .6-2 1.2-1 .5-.3.2-.6.5-.4.2-.7.5-.4.4-.3.2-.2.2zm2-12.1h-.5l-.3.2 1.3-1 .4-.2 1-.4.7-.1-.5.3-.4.3-.9.5-.3.1z" fill="#fff"/><path d="m129.5 355.8.3 2 .1.7.4 1.2.3.6.2.5.1.2.1.2.5.7.6.6q.1.3.4 0v-.4l-.6-.5-.4-.8v-.2l-1-1.8-.5-3v-2l.1-.7.1-.7.1-.5.1-.5.3-1 .3-.8v-.2l.2-.2.1-.5.4-.8.4-.7.3-.6.4-.5.4-.7.4-.5.3-.5 1-1.1q0-.2.3-.5l.7-1.2q.3-.4.3-.7.1-.5 0-.8l-.1-.6-.2-.3-.4-1v-.5l.6-1.4.2-.3.3-.4.3-.4.5-.7.3-.3.3-.3.8-.8 2.3-1.6 1.8-.8 1-.5 1.5-.6 1-.4 1.1-.1h3.5v.2l-.1.3-.2.7-.4 1.3-.1.4-.1.6-.2.3-.8 1.4-.2.3-.2.3-.1.4-.2.3-.3 1.3q-.2.6 0 1.2v.4l.4.1h.3l.3-.2.3-.1.6-.2.3-.1.4-.2.2-.1.3-.2.4-.2.2-.2.4-.2.2-.2.5-.4.6-.5.3-.3.2-.2.3-.3.2-.2 1-1.2.4-.7.1-1q0-.7-.7-1.5a7 7 0 0 0-2.2-1.6l-1-.3.2-.2.2-.4.4-.6.4-.7.3-.6.4-.4.2-.4 1.4-1.3 1.1-.5.5-.2h.3l.4-.1h.9l.5-.1 1.5.2 1 .2.7.2 3.1.8 2.8.3 3.3.3h.6l.1-.1v-.2h-.2l-.3-.1h-.4l-2.6-.4-1.3-.2-1.1-.2-2-.4-.6-.2-.6-.2-.7-.2-.7-.2h-.4l-.4-.2h-.6l-.4-.1h-2.4l-.8.2a6 6 0 0 0-2.7 1.8l-.2.2-.2.3-.3.3-.1.2-.8 1.2-.7 1.2-.3.6h-.8l-.7-.1h-2.3a9 9 0 0 0-3.4.9l-.7.3-.5.2-.7.4-.2.1-.5.2v.1h-.1l-.7.4-2.5 1.8-.6.6a15 15 0 0 0-2.4 2.9l-.3.5-.3 1v.4l.3 1.1.2.4.2.4v.2l.1.3v.4l-.2.4-.4.7-1 1.4-.5.5-.4.4-.5.8-.3.5-.4.6-.4.7-.2.4-.3.4q0 .4-.3.8l-.3.4-.1.4v.2l-.2.5-.1.2-.2.8-.2.7v.2l-.1.4v.3l-.1.4v.3zm19.2-18.2.2-1 .2-.7.1-.3.1-.2.1-.1.5-.8.5-.9q.4-.5.4-1l.1-.5v-.2l.4-1v.1l.1-.5.1-.3.1-.4.3-.5 1 .3 1.4 1 .7.7.2.4v1l-.3.4-1 1.4-.5.4-.2.2-.2.3q-.3 0-.4.3l-.4.3-.4.3-.4.3-.5.3-.4.3-.4.2-.5.2-.4.2-.5.1z" fill="#fff"/><path d="m131.9 361.7.2.2.2.1.2.1h.4l.4.1h.6l1.6-.6 1-.4.9-.5.9-.4.5-.3 2.5-1.8.6-.6.2-.2.8-.8.5-.5.4-.4.3-.4.4-.4 1.4-1.6.3-.3.4-.4.6-.6v.1l-.6 1-.7 1-.7.8-.6.8-2.2 2-1.2 1-1.8 1.5-.3.1-.2.4-.5.2-.4.2-1 .3-2.3.7-1 .2-.4.1q-.2 0-.2.3l.1.3a2 2 0 0 0 1 1l.4.2 1 .5 2.1 1h.4l.2.2h.3l.6.2h.5l.4.1h2.7l.7-.1q.8-.1 1.4-.6.9-.5 1.6-1.2l.2-.2.1.3a2 2 0 0 0 1.1 1.6h1l.8-.2.7-.3.4-.1.5-.1.8-.2.5-.1.6-.2.5-.2h.2l.3-.2q.3 0 .5-.3l.2-.1.3-.2.9-.7.8-.6.8-.7.8-.7.8-.7.4-.5.5-.5.8-.9 1.3-1.8 1-1.8 1-1.8.4-.8q0-.5.3-.8v-.1l.6-1.1.5-1q.1-.3-.1-.5l-.5.1-.4.7-.4.7-.4.8-.3.8-2 3.7-.2.4-.7 1-2.7 3-.8.7-.8.7-.8.6-.9.7-.5.4-.4.2-.3.3h-.2l-.2.1-.3.2h-.2l-.6.2-1.5.4-.8.2-1 .4-.6.2h-.3l-.1-.1-.3-.4-.2-.3-.1-.5v-.5l.2-.2.4-.3.5-.6.2-.3.5-.5.3-.4.7-1q.8-.7 1.4-1.7l.3-.4a10 10 0 0 0 1.2-2.7l.3-1.5-.1-.2q-.2-.3-.5-.1-.3 0-.5.4l-.3.2-.3.3-1 1.3-.5.8-.5.7q0 .3-.4.6l-.7 1.1-.2.4-.2.4-.6.9-.4.9-.1.2-.1.2v.3l-.2.2-.1.7-.6.5-1.3 1-1 .6-.5.1-1.2.2h-2.6l-.2-.1-.6-.2h-.3l-.2-.1-.6-.2-.6-.3-1-.5h-.3l-.7-.5-1-.6-.2-.2-.1-.2.6-.1.9-.2 2-.5 1-.5q.6 0 1-.4l.6-.3.5-.3.5-.4.4-.4.8-.6.9-.8.4-.4q.3 0 .4-.3l.4-.4.4-.5a21 21 0 0 0 2.7-3.4l.4-.6.3-.7.1-.6q0-.3-.3-.4h-.3l-.2.1-.4.3-.2.1-1.5 1.5-1.7 1.8-1.4 1.4-.8.8-.9.8q-.5.6-1.2 1l-2.2 1.4-1.9 1-1 .4-1 .2zm16.4 0-.1.2-.3.2-.1.2.1-.5.1-.2.9-1.6.9-1.5.6-.8.2-.4.3-.4 1.5-2 .3-.4-.7 2q-.1.6-.5 1l-.3.5-.3.4-.6.8-.7 1-.7.9z" fill="#fff"/><path d="m166 349 .1-.1-.1-.1z" fill="#fff"/><path d="m165.7 349 .1.1q.3.1.3-.1l-.2-.2h-.2z" fill="#fff"/><path d="m91 370.3.2.2h1.1l1.7.4 1.5.3h.7l.7.2 1.5.2 1.5.3 2.7.5 1.3.2 1.3.2 1.3.3 1.5.2 1.2.3h.6l4.3.7 1.7.2 3.4.6 1.6.3 1.2.2h.4l.8.2h1.1l1.3.2 2.4.3 2.6.2h4.1l.3-.2.7-.1.7-.1h1.3-.1a12 12 0 0 1-3.2.6l-1.9.1h-3.7a26 26 0 0 1-6-.3l-2-.3-1-.2-1-.1-2.1-.5-2.2-.5-1-.2-1.2-.2-1-.2-1-.2-1.6-.3-.7-.2-2.4-.4H104l-2-.3h-.3l-.8-.2-.9-.2-.7-.3-.9-.1-.8-.2H97l-1-.3h-.3l-.3-.1h-.3l-.1.2v1.1l.4 1.1.2.6.5 1v.3l.7 1.1a6 6 0 0 0 1.8 1.7l.5.3.5.4 1 .4.7.3 2 .3h3.1l1.8-.6.7-.2.7-.2 1.2-.2-.5.1-.4.2h-.2l-.7.3-.4.2-.5.3-1 .6-1 .6-.5.2-.4.3v.6l.2.2q.3 0 .5.3l.6.2 1.3.5 2 .8 2.3 1 .6.2q.5.3 1.1.3h1.4l.7-.1 1.5-.6.4-.1.2-.1.6-.3.5-.3.8-.4.6-.4 2.5-1.5 1.3-.7.5-.2h.1l.1-.1h.1v.6l-.3.3-.5.5-.5.4-.4.4q-.2 0-.5.3l-.2.2-.3.2-1.7 2v.3l.2.2.4.1 1.4-.1.8-.2 2.3-.7 3.1-1.1.4-.2.3-.2.8-.4 1.5-.8 1.7-.8 1-.6h3l1 .1h1l1.5.1 1.5.2.7.1h1.5l.7-.2a5 5 0 0 0 1.9-.8l1.4-1.2.4-.3.2-.3h.2l.2-.3.1-.2v-.2l-.3-.2-.9-.2-1-.2-1.1-.1-1.6-.2h-2.2l-.9-.2h-.2.4l.8-.1h4.5l.8.2.5.1.6.2h1l.2-.3.7-.9.7-1 1.4-1.4 1.7-1.5 1.7-1.4 4-3 .7-.4.2-.2.5.6.5.1q.6.1 1.2-.1l1.2-.6 1.7-1.5.2-.2.2-.3v-.5q-.7-.2-1 0-.8 0-1.5.4l-2.2.9-.4.2-.1-.3v-.6l-.1-.4V364l.2-.9.6-1.9.2-.5.3-.6.2-.3.2-.3.2-.4.3-.3.2-.3.4-.6v-.6l-.2-.4-.2-.9-.1-1.3v-.8l.2-.8v-.2l.2-.3 1.2-3.1.4-.7v-.2h-.1l-.2.3-.3.5-.5 1-.8 1.7-.2.4-.1.5-.2.5-.1.6a5 5 0 0 0 0 2l.1.5.4 1v.1l-.5.6-.3.4-.3.5-.3.6-.4.5-.2.6q-.6 1-.7 2.3l-.1.6v1l-.1.2v1.2l.2.6v.3l-1.6 1q-.2 0-.5.3l-.5.4-.5.4-1 .7-.8.7-1.9 1.6-1.3 1.1-.7.6-.6.6-.6.7-.6.7-1 1.3h-.1l-1-.3-1-.3-2.2-.2H143l.3-.3q.3 0 .5-.3l.2-.5 1.6-1.8.1-.2.2-.4.1-.4v-.2l-.2-.2-.8-.7q-.4-.3-.8-.3l-.6-.2-.5-.2-1-.2-.5-.2-.5-.4-.2-.3-.7-.8-.2-.5-.4-.4-.3-.2-.2-.2-.5-.4-.3-.2-.6-.4-1.2-.4-4.6-1.6-1.1-.4q-.6 0-1.1-.3l-2-.6-.9-.2-1-.3-2.2-.4-.7-.2-2.5-.2h-.6l-.4.1-1.5.5-.3.2-.2.5.1.5.3.6.6.8 1.8 2 .7 1.1-3-3q0-.3-.3-.5l-.7-.9-.6-.9-.7-.8v-.1l-.2-.2-1.5-1.2-.4-.3-.7-.2h-1.3l-1.2.3h-.6l-2.5.2-2.8.5-.6.3-1.2.6-.4.2q-.3 0-.5.3l-.2.1-.1.4v.4l.5.7 2.8 3.3 1.2 1-.4-.2-1.5-.7-2-1.3-.8-.8-.9-.6-.6-.3-.4-.1h-.7l-.8.4-.5.3-1.1.6q-.3 0-.5.3l-.5.2-.5.3-.5.4-2.2 2v-.1l-.1.2-.8.7-.2.3zm4.1 0L94 370l-2-.1.3-.3.4-.5 2-1.6.4-.3.4-.2.8-.5 1.7-.9.6-.3h.8l1 .7 1.6 1.3 1.3 1 1.6.8 1.8.5h.8l.1-.4v-.2l-.2-.2-.3-.2-.6-.5-1.9-1.5-.4-.5-.4-.4-.4-.5-.7-1-.6-.9 1.2-.5 2.1-.8 1-.1 2.5-.2h.8l.3-.1h.3l1.3-.4h1.6l.9.6.2.2.4.4.3.3.8 1 .7 1a24 24 0 0 0 3.2 3.6l3.7 3.3h.2q.2 0 .3-.3v-.3l-.2-.2-.3-.4-.6-.8-2-2.7-.7-.8-1.7-2.6 1.4-.4h1l1.2.2h.4l.8.2 1 .2 1.2.3h.3l.8.3 1 .2 1.8.6 1.1.3 1.1.4 1.3.4 1.2.4 1 .4 2 .7 1 .7.3.2.3.3.6.5.5.5.6.7.7.7.5.2.4.2 1 .2 1 .3 1 .4.2.2-.5.8-.2.3-.6.5-.6.6-.5.4-.2.2-.3.2-.3.2-.7.5-.3.5q-.1.3.2.4l-1-.2-1 .1q-.7.3-1.5 1l-.8.5-.7.7-.7.6-.4.4-.4.2-.2.2q-.6 0-1 .4-.3 0-.3.3l-.5.3-1.3.7-1.6.8-.6.3-.7.3-.3.1-.3.2-.8.2-2.2.8-1.2.4-2.3.5 1.4-1.5.4-.3.5-.4.5-.4.4-.4 1-1v-1l-.5-.5h-.5l-.7.3-1.2.6-.4.2-.5.3q-1.1.8-2.3 1.3l-1 .6-.9.5-.4.2-.4.2-2 .5h-1.2l-.7-.2-.4-.2-.4-.1-.7-.3-1.7-.7-1.7-.7-.8-.3-1.1-.4-.3-.2 1.4-.7.7-.5.8-.4.6-.3h.3l.3-.2 1-.4 1.7-.8.1-.2v-.3l-.5-.2H111l-1 .2-.6.2-.6.1-2.6.8-.7.1H104l-2-.2h.1l-1.3-.2-.9-.5-.3-.2-.3-.2-.4-.2-1.1-1-1-1.4v-.2l-.1-.1v-.2l-.4-.7-.2-.4-.1-.4-.2-.4v-.3l-.2-.8v-.1l.4.1 1.2.3 1 .1H98l.8.2 1 .2 1.7.4 1.8.2h1.8l2.6.5 1.3.3 1.2.2 1.3.2 2.1.5 1.3.2q.6 0 1 .3.7 0 1.3.3l1.1.2 1.2.2 1.2.2 2.3.5 2.4.3h8.1l1.2-.2 1-.2 2.3-.5q.3 0 .5-.3l.3-.2v-.6h-3.1l-.7.1-.7.1-.6.1h-3.1l-1.2-.1-2.4-.2-2.1-.2h-1l-1.4-.2-1.4-.3-1.4-.2-1-.2-.5-.2h-.7l-1-.2-3.5-.5-2.2-.3-.9-.2-.8-.1-.9-.2-4.1-.9-3.9-.8-1.8-.3-1-.1-1-.2zm40.7 10.4 2-1.9 1.2-.8.6-.3h1.2l.5.2.5.1 1.2.3h3l.8.2h.7l.8.2 1 .2h-.1l-3 2.2a7 7 0 0 1-2.5.4h-.5l-1.5-.4-1.4-.2h-3zm26.4-13.1 2.1-1h.5q.3-.3.7-.3l-2 1.3-.8.2h-.4z" fill="#fff"/><path d="M109.4 412.5v.1l.2.1h.8l.9-.2 1.4-.6.5-.2.5-.2.6-.3.5-.3.4-.2.7-.4.4-.2.6-.4 1-.6.4-.3.7-.4.9-.7.4-.3h.1l.3-.3.9-.8 1-.8-2 1.8-1.6 1.5-.9.8-.1.2-.2.2v.3l.1.1.5.2h.5q.8 0 1.4-.3l.6-.2.2-.1.3-.1.4-.3 1.6-1 .7-.5.3-.2h1l1.1.5.7.2 1.5.3h.6a5 5 0 0 0 2-.6l.6-.4.5-.4a9 9 0 0 0 1.7-2.2l.3-.6.1-.1.2-.4.2-.5.5-1 .5-1.1 1.1-3 .6-1.4h.2l-.8 2.8-.2.4-.2.7-.2.5-.2.5-.5 1.1-.9 2.2-.4 1v.3l-.1.3v.2h.8q.3 0 .5-.3l.6-.3 1-.8.4-.4 3.2-3.2.4-.5.4-.5.4-.5.2-.4.4-.6.3-.5.9-2 .2-.7.2-.5.1-.5.2-.7.1-.5.1-.5.1-.7.1-.7.2-1v-1.2l.2-2v-2.7l.4-1.7.1-.1.1-.2.4-.5.6-.6.6-.6 1.2-1.2q.4-.8 1-1.3l.5-.6.5-.6 2.3-2.2 1.4-1.1 1-1.3 1.3-1.2 1.5-1.3.8-.6 1.8-1.3.8-.3h.6l.3.2.4.3.8.6.2.1.3.2.5.2.5.1.7.1 1-.1.3-.1.3-.1 2.2-1 2.1-.8.5-.1.7-.2.3-.1h.3l.6-.2h.6l1-.2.5-.1h-.5l-.7.3-.5.1-1 .4-.6.2-.5.2-2.3 1-1 .4-.6.2-.5.2-.7.4a2 2 0 0 0-.8 1.4l.1.7.1.3.6.5.8.5 1 .3.1.1h.3l.1.2.7.4.6.2q.5.3 1.2.2l1.3-.3.8-.4.7-.4 1-.5 6.5-3.5h.1l.3-.1v-.2q0-.4-.3-.4h-.2l-.3.2-.8.4-1 .5-1 .6-1.1.6-2 1.1-3.3 1.7h-1.1l-.5-.1-.2-.2-.6-.3-.2-.2h-.1l-.2-.1-.6-.2-1-.3-.7-.5h-.1l-.2-.3v-.2l-.1-.2v-.5h.1l.2-.3.2-.2.3-.1.8-.4.7-.2.8-.3 1.5-.6 1.4-.5.5-.2.3-.1.7-.3.6-.2.5-.1 1.4-.4 1.3-.6.2-.2v-.5l-.3-.2h-.4l-.4.1-1 .2-1.4.2-1.1.2h-.5l-.7.2h-.2l-.5.2-.7.2-1.2.5-2.8 1-.4.2-.4.1-.4.1h-.4l-.8-.1-.3-.1h-.2l-.3-.2-.2-.1-.3-.2-.2-.1-.2-.2-.2-.2-.4-.2-.7-.3h-.5l-.2.2-1 .4-1.7 1.2-1 .7-1.6 1.4-2.7 2.7-1.6 1.3-2 2-.5.7-1.3 1.5-.7.8-1.1 1.1a5 5 0 0 0-1.2 1.8 9 9 0 0 0-.5 2.7v1.9l-.2 2.4-.1 1.3-.1.7-.1.7-.6 2.5v.1l-.1.2-.2.4v.1l-.4 1.1-.7 1.2-.2.3-.2.5-.6.8-.3.4-1.2 1.3-.9.9-.8.9-.5.4-.5.5-1.6 1.3-.5.2 1-2 1-2.3q0-.5.4-1l.1-.5.3-.6.1-.5.3-.7.6-2.7v-.9l-.2-.3h-.5l-.2.2-.1.2-.2.3-.8 1.7-.2.5-.2.4-.4 1.1-1 2.3-.5 1.1-.1.5-.4.7v.2l-.3.4-.1.3-.3.3-.7 1-.6.6-1.2.9-1.1.4h-.8l-2-.4-.5-.2-1.2-.4h-.4l-.4.2q-.3 0-.6.4l-1.6 1-.9.5-.4.3-.7.2-.9.2h-.7l.3-.3.5-.4.9-.8 1.3-1.4 1.5-1.5.8-.8.7-.7.8-.7.8-.8.8-.7 2.7-2.3.8-.8.8-.8.9-.9 3.3-3.3.8-.7 1.7-1.8.8-.9.8-.9.5-.6 2.6-3.4.4-.6.4-.9v-.1q-.1-.3-.4-.3l-.3.2-.2.3-1.6 1.8-2.1 2.6-.8.8-2.4 2.6-.9.8-.8.9-.8.8-.9 1-3.6 3.5-.4.4-.7.7-1.6 1.4-5 4.4-1 1h-.2l-.4.4-.6.4-1.1.8-.5.3-.6.4-1.1.7-.6.3-.7.4-.7.3-.7.3-1.7.8-.8.2h-.1l1.8-2.5.2-.7v-1.5l-.2-.7v-.7l-.2-2.2q0-1.3-.3-2.5v-1.6l.2-.6.3-.6.3-.4.6-.4 1-.5.7-.2.8-.2h1l.5-.1h.7l7-.1h.5l.8-.2.2-.1q.2-.2 0-.4v-.1h-.5l-.2-.1h-3.8l-1.5.2h-4l-.7-.2q-1 0-2.1-.4l-.5-.2v-.1h-.2v-.4l.1-.4.5-.8.2-.4q0-.2.3-.5l.4-.6.4-.5 1.1-1.3 1.3-1 .5-.2.3-.1.2-.1.7-.2.3-.1.4-.1h.5l.2-.1h.3l.7-.1h1.6l.4-.1h.6l1.8-.6 1-.6.6-.6.2-.2.3-.3.2-.1.4-.2 1.1-.2 1.7-.1h2.2l1.7.2 1.1.1 1.2.2 1.7-.2.3-.1.2-.1.1-.1.1-.2v-.2q-.1-.4-.5-.4l-1-.2-1.2-.3-.6-.2-.4-.1-.3-.1-.3-.2-1-.7q-.2 0-.3-.2v-.1h-.1v-.4h.1l.2-.4v-.2h-.2l-.4.7v.5l.1.1.3.4.3.2 1 .6.3.2.5.2.4.1.3.1.8.2 1 .3-1.2.1-1.5-.2a34 34 0 0 0-5.6-.3h-1.1l-.3.1-.5.1-1 .5-.3.3-.2.2-.2.2-.2.2-.3.3q-.3 0-.4.3l-.3.1-2.3.7h-1.1l-.6.1h-1.1l-.6.1h-.1l-.3.1-1 .3-.6.2-.3.1-.3.1-.8.4-1.2 1-1 1-.4.6-.3.4-.3.5-.3.5-.8 1.6v.5l.1.3q0 .3.3.3l.5.3h.3l1.3.4-1.3.4-.4.2-.4.3-.4.3-.3.4-.3.4-.2.4-.2.7-.2 1.2.2 1.8.1 1 .1.5v.5l.2 1.9v1l.2 1v.8l-.2.3-.4.8-.3.4-.6.9-.4.4-.1.3zm28.2-21.4-.8.8-.9.9-.8.8-2.5 2.4-2 2-1 1-.8.8.4-.4 1.8-1.8.9-.9.8-.8.8-1 .9-.8.8-.8.9-.9 2.4-2.5.7-.9 2-2.2-.4.5-1.7 2z" fill="#fff"/><path d="M163.5 388.2h.4l.4-.8v-1.7l.1-1 .2-1.4.2-.3.9-1.5.4-.6.2-.3.2-.2.4-.5.4-.4.6-.5.7-.5a7 7 0 0 1 2.3-1l.8-.1h2.8l2.3-.3h1.5l.7-.1.8-.2 1.3-.2 1.3-.3 1.2-.4 1.3-.5 1.2-.4 2.2-1 .6-.3.4-.2.2-.1.6-.4.5-.2 1-.7 1.2-.7 2.2-1.5 2-1.4 1-.7.5-.4.6-.4.5-.5.4-.4.9-1 .4-.4.2-.3.1-.2.2-.3-.1-.3-.2-.1q-.3-.2-.6 0-.6.2-1 .6l-2 1.4-2.2 1.6-1 .7-1 .8-4.2 2.6q-1.2.8-2.3 1.3l-1 .7-.5.2-.5.3-.9.5-.8.3-.4.2-.3.1-.9.3-1.5.5-.6.3-.6.2h-.3l-.3.1-.8.1h-1.6v-.3l3.2-2.4.4-.4.6-.5.5-.4.5-.5.5-.5.5-.5v-.4l-.4.1-1.1 1.1-1 .8-.4.4-.7.5-.9.6-1.1.9-.5.4-.2.2-.4.4-.2.3v.2l.2.4h-3.6a7 7 0 0 0-5 2.1l-.3.3-.3.4-.4.4-.4.5-.2.3-.4.4-.2.4v.1h-.1l-.3.6-.2.3-.3.6q-.3.8-.2 1.7v2.5l-.4.5v.2zm23.4-14.7-1.1.5.1-.1.5-.3 1.1-.7 2.3-1.3 2.2-1.3 2-1.4 2.1-1.5 2.2-1.5 1.3-1 .8-.5q0 .3-.3.4l-1 1q-.3 0-.5.3l-.5.4-1 .7-2.1 1.4-2.2 1.4-1.8 1.2-.6.4-.4.2-1 .7h-.1l-1 .5z" fill="#fff"/><path d="m136.4 429.9.2.1h.2l.2-.1 1.3-.6 1.4-.4 1.5-.7.2-.3.3-.4.5-.5.5-.5.7-.6.2-.3.3-.3v-.4l.4-.4.1-.6.4-.6.7-1.2 1.6-2.8 1.5-2.4 1.5-2.7.4-.6q0-.5.4-.9l.6-1.3 1-1.9-.3 1-.3.9-.4 1.1-.4 1-.2.5-.2.5-1.4 2.6-1.3 2.6-2 3.3-.5.6-.4.5-2 2.5-1.4 1.5-.2.1-.2.2-1.3.7-1.3.7-.8.6-.2.2v.3l.1.2.6.5.4.1.8.2h.4l.3.1h1.2a8 8 0 0 0 3-.6l.4-.1.6-.3.4-.3.3-.1 1.3-.9.2-.2.4-.2.2-.2.3-.3.4-.3.1-.1.4-.4.2-.2.3-.3.2-.3.6-.6.1-.2.3-.4.5-.7.2-.3.2-.4.2-.4.2-.3.4-.7.4-.8.3-.7.2-.6.5-1.4.4-.9.2-.7.8-3.6.1-.7.2-3v-3.1l.1-.4.2-1.7.2-1v-.1l.1-.2 1.4-3 .8-1.1 1-1.2 1-1.1.8-1.1.5-.8.2-.3v.1q0 .8-.2 1.5l-.7 4.5v.6l-.2.7v.9l-.1.8v1.3l-.2 3.2v12.2l-.3 3v.6a25 25 0 0 1-1.6 4.8l-1 2.5-.5 1 .1.4.4-.1 1-2 1.4-3.9v-.2l.1-.2.6-2.5v-.4l.3-1.5v-2l.1-.3v-6.8l-.1-1.4V407l.1-.8v-1.1l.1-.6v-.7l.2-.8.2-1.5.2-1.5.2-.8.1-.7.3-1.3.1-1v-1.3l-.3-.2h-.2l-.2.2-.1.2-.2.1q0 .3-.4.6l-.8 1.2-1 1-.9 1.2-.9 1.2-1.1 1.8-.4 1-.4 1-.2.8-.1.7-.2 1.5v1.4l-.2 1.5v2.5l-.2 1.1v.6l-.4 2-.4 1.4-.4 1.2-.3.8-.2.5-.3.8-.2.6-.3.6-.3.7-.3.5-.3.5-.2.5-.4.5-.3.6-.4.4-.7 1-.5.5-.3.3-.3.3-.5.4-.4.3-.4.4q-.3 0-.5.3l-.8.5-.4.3-.5.3-.5.2-.9.4-.9.2-.8.2h-1.8l-.3-.1-.4-.1-.5-.2-.6-.2v-.2l.3-.3 1.2-.5 1.2-.7 1.3-.9a20 20 0 0 0 3-3.4l.8-1.2 1.7-2.4.7-1.3 1.4-2.6.7-1.4.6-1.3.2-.3.1-.3.3-.7 1.2-3.2.2-.8.2-.5.1-.8v-.1l-.2-.2h-.3l-.2.2-.2.3-1.1 2-.7 1.2-.8 1.4-.7 1.4-.3.6-.4.6-1.5 2.6-1.8 2.8-.8 1.3-.6 1.3-.4.8-.3.3-.2.4-.2.4-.2.3-.2.3h-.1q0 .3-.3.5l-1 1.1-.2.1-.3.2-3.5 1.3.3-.7 1.5-4.2.6-1.7.3-1 .4-1 .2-.7.3-1.4.2-.8.3-1.4.2-.7.2-.7.1-.6.3-.7.3-.7.2-.6.3-.5.3-.6.5-.7.1-.1.2-.3.3-.3.4-.5.3-.3.4-.4.4-.4.7-.5 2-1.4.8-.4.6-.3 2-1 .7-.3q1.2-.6 2.3-1.6l3.6-2.8.4-.6.5-.6.8-1.3.8-1.3.4-.6v-.1l.1-.1.2-.2.5-.8q0-.2.3-.5l.2-.4.2-.3.2-.5.2-.4.1-.4v-.1l.3-.6v-.4l.3-1.6-.2-1-.1-.6q0-.2-.2-.2l-.2.1v.3l.2.8v1.3l-.6 1.8-.1.3-.2.3-.3.6-.2.3-1 1.5-.1.3-.6.9-1.6 2.4-.8 1.2-1.5 1.3-1.2.8-2.2 1.7-1 .6-2.7 1.3-.3.2-.4.2-.6.4-1.2.7-.6.5-.3.2q-.3 0-.4.3l-.6.5-.5.5-.5.6-.2.2-.2.3-.3.4-.1.2-.3.4-1 2-.3.7-.2.4v.3l-.2.4-.1.4v.3l-.2.4-.2.8-.3 1.4-.1.6-.2.8-.1.5-.2.7v.1l-.1.1v.2l-.1.2v.2h-.1v.3q-.3.4-.3.8l-1.9 4.9-.4 1.3-.2.4-.2.5-.2.3z" fill="#fff"/><path d="m146.7 459.6.1 1.8.4 2.6.2.5.3.3.2.1h.8l.4-.1.7-.4.4-.4.6-.4.2-.1v.1l-.3.7-.6 1.3-.4.7-.2.7-.3.8a5 5 0 0 0-.2 2.2v.6l.2.5q0 .6.4 1.2l.3.7 1.3 2.9.3.7.3.7.4 1.5.1.3.2.2h.2l.2-.4.1-.2.8-1.6q0-.5.3-.8l.4-.9.3-1 .4-.8.2-.7.3-.8.2-.6v-.3l.3-1 .1-.4.2-.8.2-1.3.5-2.4.6-2.8.3-1.5v.4l-.3 1.6-.1 1.8-.2 1.6-.3 1.7-.7 3.2-.4 1.6-.5 1.6-.7 1.8-.5 1-.3.4-.1.3v.2a.2.2 0 0 0 .3.2l.2-.1.2-.2.3-.3.4-.6 1.1-1.3 4-4.9 2.2-2.7.5-.6.6-.6.5-.6.6-.8 1.2-1.5.4-.7.2-.3.3-.4.8-1.6.2-.5.2-.3.1-.4.4-2.1v-1l-.3-1-.1-.8v-.5l-.1-.4v-.3l-.1-1v-2.3l.2-.8.3-1 .2-.7v-.4l.2-.5v-.4a8 8 0 0 0-.1-2.6l-.1-.5-.4-1.4-.2-.4-.4-.8-.2-.5-.3-.4q0-.4-.4-.8l-.5-.7-.2-.3-.2-.3-.6-.8-1.1-1.2-1-1.2-.9-1.3-.7-1-.4-.7-.3-.4-.2-.8v-.5l.2-1.5.2-.7.4-1.4.3-1.5.4-1.4.4-2.7v-4.9l-.2-1.9-.6-4.1v-2.9l.1-1.6.2-1.6.4-3.2.3-3 .1-1.6.1-.8v-.2l.6-.9.5-.7.2-.3v.3l.4 1.7.9 2.4q.2.5.7.9l.5.1h.7l.4-.2a19 19 0 0 0-2.3 4.1l-.4 1.5-.2 1.8v2.6l.3 1.7.3.6q0 .2.2.3l.2.3h.2l.1.2h.3l.3.1h.4l1.1-.2.2-.1.3-.2.4-.2.5-.4.7-.7 1-1 .2-.1-.1.1-.3.6-.2.7-.1.3-.1.2-.2.7v.3l-.1.7v.7l.2.6.7 1 .7.5.2.2.6.4q.8.4 1.5.5a6 6 0 0 0 3-.1l1.8-.7 1.2-.4h2.1l.9.2 2.2-.2a11 11 0 0 0 7-4.6l.2-.5.2-.2.2-.5.2-.3.3-.6.1-.2.2-.5.2-.4.4-.9v-.3l.3-.6.2-.8.6-2.5.4-1.8.2-.6.1-.9.2-1v-.6l.1.4.6 3v.3l-.5 1-.5.9-1.7 3.9-.8 2-1.5 3-1.3 3.6a7 7 0 0 0 .2 3.1l.5 1.5 1.3 3.3.1.2.2.3.3.2.2.2h.6l.3-.2.1-.1.4-.5.2-.4.5-1 .5-1.3.5-1 1-1.7 1.4-1.8-1.2 2-.8 1.4-.4.9-.2.3-.3.6-.4.8-.8 2.6-.1 1q0 1 .3 1.9.6 1.4 1.9 2l.6.5.6.5.6.6.7.7.7.9 1.6 1.4.4.2.5.4.6.3 1.5 1.4.5.5.5.6.4.5.4.4.4.8.2.3v.1l.2.2h.6q.5 0 .8-.2l1.6-.5.9-.4.6-.4.5-.4.3-.2.3-.3.6-.5.6-.6.4-.4.3-.3.3-.3.3-.4 1-1.4.4-1.7-.2-2.1-.1-.7-.3-.8a12 12 0 0 0-1.3-3l-.4-.6q0-.2-.3-.5l-.5-.7-.2-.4-.6-.7-.3-.4-.6-.7-.3-.3-.6-.8-1-1-.6-.8-.4-.4-.2-.3.1.1.5.6.9 1 3.3 3.4.7.8.5.4.4.5 1.8 2 .2.2h.3l.3.1h.2l.2-.1.3-.2.5-.6q0-.2.3-.5l.9-1.6.1-.3.2-.4.4-1 .5-1.4.3-.8.1-.4.2-.5.2-.8.4-1.9.2-1V412q0-.9-.5-1.6-.4-1-1.2-1.8l-1-1-1-.9-.4-.4-.5-.4-.3-.2-.8-.6-.3-.2-.4-.3q-.2 0-.5-.3l-.2-.2-1-.5-.4-.3-.7-.4-1.4-.7-1.6-.7-.6-.3-.8-.4h-.2l-.5-.2-2.3-.8-1.4-.5-.5-.2h.4l2.4.1 1 .2.6.2.7.2.3.1.3.1.6.3 3.1 1.5.9.5 4.7 2.2 1.2.3h.6l.4-.1h.2l.4-.5.1-.2.1-.3v-1.2l-.2-.4-.3-.6-.5-.8-1.5-2.4-.3-.6-.4-1.2-.1-.5-.3-.9-1.6-3-.8-.9-.4-.4-.2-.3-.8-.6-1.3-1.2-2.2-1.3-.8-.4-.4-.2.9-2.2.2-.5v-.4l.1-.4.3-2v-5.2l-.1-1-.3-2v-1.6l-.3-1.6q0-.8-.3-1.7l-.3-1.6q0-.4-.4-.3-.2 0-.2.4 0 1 .4 2.1l.2 1.2.1 1 .3 2.7.3 2.7v5.5l-.2.5-.1.8-.1.3-.2.5-.2.6-.2.6-.5 1.2-.1.1-1-.3h-.8l-.2.1-.2.2-.3.3-.4.9-.4.8-.4.8-.2.3-.3.5-.6.8-.8 1-1.3 1.7-.4.5-.2.2v.4q.1.3.5.3h.8l.4-.1.5-.3 1-.7.3-.2.3-.4.4-.4.2-.2.6-.7.5-.7.6-.8.5-.7.5-.8.2-.4.1-.2.3-.5.1-.3 1.7.9.3.1.4.3.6.3.5.5 1.2 1 .6.5.4.4 1.1 1.3.7 1.2.8 2 .3.7.1.5.2.5q.1.6.6 1.1l.4.7.8 1.2 1 1.4v.5l.2.3v.7l-.1.2h-.1v.1h-.1v.1h-1.4l-.3-.1h-.2l-.7-.4-.6-.2-3.2-1.8-3.2-1.7-.8-.4-1-.3-.7-.3h-.3v-.1l-.4-.1-.5-.1-.8-.2h-2.8l-1.4.3q-.2.2-.1.5l.2.2 1.3.5 2.7 1 .9.3.5.2.4.1 3.6 1.8.7.3.8.5 2.2 1.3.7.6.7.5 1 .8.7.6.3.3.3.3.5.5.3.4.5.6.6 1.2.2.7v3.1l-.1.3-.1.6-.2.7-.2 1.1-.3 1.3-1.2 3.7-.2.4-.2.5-.4.9-.6 1-.5.6-.2.1h-.3l-.4-.4-.4-.5-1.1-1.4-.3-.3-.4-.4-1.3-1.3-1.2-1.3-1.3-1.4-1.1-1.2-1.5-1.4h-.6l-.2.3v.7l.3.4q1 1.5 2.4 2.9l.7.9.6.7.3.4.2.2.6.8.4.6.3.4 1.4 2.9.4 1 .1.7.1.5.2 1.6-.2 1.2-.5 1-.6.8-.2.4-.4.4-.5.6-.6.5-1 1-.3.2-1 .7-.8.4-2 .7-.3-.5-.5-.9-1.5-1.7-.8-.8-.8-.7-.3-.2-.1-.1-.5-.3-.9-.6-.7-.6-.3-.3-1-1q0-.3-.4-.6l-.5-.5-.3-.3-.2-.2-.2-.2q-.3 0-.4-.3l-.3-.2-.3-.2-1-.8-.5-.6-.3-.4v-.3a6 6 0 0 1 .1-3l1-2.3.6-1.2 2.3-3.8.7-1.2.6-1 .5-.8.3-.5.4-.7.2-.3v-.2l.1-.2v-.2l-.5-.5-.2.1-.3.2-.1.2-.2.3a65 65 0 0 0-5 6.5l-.7 1.6-.5 1.2-.5 1.2-.4.7-.3.2h-.1l-.2-.3v-.2l-1.3-3-.9-3.2v-1.5l.8-2 .6-1.4 1.2-2.4 1-2.5 2.2-5 .3-.6.1-.4v-1l-.1-.6-.6-2.6v-.4l-.1-.4v-.4l-.1-.5-.2-1.7v-1.2l-.1-.3v-3.8l.1-.7.1-.7.2-.8.1-.8.2-1.1v-1l-.5-.2-.2.1-.2.3-.2.5-.3 1-.1.7v.1l-.1.5v.1l-.1.5v.6l-.1.8v2l.1 1.4.2 2.8v1.2l.1.7v2.2l-.2.7-1 4.6-.2.7-.3.8-.3 1-.2.4-.2.6-.4.8-.4.7-.2.4-.2.4-.5.7-1.7 2-2 1.4-2.6 1h-.5l-.6.1H183l-1.2-.2-1.6.2-.6.2-.3.1-.8.3-1.5.5h-2l-.9-.2-.9-.4-1.3-1.2-.2-.2-.1-.3-.2-.4v-1.1l.1-.5.1-.3v-.2l.2-.5.2-.4.1-.4.2-.5.4-.7.5-1 .4-.7.2-.3 2.4-3.3 1-1.3.2-.2.4-.5.6-.7 1.3-1.4.5-.6.6-.7q1.4-1.2 2.6-2.6l2.6-2.6 1.2-1.2 1.3-1.2.7-.7.8-.7.7-.7-.1-.3-.2-.1h-.3l-1 .6-.5.2-.3.2-.7.5-2.6 2-1.2 1.3-1.2 1.3-2.3 2.3-2.2 2.6-3 4.5-1 1.6-.1.1v.1l-1.3 1.4-.5.6-.5.7-.7.8-.5.5-2.2 1.9h-.2l-.8.2h-.6l-.2-.1v-.1l-.1-.1-.2-.2v-.2l-.4-1.4v-.9l-.1-.6v-1.8l.6-2.7a10 10 0 0 1 1.4-2.6l.9-1.4 1.2-1.4.8-.5 1.5-1 .8-.7.7-.5 1.3-1 2.7-2 1.4-1 1.2-.9 1-.7 1-.6.8-.5 1.3-.8 1-.5 1-.6 1-.5.4-.2.2-.2h.2l.1-.2v-.4l-.2-.1h-.5l-2 .6-1.3.6-.8.4-1.7 1q-.4 0-.8.4l-.3.2-.3.2-.8.5-.2.2-.6.4-1.4 1-1.5 1-1.4 1-.8.6-.8.7-1.1 1-1.2 1.3-1.1 1.2-.3.3-.8.5-.8.3h-.3l-.2.1h-.3v-.1h-.2v-.1l-.1-.2-.6-1.5-.4-1-.2-1-.2-.5-.2-.8q0-.2-.2-.3h-.1q-.4 0-.7.6l-1 1.6v.2l-.1.1v.7l-.3 1.3-.1 1.5-.2 1.6v1.6l-.3 1.6-.2 1.6a19 19 0 0 0-.1 5.2l.7 5.3v3.4l-.1 2a13 13 0 0 1-.6 3.2l-.4 2.1-.6 2-.3 2.1q0 .7.3 1.5.1.5.5.8l.9 1.5.5.8.7.9 1.3 1.6.7.8 1 1.4.2.4.2.5.3.5 1 2 .2.8.2 1.5v1.8l-.2.5-.1.6-.4 1.2-.3 1.2v.6l-.1.4v2.3l.1.6.2 1.3.2 1.5v.8l-.3 1.5-.2.6-.1.4-.2.5-.3.6-.5.9-.2.4-1.4 2q0 .3-.3.4 0 .3-.3.4l-.6.8-1.1 1.2-.5.7-.6.7-1 1.4-1.2 1.5-2 2.6-1.6 2q.5-.8.6-1.6l.5-1.6.3-.8.2-.8.8-3.3.5-3.4.5-3.4.5-3.6.4-3.5.4-3.5.2-2v-4l-.1-1-.2-.7v-.4h-.1l-.1-.2-.3-.1h-.1l-.2.3v.6l-.1 1.5v3.3l-.2 2.4v1.3l-.1 1.3-.3 2.4-.7 4.2-.3 1.7-.7 3.4-.4 2-.5 1.7-.2 1-.2.8-.1.8-.3.8-.3 1-.4 1.3-.6 1.5-.6 1.5-.4 1.2v-.2l-.3-.8-.7-2-.2-.4-.7-1.5-.4-1-.4-.8-.3-1.3-.2-1.5.2-1 1.1-2.9.6-1.2.1-.4.1-.3.1-.4v-.5h-.4l-.3.2-.4.4-1.6 1.2h-.2l-.3.2h-.4l-.1-.2-.2-.2v-.2l-.1-.2-.2-1.4v-.1l-.1-3.2v-1l.1-1.5q0-.6.3-1l.6-1.4.8-1 .6-.4.3-.3 1-.9 1.2-1.6.9-1 2.1-2.4v-.4l-.3-.1h-.2l-.3.2-1.2.9-1 1-1 1-1.7 1.4h-.6l-.5-.3-.2-.2v-.1l-.2-.1v-.3l-.1-.8.2-1.6.1-.6.1-.6.2-.5.2-.7q0-.5.3-.8 0-.4.3-.7l.6-1.4q0-.5.4-.9l.4-.7.2-.4.2-.3.2-.4.3-.4.8-1.2.8-.7 1-.8.3-.3.4-.2 1-.7.5-.3.4-.3.7-.6q.3-.1.3-.4v-.2l.1-.1v-.1q0-.3-.2-.1 0 .2-.2.3v.1l-1.2.9-.4.2-.5.3-.6.4-3 2.4-.7 1-.7 1-.3.6-.1.2-.2.3-.2.4-.3.7-.3.8-.4.7-.2.8-.3.9-.3.8-.2 1-.3 2.7v.2l.2.4v.3l.3.3.6.5.5.2h.2l.3.1h.3l.2-.2.6-.4.6-.5.7-.7.9-.8.2-.3-.9 1-.4.5-.5.6-.4.6-.7.8-.7.6-1.4 1.4-.2.3-.8 1.8-.2 1.2zm12.7-8.6-.1 1.4v-1l.1-2.4v-.2l.2-3.5v2.2zm26.9-65.4-1.5.7-.8.5-1 .6-.5.3-1 .7q-.3 0-.5.3l-1 .7-.6.3-.7.5-1.5 1.2-1.6 1.2-2.2 1.6-2.3 1.7.3-.2.9-1 1-1 1.3-1 1.6-1.2 3.5-2.6 1.1-.7q.2 0 .3-.2l.7-.4 1-.5 1-.5.7-.4 2.2-.9zm2.4 3.4-1.2 1.2-2.6 2.4-2.5 2.4-2.6 2.7-1 1-.6.8 1-1.5 2.4-2.7 1.2-1.3 1.3-1.4a30 30 0 0 1 3.9-3.3l.7-.5.5-.2.1-.1zm15 5.3.8-1 1.5-1.8.6-1q.3-.1.4-.4 0-.2.3-.5l1-2 .1-.3v-.1l.2-.1.1-.1h.6l.5.3-.6 1.1-.5.7-1.7 2.4-.6.7-.6.7-.3.3-.4.4-.7.4-.2.2z" fill="#fff"/><path d="M178.6 362.9v.5l.2.2.1.2.4.4.5.4.6.3.3.1.2.1q1.3.6 2.6.8h2l.6-.1.7-.1.7-.2.6-.1.3-.1.3-.1.6-.3.3-.2.4-.2.5-.3 1-.6h.3l.3.1 1.6.5h.6l.7-.1 2.2-1 2.8-1.7 1-.6.9-.5 1-.5.5-.3.4-.3.4-.3.4-.3.5-.4.3-.4.8-.8.3-.4.3-.4.7-.8 3-5v.1l.5-1.1.4-1.1.2-.6.1-.6.2-.5v-.6l.2-.7v-.3l.1-.6.1-.8.2-1.7v-.4l.1-.1.7-.1.3-.2.3-.1q.7-.4 1.2-1l.6-.6.4-.6v-.4l.2-.3v-1.7l-.1-.6-.2-.7v-.6l-.2-.4-.1-.5-.2-.7-.3-.9-.7-2.2q0-.6-.3-1l-.3-1q.8.7 1.3 1.7l.7 1 .7 1.5.8 1.5 1.4 3.3v.5a9 9 0 0 1 .3 2.7v2l.2 3.1.2 1 .2 1 .4 1 1 2 .2.4 1 1.2 1.5 1.3 1.1.6h.4l.2.1h.3l.8.1h.8l.3-.2.2.8.1.5.4 1 .2.5.8 1.2q0 .3.3.3l.3.2h.3l.2-.2.1-.4v-.6l.1-2v-2.7l-.1-.6-.1-.5-.1-.5-.5-2-.7-2-1.2-3.6q0-.8-.3-1.4l-.7-1.7-1-1.3-2.7-3.3-.5-.6-.6-.6-.4-.6-1.2-1.6-.4-.6-.7-1-.4-.5-.5-.4-1.4-1.5-.1-.1v-.1l-.4-.6-.4-.6-.7-1.3-.7-1.2-.3-.5 3 3.5 1.4 1.6 1.5 1.7 1 1.3.3.3.4.6 1 1.7 1 1.7 1.1 1.7 1.3 1.2 1.2 1.1.1.3.8 1.3.2.4.1.3 1 2 .9 1.3.9 1.3.2.3v.1h.1l.6.8.6.9.6.8.6.9 1.4 1.5 2.3 3.3.2.6v.4l.1 1 .2.2.5 1.3v.3l.8 3v5.5l-.1 1h-.1l-1.2-.8-.5-.4-.4-.4-.2-.2q0-.8-.4-1.4 0-.6-.3-1 0-.6-.3-1 0-.6-.3-1.1l-.2-.5v-.1l-.2-.4q0-.2-.2-.3h-.5l-.1.3v1.1l.2.7v.5l.2.5.1.3v.2l.3.5.1.3.1.2.6 1 .3.4.4 1.3.4 1q0 .6.3 1l.1.6.2.7.4 2.2v.2l.1 1 .1.7v2.8l-.1.4-.1.4-.6 2-.5.9-.3.5-.3.4-.5.7-1.2 1-1.3.7-1 .2h-.6l-1-.3-.7-.4-.7-.6-.2-.2-.3-.5-.4-1-.1-.5.2-.9v-3.3q-.3-1-.3-2l-.3-2.2v-.5l-.2-.7v-.4l-.2-.7v-.4l-.2-.6-.8-3-.5-2.3-.3-1-.3-1.2-.5-2-.4-1.7-.1-1-.1-.9v-.9l-.1-.8v-1.3l-.1-.3-.2-.1h-.3l-.1.2v.1l-.2.3v2.5l.3 1 .2 1 .2 1 .5 2.1.2 1 .2 1.2.2 1.1.2 1.1.3 2.1.4 2v1l.1.7.3 2.8.3 2.2v.4l.2.7v.4l.2.7.5 2.4v.2h-.1v.2h-.2l-.1.1h-.3l-.7-.2h-.6l-1-.2h-.5l-.4-.2-.4-.1-.7-.4-.8-.3-.8-.5-.4-.3-.4-.3-.5-.3-.3-.3-.4-.4-.4-.4-.8-1-.5-.6-.5-.6-.4-.7-.4-.5-.3-.6-.4-.7-1.6-3.7-.4-1.3-.3-.8-.1-.3-.1-.5-.2-.9-.1-1-.1-.7v-.3l.2-.6.1-.6.1-.4.2-.6.1-1v-.7l.1-.5.1-2v-1.2l.2-1.2v-1.1l.1-1.1.2-2q0-2.3.3-4.5l.2-3.3v-.6q-.1-.2-.4-.2l-.2.2-.1.2-.2.3-.6 1.5-.2.6-.2.6v.5l-.2.7-.1.4-.3 1.3-.1.9-.1 1-.3 2.2v.8l-.1.4v4.4l.1.9.1 1 .2 1.1.2 2-.6 2-.4.6-.1.1-.1.1h-.5v.4l.3.1h.3q.3 0 .4-.3.3 0 .4-.3 0-.2.3-.5l.3-.6.2 1.3v.6l.6 1.6.1.4 1.2 3 .4.8.2.4.2.4.2.5.2.4.4.6.2.3.6 1 .4.5.4.4.6.8.3.4.4.4.4.3.4.4.9.6a15 15 0 0 0 4.2 2h1.3l.1.1h.1l.4.2h.4a1 1 0 0 0 1-.3l.2.8.7 1.1.8.8 1.2.6a4 4 0 0 0 2.5 0 6 6 0 0 0 3.2-2.2l.4-.6.7-1.1.8-1.9v-.2l.1-.4.1-.5v-.5l.2-1.7v-1l-.1-.7-.2-1v-.5l-.2-.7-.2-1.1-.2-1-.3-1.1-.5-1.6.2.2 1.2 1 .2.1h.6l.3-.3.2-1v-2.2l.1-2a16 16 0 0 0-.6-4.4l-.4-1.7-.3-.7v-.2l-.1-.6v-.4q0-.9-.6-1.6 0-.3-.4-.6l-.5-.6-.9-1.2-1-1-.8-1-.8-1.1-.9-1.1-.8-1.1-1.7-2.6-.3-.4-.3-.5-.9-2-.4-.8-1-1.4-1.2-1-.6-.6-.9-1.2-1-1.8-.6-1-.5-.9-.6-.8-.6-.8-2.9-3.4-.7-.9-3.5-3.9-.2-.2-.2-.2-.4-.2h-.4q-.2.5.1 1l.4.6.4.6.1.2 1 1.5 1 1.7.8 1.2.4.3.7.6.6.7.2.1.2.4 1.3 2 .6.7.6.8.5.6.7.8 1.2 1.4 1 1.3.6.7.8 1.2.3.7v.2l.5 1.7v.1l.1.2.6 2.3.9 2.3.6 2 .4 3.5v3.2h-.1v.5l-.3-.5-.3-.6-.3-.7-.1-.4-.4-1.4-.1-.4-.2-.5h-.8l-.4.2h-1.7l-.2-.1-.5-.2-1-.7-2-2.3q-.3-.2-.3-.5l-.3-.5-.3-.7-.3-1-.3-.9v-.4l-.1-.6-.1-1v.1-.3l-.2-4-.3-2.8-.2-.4-.1-.6-1-2.3-1.2-2.3-.8-1.6-1-1.6q-.7-.6-1.2-1.4l-.6-.6-.3-.4-.3-.2q-.3-.2-.5.1t0 .7l.2.4.2.4.2.6.4 1 .3.9.5 1.9.6 1.7.2.5.1.6.2.9.1.6v.3l.1.3v2l-.6.7-1.1 1-.7.4-.4.1h-.3l-.3.2-.2.2-.2.6v.8l-.2 1.7-.2 1-.1.7-.2.8-.3 1.3-.2.5-.1.4-.4.8-.2.5-.4.7a35 35 0 0 1-3.3 5.1l-.7.8-.3.3-.5.5-.5.4-.2.2-.3.2-.5.4-.4.2-.9.5-1 .6-2 1-.8.6-1 .6-.9.5-.5.2-.4.2-.6.2h-1.4l-.8-.4-.5-.2h-.6l-.6.4-.4.2q-.2 0-.5.3l-.6.3-.3.2-.2.1-.3.1-.5.2h-.3l-.2.1-.5.1h-.5l-.4.2h-3.6l-.4-.2-2-.8-.5-.4-.1-.2-.1-.2-.2-.5.1-.4.2-.7 1-1.4a5 5 0 0 1 1.8-1.3h.1l1 .3 2 .1 1.3-.1 3-1 1.2-.4 1-.5 1.8-.8 2-1 .7-.3.7-.4.6-.3.6-.4 1.3-.9 1.2-.8q.3 0 .5-.3l.4-.3.3-.1.5-.4.3-.2.3-.3.7-.6.8-.7.5-.4.8-.7 1.6-1.7.8-1.6v-.4h-.6l-.3.2-.3.3-.9.7-3.3 2.7-1.7 1.4-1.5 1.2-.6.4-.8.6-1 .6h-.2l-.3.3-.6.3-1 .5-1.3.6-.6.3-.7.2-.5.2-.6.3-1 .3-1.1.3-2 .7q-.6 0-1 .3l-1.2.3-1.1.4q-.8 0-1.4.3h-.4l-.2-.3-.1-.2v-.3l-.1-.4v-.8l.4-1.6v-.5l.2-1.1q0-.7-.5-1.3l-.1-.3-.2-.3v-1.6l.2-.6.2-.6.7-2v.1l.4-.8.5-.8.8-1.5 1.6-3 .6-.2.5-.5.5-.2.5-.1h.6l1.4.1 1.2.2 2.1.3 1.2.1 1 .1 1 .1h4.3l3-.3v.1q.4.1.5-.1l-.1-.5h-.2l-.1-.2-1-.9-.6-.5-.5-.4-1.8-1.6-.8-.7-.5-.5-.4-.4-.3-.5-.3-.5-.3-1.2v-.9l.1-.2.1-.1.7-1 .2-.3.2-.4q0-.4.3-.7l.2-.4.6-.7 1-.7 1.4-.5.7-.1h1.3l1.3.4q.4 0 .8.3l.7.4 1.3 1 .3.3 1 1.1.2.3.1.2.3.2h.4l.3-.5v-.8l-.1-.4-.2-.5-.2-.7-.5-1.5-.4-1-.2-.7-.2-.5v-1.7l.2-.6a5 5 0 0 1 1.3-1.6l.5-.2.7-.2h.7l.8.3.6.4 1.8 1.3 1.6 1.3 1.8 1.2 2.3 1.8.1.2.2.2.4.4 1.4 1.7 1.1 1.7 3.5 5.2.6 1 .5.8 2 2.6.7.7 1.6 1.3 1 .6.5.3q.3 0 .5.3l.3.2.2.2.3.2 1 1 .4.8.2.4.2.3.2.8.9 2.4.8 2.2.3 1 .3 1 .7 2 .3.5.1.1.2.1h.3l.3-.1.2-.4.2-.7.1-.8v-1.1l-.1-.5-1-3.8-.6-1.7-.2-.4-.2-.6-.2-.4-.2-.4v-.1l-.1-.1-.1-.2v-.1l-.3-.5-.2-.3-.1-.3-.4-.6-.1-.2-.3-.3-.6-.8-.7-1-.6-.8-.6-.8-1.4-1.8-.7-.8-.3-.3-.3-.4-.1-.2v-.1h.1l.2-.2.5-.1 1.5-.6.9-.6 1.8-1.3 2.2-2.1.7-.8v-.1l1.9-1.8q.2-.1 0-.6a.4.4 0 0 0-.6 0l-1.3 1.1-1.1 1.3-.4.4-1.7 1.6-.5.5-.6.4-1.3 1-1.6.8-.4.1-.3.1-.4.3q-.3 0-.3.3l-.1.3.2.6.5.7 2.4 3 .3.4.7 1 1.3 1.7.3.5.4.5.6 1.1.6 1.2v.3l.3.4v.3l.2.3 1.4 4.8.1.4v2.5l-.1.1v.1l-.1-.1-.2-.5-.9-3-1-2.8-.4-1-.4-1-.1-.5-.2-.5-.2-.5-.2-.3-.1-.2q0-.2-.3-.5l-.8-1-1.2-1-1-.6-.3-.2q-.3 0-.5-.3l-.6-.3-.5-.4-.5-.4-.5-.4a20 20 0 0 1-3.2-4.2l-.8-1.3-1.2-1.8-1.2-1.8-1.1-1.7-.7-1-.6-1-1.3-1.6-1.6-1.3-1.7-1.2-1.7-1.3-2.6-2-.4-.3q-.6-.4-1.2-.4l-1-.1-1.2.3q-.6.4-1 1l-.6.7a3 3 0 0 0-.5 1.6v1.1l.1.5.2.7.6 1.5.6 1.6q0 .6.3 1.1v.7l-.6-.8-1.7-1.7-.5-.4-.2-.1-.4-.2-1.1-.5-.5-.2a7 7 0 0 0-2.4-.3 6 6 0 0 0-3.4 1.4 4 4 0 0 0-1.2 1.8l-.4.8-.6.9-.2.3-.2.5v1.7l.3 1 .6.7q0 .3.3.5l.4.4.4.3.4.4 1.6 1.4 1.2 1 .6.5.6.4.1.1-1.6.2h-1.4l-1 .1H197l-.7-.1-1.4-.1-.7-.1h-.6l-.7-.2-.8-.1-2.1-.4h-.6l-1-.2-1.2.2q-.6.1-1 .6l-.8 1-.5 1-1 1.8-1 1.9-1 2q-.3.4-.4.9l-.4 1.5-.1.5v1.2l.2 1 .3.5.1.3v.2q.2.2 0 .2v1.3l-.5 2.5.2 1v.2l.4.4-.3.2-1 .8q-.6.4-.9 1l-.8 1.8zm5-4.5.4-.1.6-.2 1-.3 2.2-.7 2.1-.6 1-.3.6-.2.4-.2.6-.2.3-.1 1-.4.6-.3.9-.4 1-.6 1-.5 1-.6.2-.1.6-.5.4-.2.4-.4.7-.5 1.9-1.5 2.8-2.2 2-1.7-.9 1.2-1 1.1-1.1.9-1 .9-1 .8-.5.3-.6.5-.9.6-2.2 1.4-.4.3-.7.4-1 .6-1 .4-.8.4-1.7.8-3.4 1.4-.3.1-1.2.4-.9.2-.5.1h-.2l-.3.1h-1.4zm28.7 0v-4.2l.1-.6v-.8l.2-.9v-.9l.2-.7.1-.9.2-.9.1-.7.3-1 .1-.5q0-.4.3-.8l.5-1.4v-.2q0 1.9-.3 3.8 0 2.3-.4 4.4 0 2.2-.3 4.4l-.2 2v2.2l-.2.6v.8l-.2.7-.2-1.4-.1-1-.1-1.2zm14.8 12.1-.2-1q0-1-.3-2l.4 1.5.3 1.2.2 1 .2 1v.7l.2.7v.8l.3 2.6.2 1.4.1 1.3v1.2-.2l-.3-1.1-.2-1v-.7l-.2-.7-.1-1-.2-1.8-.2-1.6v-.7l-.1-.5zm8.5-7.8.8 2.4-.2-.3-.1-.3-.1-.2-.2-.6v-.2l-.1-.3z" fill="#fff"/><path d="M213.4 283.9q0 .6.5 1.2l.8.7 1.4.3h1.3l.2-.1.5-.2-.3 1.8.1 1.3.2.4.4.6.8.5 1.1.5 2.2.4 2 .3 1 .2 2 .1 1-.1 2-.5.4-.1h.4l.3.3.2.2q.3 0 .5.3l.8.4q.6.2 1.3.2a22 22 0 0 0 4.4-.8l1-.4.5-.2h.2l.3-.2.4-.3h.3l.1-.2h.1l-.7 1.4-.2.5-.2.5a17 17 0 0 0-.7 4.2v.9l.3 1.8q0 .4.3.8v.3l.2.2.2.2.7 2.2.3 1 1.3 4 .8 2 .2.9.1 1v1.5l-.1.6-.2 1.5v3.6l-.1.9-.5 2v.1l-.2-.4-.2-.5-.5-1-.9-2-.9-2.1-.4-1-.6-1.2q-.2-.6-.8-1-.2-.4-.6-.3l-.3.1-.1.3.1.5 1.1 2.9.8 2 .8 2 .3.8.4.9.8 1.7.2 1v1.2l-.2.3-.3.4q-.1.2 0 .4v.1l.3-.1.3-.5.3-.4.1-.6v-1.2q0-.9-.6-1.8l-.4-1-1.7-4.3-1.3-3.4.4.8.8 1.6.4 1 1 1.9 1.3 3 .1.2.2.3h.5l.2-.4.2-.7.1-.3.1-.5.2-.7v-.5l.1-.5q.2-1.6.1-3.3v-.4l.1-.5v-.4l.2-.6v-.5l.1-.5v-1.5l-.2-1-.1-.5-.2-.5-.4-1q0-.5-.4-1v-.1l-1.4-4.2-.6-1.8-.2-.7v-.2l-.3-.4-.3-.8-.2-.5v-.2l-.1-.4v-.5l.1-2.9.3-1.2.3-1 .2-.7.3-.7.2-.3.2-.4 1.2-2 .2-.3.3-.3.8-.7.3-.3.5-.6.4-.9.4-1v-.4a.4.4 0 0 0-.5-.2l-.3.2-.5 1-.5.7-.6.7-1.2 1.6-.2.3-.7.5-.7.5-.3.2-.4.3-.4.1-.3.2-.3.1-1 .4-.8.2-2 .3-.7.1h-1.5l-.3-.1-1.1-.7-.2-.2-.2-.1-.2-.2h-.9l-.7.2h-.5l-.8.3-.8.1h-1.9l-1.2-.3-2.3-.3-1-.1-1-.3-1-.5-.2-.3-.2-.4-.2-.5.2-1.6.3-1 .3-.2.5-.1.6-.3.1-.1.3-.2h.3v-.3l.5-.3.5-.4.9-.6.3-.3.5-.4.7-.7.8-.8.8-.8 1.5-1.6.5-.5.2-.3.7-.8.6-.8.7-1 .3-.3.4-.6.5-.9.5-.8.3-.4.2-.4.4-.8.5-1.5.6-2v-.9l-.2-.1h-.4l-.2.2-.2.3-.2.2q0 .3-.3.5l-.7 1-1.2 1.6-2.5 3.8-1 1.9v-.1l-.3.6-.4.5-.8 1.2-.1.1-.3.4-.5.6q0 .3-.3.4l-.5.6-.6.6-.3.3-.3.3-.7.5-.8.6-.8.6-1 .7-1.2 1.1h-.1l-.6.2-.4.1h-.5l-.2.1h-1l-.7-.3-.4-.2-.3-.6-.3-1v-.8l.2-1.2v-.6l.2-.7.2-.6.3-1.2.2-.6.3-.8.3-.8v-.3l.7-1 .4-.6.3-.3 1.9-2.4.3-1 .2-.7.1-.5.2-.7.6-1.5 1.5-2.4 1.2-1 .6-.4 1.7-.6 3-.4 2.3-.2 1-.1 1.2-.2 6.4-1.3 1.4-.5 1.5-.5q.2-.2.1-.4 0-.3-.4-.2l-2.2.8-1.2.4-.8.2-.6.2-1.1.2-1.3.2-1.3.2-1.3.1-4.5.4-2.5.4a9 9 0 0 0-2.5 1 7 7 0 0 0-2 2 12 12 0 0 0-1.6 3.3v.4l-.2.5-.2.7-.2 1-.4.7-.4.5-.7.8-1.3 1.7-.7 1.5-.2.6-.4 1-.6 2.1v.5l-.2.5v.7zm8-.1-.5.2-.3.2h-.2l2.5-1.7.4-.3.4-.3.4-.5.4-.4.3-.3.5-.5.4-.5.2-.3.5-.6.2-.3.8-1.1.5-.8.4-.6 1-1.7.7-.9 2-3q.8-1.5 1.7-2.6l-1 3-.3.7-.4.7-.3.5-.8 1.1-.6 1-.3.4-.5.6-.6 1-.3.3-.4.4-3.3 3.4-.5.5-.7.6-.7.6-.4.3-.4.3-.6.4z" fill="#fff"/><path d="M197.6 201.5v3.6l.4 1.8.3.6.2.1.2.3.2.1.3.2.6.4 1.2.8 1.2.7 1.2.8 1.2.6.7.3.7.3.6.2.6.3 1 .3h.2l.5.2 1.5.4 1 .2 2.8.6.7.3 2 .7h-3.3l-.9-.2h-.1l-.5-.1h-.5l-.3-.1-.9-.2-1.2-.4h-.3l-.4-.2-.7-.2-1.4-.7-.6-.2-1-.5-.6-.3h-.2l-.3-.2-1.6-.8-.6-.4-.4-.2-.2-.2-.7-.4-.4-.3-1.1-.6h-.1l-.2-.1h-.4l-.2.5h-.2v.3l.2 1.7.2 1.4.2.7.1.7v.3l.2.3.2.7.2.6.3.7.2.3.2.3.1.3.2.3.2.3.2.3.2.2.7.8.5.5.5.5.5.6.6.5.5.4.4.4.8.6.5.3 1.8 1.2 1.3.8.5.3.6.4 1.3.7.7.4.2.1q.3 0 .5.3l1.2.5.6.3q.4 0 .7.3l.7.2.7.2.6.2 1.1.3.7.1.8.1.8.1h.8l.9.1h5.3l.6-.2.8-.2h.4l.3-.2.5-.1.3-.2.3-.2.9-.4v1l.4 2.4v.4l.8 1.9.4.6.3.6.2.2.2.3.2.2.2.3.4.4.6.5.5.4.6.4 1 .9 1 .9 1 1 1.5 1.3.4.2.3.2.7.4h.2l.5.3.6.3.6.2.7.3h.3l.5.2.5.1.7.2.8.2h.7l.6.2h.6l1 .2h3.5l1.4-.2h.7l.9-.2 1.2-.3 1.6-.3 2-.3 1-.2-1.4.7-.6.2-.4.2-.5.2-.7.1-.7.2-.8.2-.7.1h-.3l-.3.2-1.8.7q-1.2.5-2.3 1.2h-.3v.1h-.4l-.6-.2-.8-.3q-.6 0-1.2-.4l-.7-.2-3.5-.7h-1.6l-3 .2h-.7l-.8.2h-.6l-.8.1-.7.1h-.2l-.5.2-.7.1-.8.2-.6.1-.7.2-1.3.4-1.4.4-1.5.5-.5.1-3 1.5-1.4 1a8 8 0 0 0-1.5 2.2l-.2.6v.7l.2.3 2 1.8.3.2 1.2.8q.3 0 .4.2l3 1h.3l.4.2h.8l.3.1.7.1h1.4l2.7.2h2.9l1.3-.2.7-.1h1.5l.1.1.1-.1-.1-.2h-.1l-.4-.1h-.6l-.3-.1h-6.5l-1.7-.2h-.9l-.8-.1-.7-.1-.3-.1h-.5l-.8-.3h-.2l-.5-.2-.7-.3-.7-.3-1.7-.9-.3-.2-1.9-1.8v-.4a4 4 0 0 1 .9-1.6l1.8-1.7.4-.3a15 15 0 0 1 3.3-1.3l1.2-.4 1.8-.6 1.5-.3.6-.2.8-.2.6-.1.8-.2h.7l.7-.2h.8l.7-.1 1.5-.2h2.3l1-.1h1.4l1.3.3.7.2.7.2.8.2 1.4.5.7.2h1.2l.6-.4.4-.2 1.3-.6.9-.3.6-.2.4-.2h.4l2.5-.5.3-.1h.2l.5-.2.4-.2 1-.4.9-.4.6-.3h.1l.2-.2.1-.3-.1-.4-.4-.2-.4-.1h-.9l-.5.1-.5.1-2 .4-1.1.3-1 .2-1 .1-.4.1h-.6l-.9.2h-1.4l-1 .1h-1l-.5-.1h-.6l-.9-.2-.9-.2-.9-.1-.4-.2h-.5l-.9-.3-.4-.2-.5-.2-1-.5-.6-.2-1.7-1-2.3-2.2-1.8-1.6-.6-.4-.2-.2-.3-.2-.3-.3-.3-.2-.3-.4-.4-.5-.3-.4-.1-.2-.2-.3-.3-.5-.1-.3-.3-.5-.3-1.1-.1-.4-.1-.4-.1-.7-.2-1.3v-1.2l-.2-.2-.2-.1h-.2l-.5.2h-.2l-.6.4-.6.2-.5.2h-.3l-.3.2-.8.2h-5l-2.9-.1h-.4l-.4-.1-1.7-.4-.8-.2-.7-.3-.6-.2-2.2-1-1-.4-.4-.3-.5-.2-.7-.5-.6-.3-1.5-.9-1.3-.9-.7-.4-.8-.5-.8-.6-.2-.2-.5-.5-.3-.2-.4-.4-.2-.2-.4-.4-.9-.8-.4-.5-.3-.4-.4-.5-.1-.2-.2-.3-.2-.4-.2-.3-.2-.4-.2-.5-.2-.6-.2-.4v-.4l-.2-.6-.1-.5-.1-.6-.2-.7v-.6l-.3-1.4h.2l.5.2 1 .6.5.4.8.5.4.2 1.6.8.5.3.5.2 1.6.7.4.2 1 .4.4.1 1 .3.3.2 2.4.6h.6l.6.2h1.1l.5.1h.6l2.7-.1.2-.1v-.3l-.1-.2h-.1l-.2-.2-.3-.2q-.4 0-.8-.3l-.4-.1-.5-.2-1.3-.3-1-.3-1-.2-1.6-.3-1.1-.3h-.2l-.6-.4-.6-.3-.8-.2-.8-.3-1-.5-.5-.2-3-1.8-1.2-.7-1.2-.7-.2-.2-.4-.4h-.1l-.1-.3-.4-1.2v-6.5l.1-.5.5-2 .7-1.3 1-1.5 1.5-2.4.6 1.2.5 1 .9 1.3.4.6.3.5.2.2.9 1.6 1.3 2.4.5.9.2.3.9 1.5.2.4.6.8.7 1.2.4.5.3.6.5.6.1.2.4.4q0 .3.3.5l.2.1.2.3.4.4.5.4 1.5 1.1.7.5q.2.2.4 0l.1-.3v-.2l-.3-.4-.2-.3-.6-1-.1-.2-.4-.5-1.7-2.4-.8-1.2-.4-.5-.4-.5-3.1-5-.8-1.3-.4-.7-.4-.7-.4-.7-.4-.7-.4-.7-.1-.4-.2-.4-.3-.6-.2-.6-1.2-3.7-.2-.7v-.3l-.2-.4v-.6l-.2-.6-.1-1.3.6.7 2.7 2.2 2.2 1 2.3.4h1l1.6.2h.3l.3.1h.7l.4.2.8.1 1.1.3.7.2 1 .4 1.7.8 1 .6.2.2.7.5.5.4.3.2.5.5 1.6 2 .7 1.7.2.7.1.5.1.6q.3 1.6.2 3.3l.2 1.5.5.8.3.3.4.2.4.1 1.1.4 1.8 1 .2.1.6 1 .3.5.1.2.6 1.5q.1.8.4 1.3l.1.8-.1.7-.1.1v.1l-.4.2-.3.2-.4.1-2 .5-1.6.6q-.4 0-.8.4l-2.2 1.7-.7.7-.4.5-.5.6a6 6 0 0 0-.9 2v.3l.1.5.3.1h1.1l.7-.3 2-1 2.3-1 1.3-.7.5-.3.6-.3.7-.4.4-.4q.3 0 .5-.3l.7-.6.4-.3.5-.4.5-.5.6-.4.5-.4.4-.3.4-.3.6-.3.7-.4.7-.3h.4l.4-.2.6-.2 1.8-.2 1.9.2 2.1.6 1.8 1 1 .8.2.2.4.4.5.5.4.4 2.6 3.2.5.7.2.4.2.4.4.7.3.6.5 1.2.2.4 1.3 1.8.2.2.3.3.3.2.3.2.6.3.2.2.4.2h.7l.2-.2v-.2l.1-.1v-1.1l-.5-.8q-.2-.6-.6-1l-.7-1.1-.4-.5q0-.3-.3-.5l-.4-.7-.2-.4-.2-.5-.3-1.2v-.7l.1-.1.1-.1h.1l.2-.1 1-.3.8-.2.7-.4.3-.3.4-.4.7-.6.7-.3h1.9l1.4.2 1.3.4.7.2 1.3.6q.3 0 .5.3l1.2.6 2.2 1.1.6.5.8.5.7.6 2.5 2.1.9.7.4.4q.3 0 .5.3l2.7 2.7 1.1 1.2 1 1.1.6.7.5.7.4.5 1.3 1.9q.1.2.4.1t.2-.5a30 30 0 0 0-3.2-4.5l-3-3.1-.6-.6-.5-.5-2.1-1.7-1.2-1-1-.9-.6-.4-.6-.5-1-.8-.4-.2-.3-.2q-.3 0-.5-.3-.8-.3-1.3-.7l-1.4-.7-.4-.2-.6-.3-.4-.1-.5-.2-.5-.2-.4-.1-.6-.2a11 11 0 0 0-3.5-.5l-1.6.5-.5.4-.5.4-.4.5-.4.3-.3.1h-.1l-1.7.5-.8.6v.2l-.2.2v.7l.3 1.3.3.6.3.5.2.4.2.4.3.5.4.5.5.8 1 1.3.3.8v.2-.1.3l-.6-.2-.5-.3-.3-.2-.3-.3-.3-.3-.2-.1v-.2l-.8-1-.3-.5-.2-.4-.1-.4-.3-.6-.3-.6-.2-.5-.2-.4-.4-.7-.3-.4-.3-.5h-.1l-.2-.4-.3-.3-.8-1-1-1.2-.2-.2-.3-.4-.5-.5-.4-.4-.5-.5-.6-.5-1.4-1a9 9 0 0 0-4-1.2h-1.7l-1.4.2-.5.1-.3.1-.7.3-.4.1-.3.2h-.2l-.5.3-.4.2-.5.3-.1.1-.4.2-.8.7-.6.5-.7.5-.7.6-.4.3-.3.3-.8.6q-.2 0-.3.2-.2 0-.5.3l-.8.4-.2.1-.6.3-1.6.8-1.5.7-2 1-.8.3h-.2v-.1l.2-.6.6-1 .8-1 .7-.7 2.3-1.8 1.9-.7 1.6-.4.8-.2.3-.2.3-.2q.2 0 .3-.2l.2-.2.2-.2.1-.3.2-1.1v-.3l-.1-.2v-.2l-1-2.5-.2-.6-.1-.3-.2-.4-.8-1-.3-.3-.4-.2-.6-.4-1.3-.5-1-.4-.6-.3-.2-.1v-.2l-.1-.1v-.2l-.2-1.5v-1.4l-.5-3-.3-.8a9 9 0 0 0-1.8-3.1l-1.8-1.8-.4-.3-.7-.5-.7-.4-2.5-1.2-1-.4h-.4l-.5-.2-.6-.2h-.2l-1-.2h-.4l-.7-.1-2.8-.3-2-.3-2.2-.8a10 10 0 0 1-2.2-1.8l-.7-.8-.3-.3-.4-.4-.3-.2h-.4l-.1.2v1.3l.2 1.4q0 .8.3 1.4l.1.6.2.7 1.4 4 .3.6.3.7.3.7.4.7.7 1.1 1.3 2.4 1.6 2.5.6 1.1.9 1.3.5.8 2.8 3.9.6.8.5.7-.4-.2-.7-.6-.4-.6-.5-.4-.3-.4-.3-.3-.4-.6-.5-.7-.4-.6-1-1.4-.4-.7-.4-.6-1-1.5-1-2-.8-1.4-.5-.9-.6-1-.9-1.2-.7-1-.5-1-.8-1.3v-.6l-.3-.2h-.3l-.1.1-.3.4-.3.4-.7.9-.6.9-.4.6-.5.7-.3.6-1 2.7-.2.8v1.8z" fill="#fff"/><path d="m268.5 208 .4 2.2 1.4 2.5.5.8.5.6.8 1.2 2 2.9.3.5.2.2.2.3.1.1v.1h.1v.1l.2.2.6.7.4.5 4.6 5.3.7.8.6.8.6.8.5.7q0 .3.4.6l.4.8.7 1.4 3.5 6.6.5.8 1.8 2q.3.4.8.6h.7q.3-.1.3-.5l-.1-.4-.2-.4-.2-.3-.4-.8-.4-.7-.8-1.4-2-2.5-.2-.4-.3-.4-.6-.9-.3-.3-.3-.6-.2-.3-.3-.5-.3-.5-.2-.4-.1-.2h-.2v.1l-.3-.4-.3-.6-.3-.6-.5-.8-.4-.4-.4-.7-.7-.8v-.1l-.5-.6-.4-.5-1.1-1.3-3.8-4.2-.6-.7-.7-1-.9-1.2-1-1.4-1.8-2.7-1.2-1.8-.7-1.7a7 7 0 0 1 0-3.5l.4-.7.4-.5.5-.4.4-.3h.2l1.3-.5.6-.1.1-.4-.1-.4-.5-1a7 7 0 0 1-.2-2.4l.2-.8 1-1.3.5-.5.6-.4.3-.2.3-.3 1-.5.4-.2.6-.3.5-.2 1.5-.4h2.4a10 10 0 0 1 3 .9l.9.3.5.1 1.2.3.2.1a5 5 0 0 1 1.5 1.4 12 12 0 0 1 1.8 3.3l.5 1.2.3.8.3 1 .4 1.3.2.6.4 1.7.3 1.4 1.5 6.6q0 .8.3 1.4 0 1 .4 2l.2 1.2.2 1.3v.4l.4 2.8.1 1.4v.9l.3 1.5.2.3.2.1q.3 0 .3-.2v-1.9l-.1-1.5-.2-1v-.6l-.2-.7v-.5l-.1-1.1v-.5l-.2-1.9v-.6l-.3-1.2-.1-1.6v-.6l-.1-.9v-1l-.1-1.8v-8.5l.2-.5v-.5l.2-.6.4-1.1.8-1 2-1.5.7-.5.7-.8.6-1 .7-.7.6-.3 1.2-.2h1.3l.8-.1 1.1-.4.6-.2 1.2-.4h1l1 .3a6 6 0 0 1 2.6 2.2l.6.8.2.3q0 .3.3.5l.5 1 .5 1 1.4 3.6q.1.3.5.2.3-.1.2-.5l-.6-1.7-.1-.1-1.7-3.7-.4-.6-.2-.4-.2-.3-.3-.4-.6-.7a7 7 0 0 0-2-1.6 5 5 0 0 0-3.4-.3l-.9.3q-.5 0-.8.3l-.6.2-.7.1h-2q-.6 0-1 .4-1 .5-1.6 1.4l-.7 1-.4.5-.3.2-.8.4-.4.3a7 7 0 0 0-2.2 2l-.5 1.5-.1.4v.5l-.1.2-.1.6-.1 1.6v8.6l.1 1.2-1.2-5.5v-.3l-.3-1-.4-1.8-.2-.5q0-.6-.3-1l-.6-1.8a31 31 0 0 0-2.5-5.1 6 6 0 0 0-2-1.7l-.5-.3h-.7l-.7-.2-.3-.1-1.8-.7-2-.4h-.4l-.7-.1-2.2.2-1 .4-.8.4-.3.1-.4.2-.7.4-.5.4q-.3 0-.6.4l-1 .8-1 1.4-.2.8v1.7l.1 1q.1.6.5 1.2h-.4l-.7.2-.9.5-.3.3-.5.4q-.4.3-.6.8l-.5 1zm19.7 28.9-.8-1.5-1.4-2.9.2.3.5.9.5.7.4.6.9 1.3.5.7.5.7.5.8.2.3.2.4.6 1 .5 1.3-.7-.7-1.5-1.9-.4-.6z" fill="#fff"/><path d="M292.5 246h.5l1.3-1.2.4-.4 1-.6.6-.2 1-.4 2.4-.4h2.2l.1.1h.2l2.9.5 2.9.6 2.8.7.7.1.5.1h.3l.8.2h.7l1.6.3h4.3l.9-.2.3-.1.5-.1.7-.2.7-.3 1.3-.6.3-.2.5-.3 1.3-1.1.5-.6 1.3-1.8.5-.6.4-.8 1-2 .2-.4.1-.4.2-.4a11 11 0 0 0 .4-3l-.3-2q0-.6-.3-1.1l-1-2.7-.3-.7-.4-.8-.1-.2-.2-.5-.4-.6a8 8 0 0 0-2.2-2.6l-1.5-1-1.1-.7-.3-.3v-.2l-.3-.7-.2-.6-.6-1.4-.5-.7-.8-.4h-.7l-.5.5-1.1 1.6v.1l-.8 1.4-1.9 4.1-.6 1.4-.5 1.2-.5 1.3-.6 1.2-.1.3-.4.7-.2.4-.2.3-.6 1-.7 1.3-.3.4-.5.6-.4.6.2-.4.6-1.2.7-1.3 1.3-2.8.7-1.6.6-1.4.5-1.1.4-1 .2-.5.6-1.6.2-.5.2-.7.4-1 .1-.4.5-1.7.1-.4.2-1 .1-.4v-.2l.2-.8.1-.8.1-.6.2-1.4v-1l.1-.7.2-1.6V203l-.2-1.1-.2-1-.3-.7h-.3v.2l.2.5.2.8.1 1.5v4.5l-.2.9v.4l-.2 1.9-.2 1.4-.2 1.2-.2.6v.4l-.4 1.4-.5 1.6v.4l-.4.9-.4 1.2-.7 1.8v.2l-.7 1.5-.5 1.2-.6 1.3-.7 1.5-1.3 2.8-.7 1.4-1.2 2.3-.5.7-.3.5v.2l-.1.2v.2q.1.3.5.2l.3-.2.3-.2.5-.6.7-.8.8-1 .5-.6.2-.4.5-.7.3-.4.8-1.4q0-.2.3-.5l.4-.9.2-.5.5-.8.2-.6.3-.6 3.1-6.9.3-.6 1.3-2 .2-.3h.4l.4.3.6 1.1.4 1q.2.8.6 1.3.6.7 1.4 1l.7.5.7.5a7 7 0 0 1 2.2 2.7l.3.5.2.6.3.6 1.5 4.2.3 2-.3 2.4-.2.8-.1.3-.2.6-.6 1.2-1.2 1.8-1 1.4-.2.3-.2.2-.7.7-.5.5-.6.4-.4.2-.5.3-.3.1-.6.3h-.3l-.7.3h-.5l-.4.2-.8.1-1 .1h-3.1l-.9-.2h.1-.6l-.8-.1-.8-.2-.8-.1-.6-.1-2.9-.7-2.9-.6-3-.5H301a12 12 0 0 0-4.9.9 9 9 0 0 0-3.7 2.6v.2z" fill="#fff"/><path d="m264 271.9.1.5.4.4.5.2a2 2 0 0 0 1.3 0l.6-.3.8-.4.5-.2.5-.3h.1l.2.2.3.3.7.4.7.2h.9l1-.3q.4 0 .7-.3l1.5-.8.2 1 .3.9.4 1 .2 1.2v.6l-.3 1-.3.6-.7.6-1 .6-1.8.4h-.8l-.4.2q0 .3.3.4h.2l1.9-.1q.7-.2 1.3-.6.8-.3 1.3-1t.8-1.5a5 5 0 0 0-.2-3l-.3-.7-.2-.8-.1-.4-.2-.7-.1-.4-.4-.1-.3.1-.2.1-1.6 1h-.3l-.5.3-1 .1h-.6l-.4-.3-.4-.4-.3-.3-.3-.1h-.3l-.7.2-.3.2-1.2.6-.8.2h-.6l-.1-.1-.3-.2v-.8l.2-.7.2-.4.1-.4.4-.8.4-.9.4-.7.5-.8.5-1 2.1-3 .6-.9 2.3-2.3.5-.3.4-.3 1-.6.5-.3.5-.3 1.6-.7 1.3.2 1.4.1h1q.3 0 .5-.2.2 0 .2-.2l-.1-.3-.2-.2-.4-.1-.8-.3a6 6 0 0 0-3.1.2h-.2l-2-.7h-.2a18 18 0 0 1-4.3-2.8l-.4-.5v-.2l-.1-.3v-.3l.3-.5.2-.4.9-1.2 1.1-1.5q.2 0 .3-.4l.5-.6q.3-.4.1-1l-.3-.2h-.4l-.7-.1h-.1v-.1h-.1v-.2l.8-1 .4-.4.4-.3 1.3-.9.2-.2.3-.1.7-.3.6-.3 1-.4 2-.2 3 .3h.6l.5.2 2 .5.9.4q.5 0 .8.3l.7.2.5.3.4.1.4.3.5.2.7.5.7.5.6.4.5.5.8 1 .3-.1v-.6l-.4-.5q0-.3-.4-.5l-.5-.5q-.8-.9-2-1.6l-1.1-.6-.6-.3-.7-.3-.6-.2-.6-.2-1.2-.4-.8-.3-.6-.1-.4-.1-1.8-.3h-1.7l-2.4.2-2 .8h-.3q-.1.2-.4.3l-.6.3-1 .8-1 .9h-.1l-.1.1-1 1.4v.4l.2.4.3.3h.4l.8.2v.1l-.8 1-.4.6-.4.5-.8 1q0 .3-.3.5l-.7 1.3q-.1.8.2 1.4l.6.7.5.4a14 14 0 0 0 3 1.8l1 .5 1.5.5-.3.1-1 .6-.6.3-.7.4-.3.2-.4.3-.5.3-.8.7-1.5 1.7-.7 1-.4.5-.3.4a55 55 0 0 0-3.5 6.3z" fill="#fff"/><path d="m243.4 231.5.2.2 1.6.8 3.5 1.3.6.2h.3l1.2.3.8.2.8.2 1.2.2h1.4v.1h2.8l.6-.1h.5l.4-.1.9-.2 1.9-.3 3.8-.9 1-.1.6-.1h1.9l-.2.2a13 13 0 0 0-2.2 3.6l-.2 1-.2 1.3v.3l.1.3.4.8.8 1.3.8.9v.1h-.7l-2.2.2h-.4l-.9.3-.8.3-3.2 1.3-1.3.7-1.3.6-.3.2-.3.2-.3.2-.2.1-.2.2-.3.3-.3.3-.4.3-1.4 1.9-.7 1-.2.2-.4.4-1.5 1-.4.4-.1.1-.3.2-.1.2-.2.2-.4.4-.2.3-.3.3-.4.5-.2.4-1 1.7-.8 1-.8 1.4-.3.5-1.3 2.5-.2.5-.2.5-.2.8-.1.8v.5l.2.6a2 2 0 0 0 1 .9h.3l2.3.4 1.6-.2-.2.8-.3 1-.3.9-.2 1-.2.9-.1 1v.5l-.1.4v3l.1.5v.4l.2.5.1.5.1.4.7 1.6 1.3 1.9.2.2.1.2q.3 0 .4.3l.4.3 1.4.8 1 .2.9.2.4.1h.6l1 .1h4.8l1.8-.3 2.4-.6a10 10 0 0 0 2.7-1.6l.3-.3.4-.4.3-.3.4-.5.1-.1.4-.4.3-.6.3-.4.2-.3.1-.3.1-.2q0-.3-.2-.2l-.2.2q0 .2-.2.3l-.4.6-.2.2-.2.3-.5.5-.3.3-.2.3h-.1l-.3.3-1.6 1.1-1.1.6-2.6.7-1.2.1-.6.1h-.7l-4 .1h-.7l-.8-.1-.6-.1-1.7-.5-1.1-.6-.6-.5-.3-.3-.1-.2-.6-.6-1.1-2.2-.1-.4-.2-.5v-.4l-.2-.5v-.8l-.1-.3v-2.6l.1-.8.2-.8v-.6l.2-.7.2-.8.3-.8.2-.9.3-.7.1-.4.1-.2h.2l.2-.2.8-.5 1-.8 1.7-1.9.6-1v-1q0-.3-.3-.5l-.3-.1h-.5l-.3.2-.8.6-.1.2-.4.4-.6.8-.2.3-.3.4-.2.4-.4.5-.4.9-.2.3-.2.5v.1l-1.2.4h-1.6l-.3-.1-.5-.1h-.1l-.8-.4h-.2l-.1-.2-.1-.2-.1-.1-.1-.4v-.4l.2-.7v-.4l.3-.6.3-.6 1.1-2.3.4-.6.8-1.3.7-1 .4-.7.4-.6.4-.7.2-.3.2-.3.5-.6.3-.3.3-.3.4-.3.4-.4 2-1.5.4-.5q0-.3.3-.5l.3-.5.4-.6.4-.4.5-.6.4-.4.5-.4.3-.2.2-.2.3-.2.3-.2 1.2-.5 1.2-.7 1.3-.6 1.3-.5.5-.2.5-.2 1-.3.3-.1.4-.1.7-.1.6-.1h2.3l.2-.5v-.2l-.3-.3-.4-.6-.5-.6-.9-1.6v-.4l-.1-.2v-.3l.1-.8.2-.5.3-1 .3-.7 1.6-2.2.3-.4v-.5q0-.3-.4-.4l-.9-.2h-.5l-2.3.3-1.9.4-2.7.6-.6.1-.9.2-1.2.2h-1l-.2.1h-3.9l-.6-.2h-.7l-1.3-.3-1.3-.4-2-.6-3.6-1.4 1.4-.2h4.5l4 .2h1l1 .1 1.8.2 1.9.1 2 .1h3.7l2.9-.4h.4l.3-.2.2-.4v-.2l-.2-.8-.5-.7-.5-.6-.8-1.1-.5-.7-.1-.1v-.1h.4l.6.2 1.4.7.5.2.6.3 1.2.3h.8l.6.1h.6l.7.1.3.1 1.8.6.9.3.7.5.5.4.4.2.4.4.6.5.6.4.6.5.1.2 1.4 1.4 1 1.4 1.5 1.7 1.7 1.5 1.8 1.5h.5q.2-.3 0-.6l-1.7-1.4-1.8-1.6-.7-.8-.7-.8-.2-.3-1.6-2-.4-.4-.4-.4-1-.9-.8-.5-.5-.4-.3-.2-1-.7-2-.9-.7-.1-.3-.1-.5-.1h-.6l-1.3-.3h-.5l-1.2-.4-.4-.1-.2-.1-.4-.2-.4-.2-.6-.3-.8-.4-1-.2h-.5l-.2.2-.2.2v.6l.2.4.4.5 1 1.2.4.7.6.9v.3l-.8.2-2.8.3h-4.6l-1-.1-1-.1-2-.2-1.9-.2h-3.9l-1.7-.2h-2.3l-2.6.4-.4.2-.2.4zm7.4 34.7v-.2l.3-.5.3-.6.5-.7.2-.3.3-.4.3-.4.3-.3.2-.2.2-.2.5-.4h.3v.6a7 7 0 0 1-1.5 2l-.8.8-.6.5q-.3 0-.5.3" fill="#fff"/></g></svg>