<svg viewBox="0 0 365.3 135" version="1.0" xml:space="preserve" xmlns="http://www.w3.org/2000/svg"><defs><clipPath id="b"><path d="M1 0h362.5v134H1Zm0 0"/></clipPath><clipPath id="e"><path d="M14 15h347.3v117H14Zm0 0"/></clipPath><clipPath id="f"><path d="M357.5 104.9a23 23 0 0 1-22.3 22.5H23.5q-5 0-9.4-2 5.7 6.2 15.6 6.3h310.9c11.3 0 20.7-9.4 20.7-20.7V28.6c0-5.2-2-9.9-5-13.5q1.2 3.6 1.2 7.4Zm0 0"/></clipPath><clipPath id="g"><path d="M2.5 1.6h353.1v124H2.6Zm0 0"/></clipPath><clipPath id="h"><path d="M23.5 125.6h311.3c11.4 0 20.7-9.4 20.7-20.7V22.5c0-11.3-9.3-20.7-20.7-20.7H23.5A21 21 0 0 0 2.8 22.5v82.4c0 11.5 9.3 20.7 20.7 20.7m0 0"/></clipPath><clipPath id="i"><path d="M1 0h361.9v133.5H.9Zm0 0"/></clipPath><clipPath id="j"><path d="M353.9 10.6c-4-6.3-11-10.6-19-10.6H23.4C11 0 1 10 1 22.5v82.4c0 7.4 3.6 13.8 9 18a23 23 0 0 0 20 10.6h310.4c12.4 0 22.5-10 22.5-22.5V28.6c0-7.4-3.6-13.8-9-18M2.8 105V22.5C2.8 11.2 12 1.8 23.5 1.8h311.3c11.4 0 20.7 9.4 20.7 20.7v82.4c0 11.3-9.3 20.7-20.7 20.7H23.5a20.7 20.7 0 0 1-20.7-20.7m358.5 6.1a21 21 0 0 1-21 20.7H30q-10.1-.2-15.7-6.3 4.3 2 9.4 2H335a22.5 22.5 0 0 0 22.5-22.5V22.5q0-3.8-1.3-7.4 4.8 5.6 5 13.5Zm0 0"/></clipPath><clipPath id="c"><path d="M0 0h364v134H0z"/></clipPath><filter x="0" y="0" width="1" height="1" id="a"><feColorMatrix values="0 0 0 0 1 0 0 0 0 1 0 0 0 0 1 0 0 0 1 0" color-interpolation-filters="sRGB"/></filter><mask id="d"><g filter="url(#a)"><path fill-opacity=".8" d="M-36.5-13.5h438.3v162H-36.5z"/></g></mask></defs><g clip-path="url(#b)" transform="matrix(1 0 0 .98882 0 1.5)"><g clip-path="url(#c)" mask="url(#d)"><g clip-path="url(#e)"><g clip-path="url(#f)"><path fill="#fff" d="M1 0h361.9v133.5H.9Zm0 0" fill-opacity=".8"/></g></g><g clip-path="url(#g)"><g clip-path="url(#h)"><path fill="#fff" d="M1 0h361.9v133.5H.9Zm0 0" fill-opacity=".7"/></g></g><g clip-path="url(#i)" transform="matrix(1 0 0 .98769 0 .8)"><g clip-path="url(#j)"><path d="M1 0h361.9v133.5H.9Zm0 0"/></g></g></g></g><path d="M240.7 113.3v1.7h-13V95.6h12.7v1.7h-10.9v7h9.5v1.6h-9.5v7.4zm7.8 2q-1.7 0-3.2-.6t-2.6-1.7l.7-1.4q1.2 1.1 2.4 1.7 1.3.5 2.6.5a5 5 0 0 0 2.7-.8q1-.5 1-2 0-.8-.4-1.2-.6-.5-1.5-.7l-2.2-.7q-1.5-.3-2.5-.8t-1.5-1.1a3 3 0 0 1-.5-1.8q0-1.4.7-2.3t1.9-1.4 2.7-.5q1.6 0 3 .5 1.2.6 2 1.5l-1 1.3q-.6-.9-1.8-1.3a6 6 0 0 0-4-.2l-1.2.7a2 2 0 0 0-.5 1.5q0 .8.4 1.2t1.2.7l1.8.6 2.9.9q1.2.5 1.8 1.2t.7 2q0 2-1.5 3-1.6 1.3-4.1 1.3m15.4-1.1-.7.3-1.2.4-1.3.2q-.8 0-1.5-.3t-1.2-1-.4-1.5v-10.1h-2v-1.5h2V96h1.9v4.8h3.3v1.4h-3.3v9.8q0 .8.6 1.2t1.1.3q.8 0 1.4-.2l.8-.4zm2.1.7v-2.7h1.6v2.7Zm11.5 0 .2-1.9.6-1.8q.5-1 1.4-1.8l2.3-1.7 3.3-1.6q.8-.5 1.2-1.1t.4-1.5q0-.7-.4-1.3-.3-.7-1.2-1-.8-.6-2-.5a5 5 0 0 0-2.8.9l-1 .7-.6.6-1.1-1.3.5-.6a9 9 0 0 1 3-1.6 7 7 0 0 1 5.2.2q1.2.7 1.8 1.6t.6 2.1-.5 2l-1.1 1.3q-.7.7-1.6 1l-1.4.9-2.3 1.1a7 7 0 0 0-2.2 2.3l-.4 1.2h9.9v1.8Zm28.2-8q0 2.4-.9 4.3a7 7 0 0 1-2.3 2.9q-1.5 1-3.5 1a6 6 0 0 1-3.6-1q-1.5-1-2.4-3a10 10 0 0 1-1-4.2q0-2.4.9-4.3a8 8 0 0 1 2.4-3 6 6 0 0 1 3.6-1 6 6 0 0 1 3.5 1q1.5 1.2 2.4 3 .9 2 .9 4.3m-1.9 0q0-2-.6-3.4-.6-1.5-1.8-2.3-1.1-.9-2.5-.8-1.5 0-2.7.8-1 .8-1.7 2.3t-.6 3.4.6 3.4 1.8 2.3q1 .9 2.6.8 1.5 0 2.5-.8 1.2-.8 1.8-2.3t.6-3.4m14.4 6.3v1.7h-9.1v-1.7h3.9v-11.7l-.7.7-1.2.7-1.3.6-1.2.2V102l1.3-.3a11 11 0 0 0 3.1-2.3h2v14Zm8 5.7a7 7 0 0 1-6.2-3.5l1.2-1a6 6 0 0 0 2 2.2 5 5 0 0 0 5.4.2 5 5 0 0 0 2.4-4.2 4.4 4.4 0 0 0-4.7-4.5q-1.2 0-2.4.5-1 .7-1.8 1.6h-1.7l2.1-10.9h9.5v1.7h-8l-1.3 7q.6-.8 1.7-1.2a7 7 0 0 1 5.5.4 6 6 0 0 1 3 5.4 6 6 0 0 1-3.4 5.6 7 7 0 0 1-3.2.8m0 0"/><g fill="none" stroke="#000"><g transform="translate(19.3 10)scale(.12327)"><circle stroke-width="26" cx="302.9" cy="310.1" r="269.5"/><g stroke-width="16.3"><path stroke-dashoffset="20" d="m409.4 251.7 45-66.3-12-58-33.7-28.9 18.2 37.5-5.6 43.3-57.4 57.8zm-44.5-14.2-40.3-12.2-24.6-.5m108.8 27.3 20.7 56.7-8.2 41-56.2 74.3 1.5 70.9-17.8 24.5-42.1-.7m102.5-267.3 97.6 95.2-77.7-37.6m-232.6-57.5-45-66.3 11.9-58 33.8-28.8L179 136l5.5 43.3 57.5 57.8zm44.3-14.1 40.3-12.2 24.6-.5m-108.8 27.3-20.5 56.8 8.1 41 56.3 74.3-1.5 70.9 17.7 24.5 42.2-.7m-5.6 0h20.8M196.6 251.6 99 346.8l77.7-37.6"/><path d="m245.4 426.3 24 87M358 432l-21.6 81.7m-90.4-85 113.9.2"/></g><path stroke-width="26" d="M77.8 467.6 537 182.8"/></g><path d="M2764.3 129.3V-39h10.3l120.1 153.3h-5.5V-39.1h12.3v168.4h-10.1L2771-24h5.6v153.3zm241.1 1q-18 0-32.2-8.2-14-8.2-22.4-22.6-8.2-14.5-8.2-33 0-18.8 8.2-33 8.4-14.4 22.4-22.6 14.2-8.2 32.2-8.2t32.3 8.2 22.3 22.6q8.2 14.2 8.2 33 0 18.5-8.2 33t-22.3 22.6-32.3 8.2zm0-10.8q14.5 0 26-6.5 11.6-6.8 18-18.8 6.6-12 6.6-27.7 0-15.9-6.5-27.7-6.5-12-18-18.5-11.6-6.7-26-6.7t-26 6.7q-11.4 6.5-18.1 18.5-6.5 11.8-6.5 27.7 0 15.7 6.5 27.7 6.7 12 18 18.8 11.6 6.5 26 6.5zm165.8 9.8V-39h70.3q27.2 0 42.6 11t15.4 32q0 13.8-6.5 23.1t-18 14.2q-11.4 4.6-25.6 4.6l4.4-4.8q17.3 0 29.6 5 12.2 5.1 18.5 14.7 6.5 9.7 6.5 24.1 0 21.2-15.4 33-15.4 11.5-46.7 11.5zm12.3-10.6h62.8q24.3 0 37-8.2 12.8-8.4 12.8-26.7 0-18-12.7-26.2-12.8-8.4-37-8.4H3182V38.6h59q21.8 0 33.8-8.4t12-25.3q0-16.6-12-25t-33.9-8.4h-57.5zm213 11.8q-18.8 0-35.6-6.2-16.7-6.5-25.8-16.6l5.5-9.2q8.7 9 23.6 15.2 15.2 6 32 6t27.5-4.3q10.8-4.6 15.8-12 5.3-7.5 5.3-16.7 0-10.8-5.7-17.3t-15.2-10.3-20.5-6.5l-22.3-5.6q-11.3-3.1-20.7-8-9.4-4.7-15.2-13-5.5-8.3-5.5-21.6 0-12 6.2-22.1t19.5-16.4 34-6.2q14 0 27.4 4 13.7 4.1 23.3 11.1l-4.5 9.9q-10.6-7.2-22.9-10.6-12-3.6-23.3-3.6-16.2 0-26.8 4.6-10.5 4.5-15.6 12.2-5 7.5-5 16.9 0 10.8 5.5 17.3 5.8 6.5 15.1 10.4 9.4 3.8 20.7 6.5 11.3 2.6 22.4 5.7 11 3 20.5 7.7t15.1 13 5.8 21.2q0 11.8-6.5 22.1-6.5 10.1-20 16.4-13.2 6-34.1 6zm-600 307.9V281H2736v-11h133.6v11h-60.7v157.4zm137.2.9q-19 0-33.7-8.1-14.4-8.2-22.8-22.7-8.2-14.4-8.2-33t7.7-32.9q8-14.4 21.6-22.6 13.8-8.2 30.8-8.2 17.1 0 30.6 8 13.7 7.9 21.4 22.3 8 14.2 8 33 0 .7-.3 1.7v1.7h-111V369h104.5l-4.8 4.5q.2-14.6-6.2-26.2-6.3-11.8-17.1-18.3-10.9-6.7-25-6.7t-25 6.7q-11 6.5-17.2 18.3-6.2 11.6-6.2 26.5v2.2q0 15.4 6.7 27.4 7 11.8 19 18.5 12 6.5 27.5 6.5 12 0 22.3-4.3 10.6-4.3 17.8-13.3l7 8q-8.2 10.1-20.7 15.4-12.2 5-26.7 5zm142.5 0q-18.3 0-32.8-8.1-14.2-8.2-22.6-22.7-8.2-14.4-8.2-33t8.2-33.1q8.4-14.5 22.6-22.4 14.5-8.2 32.8-8.2 15.1 0 27.4 5.8 12.5 5.8 20.2 17.3l-8.9 6.5q-6.7-9.6-16.8-14.2t-22-4.6q-14.6 0-26.4 6.8-11.5 6.5-18.3 18.5-6.5 11.8-6.5 27.7t6.5 27.9q6.8 11.8 18.3 18.5 11.8 6.5 26.5 6.5 11.8 0 21.9-4.6t16.8-14.2l9 6.5q-7.8 11.6-20.3 17.4-12.3 5.7-27.4 5.7zm143-127.5q15.4 0 26.7 6 11.6 5.8 17.8 17.8 6.5 11.8 6.5 29.4v73.4h-12v-72.5q0-21.1-10.9-32.2-10.5-11-29.8-11-14.7 0-25.5 6t-16.6 16.8q-5.5 10.8-5.5 26v66.9h-12V259.8h12v87.9l-2.2-3.9q5.8-15 19-23.3 13.2-8.7 32.5-8.7zm161.9 0q15.4 0 26.8 6 11.5 5.8 17.8 17.8 6.5 11.8 6.5 29.4v73.4h-12v-72.5q0-21.1-10.9-32.2-10.6-11-29.8-11-14.7 0-25.5 6t-16.7 16.8q-5.5 10.8-5.5 26v66.9h-12V312.8h11.5v34.9l-1.7-3.9q5.8-15 19-23.3 13.3-8.7 32.5-8.7zm149.7 127.5q-18 0-32.2-8.1-14-8.2-22.4-22.7-8.2-14.4-8.2-33t8.2-32.9q8.4-14.4 22.4-22.6 14.2-8.2 32.2-8.2t32.3 8.2 22.3 22.6q8.2 14.2 8.2 33 0 18.5-8.2 33t-22.3 22.6-32.3 8.1zm0-10.8q14.5 0 26-6.5 11.6-6.7 18-18.8 6.6-12 6.6-27.6 0-16-6.5-27.7-6.5-12-18-18.5-11.6-6.8-26-6.8t-26 6.8q-11.4 6.5-18.1 18.5-6.5 11.8-6.5 27.7 0 15.6 6.5 27.6 6.7 12 18 18.8 11.6 6.5 26 6.5zm100.2 9.9V259.8h12v178.6zm111.8.9q-18 0-32.2-8.1-14-8.2-22.4-22.7-8.2-14.4-8.2-33t8.2-32.9q8.4-14.4 22.4-22.6 14.2-8.2 32.2-8.2t32.3 8.2 22.4 22.6q8.1 14.2 8.1 33 0 18.5-8.1 33t-22.4 22.6-32.3 8.1zm0-10.8q14.5 0 26-6.5 11.6-6.7 18-18.8 6.6-12 6.6-27.6 0-16-6.5-27.7-6.5-12-18-18.5-11.6-6.8-26-6.8t-26 6.8q-11.4 6.5-18.1 18.5-6.5 11.8-6.5 27.7 0 15.6 6.5 27.6 6.7 12 18 18.8 11.6 6.5 26 6.5zm152.4 57.5q-17.1 0-32.5-5.3t-25-14.6l6.4-9.2q9.4 8.7 22.4 13.5 13.3 4.8 28.4 4.8 25.3 0 37-11.8 12.1-11.8 12.1-37v-35l2.4-18.7-2-18.8v-41.1h11.6v112.1q0 31.5-15.4 46.2-15.1 15-45.4 15zm-3.4-52.2q-17.8 0-32-7.7-14-8-22.4-21.6-8.2-14-8.2-31.8 0-18 8.2-31.8 8.4-13.7 22.4-21.4 14.2-7.7 32-7.7 17 0 30.5 7.5 13.8 7.2 21.7 20.9 8 13.5 8 32.5 0 18.8-8 32.5t-21.7 21.1q-13.4 7.5-30.5 7.5zm1-10.8q15.1 0 26.7-6.3 11.5-6.5 18-17.8 6.7-11.5 6.7-26.2 0-15-6.7-26.2-6.5-11.4-18-17.6t-26.8-6.3q-14.6 0-26.4 6.3-11.6 6.2-18.3 17.6-6.5 11.3-6.5 26.2 0 14.7 6.5 26.2 6.7 11.3 18.3 17.8 11.8 6.3 26.4 6.3zm114.2 15.4V312.8h12v125.6zm6-156.2q-4 0-7-2.9-2.8-2.9-2.8-6.7 0-4.1 2.9-7t7-2.9q4.3 0 7 2.9 2.8 2.6 2.8 6.7t-2.9 7q-2.6 2.9-7 2.9zm107.9 157.1q-19 0-33.7-8.1-14.5-8.2-22.9-22.7-8.2-14.4-8.2-33t7.7-32.9q8-14.4 21.7-22.6t30.8-8.2q17 0 30.6 8t21.4 22.3q8 14.2 8 33 0 .7-.3 1.7v1.7h-111V369h104.5l-4.8 4.5q.2-14.6-6.3-26.2-6.2-11.8-17-18.3-10.9-6.7-25.1-6.7-14 0-25 6.7-10.9 6.5-17.1 18.3-6.3 11.6-6.3 26.5v2.2q0 15.4 6.8 27.4 7 11.8 19 18.5 12 6.5 27.4 6.5 12 0 22.4-4.3 10.6-4.3 17.8-13.3l7 8q-8.2 10.1-20.7 15.4-12.3 5-26.7 5zm124.4 0q-15.7 0-29.4-4.5-13.4-4.6-21-11.6l5.6-9.6q7.2 6.3 19.3 10.8 12 4.4 26 4.4 19.7 0 28.4-6.5t8.6-17.1q0-7.7-4.5-12-4.4-4.6-11.8-7t-16.4-3.9l-17.8-3.6q-9-2-16.4-5.5-7.4-3.6-12-9.9-4.3-6.5-4.3-17 0-9.7 5.3-17.4t15.8-12.3q10.6-4.8 26.5-4.8 11.8 0 23.6 3.4 12 3.3 19.5 8.9l-5.5 9.6q-8-6-17.9-8.7t-20-2.6q-18.2 0-26.9 6.7-8.4 6.8-8.4 16.9 0 8 4.3 12.7 4.6 4.6 12 7.2 7.5 2.5 16.4 4.1 9 1.5 17.8 3.4 9 2 16.4 5.5 7.5 3.4 11.8 9.7 4.6 6 4.6 16.3t-5.8 18q-5.6 7.8-16.6 12.1t-27.2 4.3zm148.9-.9V269.9h12.3v168.5zm128.5-126.6q15.4 0 26.8 6 11.5 5.8 17.8 17.8 6.5 11.8 6.5 29.4v73.4h-12v-72.5q0-21.1-10.9-32.2-10.6-11-29.8-11-14.7 0-25.5 6t-16.7 16.8q-5.5 10.8-5.5 26v66.9h-12V312.8h11.5v34.9l-1.7-3.9q5.8-15 19-23.3 13.3-8.7 32.5-8.7zm150.4 127.5q-18.2 0-32.7-8.1-14.2-8.2-22.6-22.7-8.2-14.4-8.2-33t8.2-33.1q8.4-14.5 22.6-22.4 14.5-8.2 32.7-8.2 15.2 0 27.5 5.8 12.5 5.8 20.2 17.3l-9 6.5q-6.6-9.6-16.8-14.2-10-4.6-21.9-4.6-14.6 0-26.4 6.8-11.6 6.5-18.3 18.5-6.5 11.8-6.5 27.7t6.5 27.9q6.7 11.8 18.3 18.5 11.8 6.5 26.4 6.5 11.8 0 22-4.6 10-4.5 16.8-14.2l8.9 6.5q-7.7 11.6-20.2 17.4-12.3 5.7-27.5 5.7zm87.2 0q-4.1 0-7.3-2.8-2.8-3.2-2.8-7.5t2.8-7.2q3.2-3 7.3-3t7 3q3 2.9 3 7.2t-3 7.5q-3 2.8-7 2.8z" style="-inkscape-font-specification:&quot;Montserrat Light&quot;" transform="translate(-209.2 22.8)scale(.11359)" aria-label="No BS Technologies Inc." font-size="240.6" fill="#000" stroke-width="2.5" font-weight="300" font-family="Montserrat"/></g></svg>