<?xml version="1.0" encoding="UTF-8" standalone="no"?>
<svg
   inkscape:version="1.2.2 (b0a8486541, 2022-12-01)"
   sodipodi:docname="no-bs-2023-logo.svg"
   id="svg12"
   version="1.1"
   stroke="#000000"
   fill="none"
   width="2691.3652"
   height="602.79816"
   viewBox="0 0 2523.0826 565.10708"
   inkscape:export-filename="no-bs-2023-logo-web.svg"
   inkscape:export-xdpi="96"
   inkscape:export-ydpi="96"
   xmlns:inkscape="http://www.inkscape.org/namespaces/inkscape"
   xmlns:sodipodi="http://sodipodi.sourceforge.net/DTD/sodipodi-0.dtd"
   xmlns="http://www.w3.org/2000/svg"
   xmlns:svg="http://www.w3.org/2000/svg"
   xmlns:rdf="http://www.w3.org/1999/02/22-rdf-syntax-ns#"
   xmlns:cc="http://creativecommons.org/ns#"
   xmlns:dc="http://purl.org/dc/elements/1.1/">
  <metadata
     id="metadata18">
    <rdf:RDF>
      <cc:Work
         rdf:about="">
        <dc:format>image/svg+xml</dc:format>
        <dc:type
           rdf:resource="http://purl.org/dc/dcmitype/StillImage" />
      </cc:Work>
    </rdf:RDF>
  </metadata>
  <defs
     id="defs16" />
  <sodipodi:namedview
     inkscape:current-layer="layer1"
     inkscape:window-maximized="1"
     inkscape:window-y="0"
     inkscape:window-x="1640"
     inkscape:cy="-246.92631"
     inkscape:cx="-1393.3699"
     inkscape:zoom="0.085045615"
     fit-margin-bottom="0"
     fit-margin-right="0"
     fit-margin-left="0"
     fit-margin-top="0"
     showgrid="false"
     id="namedview14"
     inkscape:window-height="1052"
     inkscape:window-width="1880"
     inkscape:pageshadow="2"
     inkscape:pageopacity="0"
     guidetolerance="10"
     gridtolerance="10"
     objecttolerance="10"
     borderopacity="1"
     bordercolor="#666666"
     pagecolor="#ffffff"
     inkscape:showpageshadow="2"
     inkscape:pagecheckerboard="0"
     inkscape:deskcolor="#d1d1d1" />
  <g
     id="g347"
     transform="translate(-20.361679,-27.528702)">
    <circle
       id="circle2"
       stroke-width="26.043"
       cx="302.91519"
       cy="310.08221"
       r="269.53201" />
    <g
       transform="translate(20.362216,27.529212)"
       id="g8"
       stroke-width="16.33">
      <path
         inkscape:connector-curvature="0"
         id="path4"
         stroke-dashoffset="20.0266"
         d="m 388.912,224.188 45.035,-66.294 -11.96,-58.012 -33.736,-28.8 18.227,37.548 -5.542,43.234 -57.448,57.883 z m -44.345,-14.122 -40.273,-12.18 -24.582,-0.47 m 108.748,27.304 20.71,56.65 -8.136,41.08 -56.215,74.208 1.48,70.895 -17.752,24.515 -42.16,-0.663 m 102.471,-267.345 97.634,95.218 -77.663,-37.575 m -232.664,-57.514 -45.035,-66.294 11.96,-58.012 33.736,-28.8 -18.227,37.548 5.542,43.234 57.448,57.883 z m 44.345,-14.122 40.273,-12.18 24.582,-0.47 m -108.748,27.303 -20.71,56.65 8.136,41.08 56.214,74.208 -1.48,70.895 17.752,24.515 42.16,-0.663 m -5.602,0.01 h 20.896 M 176.247,224.057 78.613,319.275 156.276,281.7" />
      <path
         inkscape:connector-curvature="0"
         id="path6"
         d="m 224.908,398.815 24.1,87 m 88.606,-81.27 -21.57,81.617 m -90.46,-84.897 113.88,0.147" />
    </g>
    <path
       inkscape:connector-curvature="0"
       id="path10"
       stroke-width="26.043"
       d="M 77.832215,467.56222 536.92823,182.78522" />
  </g>
  <g
     inkscape:label="Layer 1"
     id="layer1"
     transform="matrix(0.92143609,0,0,0.92143609,-1873.6591,77.214282)">
    <g
       transform="matrix(3.4636965,0,0,3.4636965,313.76891,-1238.9284)"
       id="layer1-3"
       inkscape:label="Layer 1"
       style="stroke:#ffffff;stroke-width:0.999994;stroke-miterlimit:4;stroke-dasharray:none;stroke-opacity:1">
      <g
         inkscape:label="Layer 1"
         id="layer1-1"
         transform="translate(77.857143,-182.85718)"
         style="stroke:#ffffff;stroke-width:0.999994;stroke-miterlimit:4;stroke-dasharray:none;stroke-opacity:1" />
    </g>
    <text
       xml:space="preserve"
       style="font-size:240.641px;fill:#000000;stroke-width:2.50668"
       x="2734.9434"
       y="129.31848"
       id="text238"><tspan
         sodipodi:role="line"
         id="tspan236"
         style="font-style:normal;font-variant:normal;font-weight:300;font-stretch:normal;font-size:240.641px;font-family:Montserrat;-inkscape-font-specification:'Montserrat Light';fill:#000000;stroke-width:2.50668"
         x="2734.9434"
         y="129.31848">No BS </tspan><tspan
         sodipodi:role="line"
         style="font-style:normal;font-variant:normal;font-weight:300;font-stretch:normal;font-size:240.641px;font-family:Montserrat;-inkscape-font-specification:'Montserrat Light';fill:#000000;stroke-width:2.50668"
         x="2734.9434"
         y="438.38043"
         id="tspan349">Technologies Inc.</tspan></text>
  </g>
</svg>
